<svg width="24" height="24" viewBox="0 0 24 24" fill="none" xmlns="http://www.w3.org/2000/svg">
<path d="M20 21V20C20 15.0293 15.9708 11 11 11H5.41411L8.70708 14.293C9.0976 14.6835 9.0976 15.3165 8.70708 15.707C8.31655 16.0975 7.68354 16.0975 7.29302 15.707L2.29302 10.707C1.90249 10.3165 1.90249 9.68348 2.29302 9.29295L7.29302 4.29295C7.68354 3.90243 8.31655 3.90243 8.70708 4.29295C9.0976 4.68348 9.0976 5.31649 8.70708 5.70702L5.41411 8.99999H11C17.0753 8.99999 22 13.9247 22 20V21C22 21.5523 21.5523 22 21 22C20.4478 22 20 21.5523 20 21Z" fill="black"/>
</svg>
