<svg width="25" height="25" viewBox="0 0 25 25" fill="none" xmlns="http://www.w3.org/2000/svg">
<mask id="mask0_147_8446" style="mask-type:alpha" maskUnits="userSpaceOnUse" x="0" y="0" width="25" height="25">
<rect x="0.0974121" y="0.218384" width="24" height="24" fill="#D9D9D9"/>
</mask>
<g mask="url(#mask0_147_8446)">
<path d="M16.2474 13.2184H5.09741C4.81408 13.2184 4.57658 13.1226 4.38491 12.9309C4.19325 12.7392 4.09741 12.5017 4.09741 12.2184C4.09741 11.9351 4.19325 11.6976 4.38491 11.5059C4.57658 11.3142 4.81408 11.2184 5.09741 11.2184H16.2474L13.3974 8.3684C13.1974 8.1684 13.1016 7.93506 13.1099 7.6684C13.1182 7.40173 13.2141 7.1684 13.3974 6.9684C13.5974 6.7684 13.8349 6.66423 14.1099 6.6559C14.3849 6.64756 14.6224 6.7434 14.8224 6.9434L19.3974 11.5184C19.4974 11.6184 19.5682 11.7267 19.6099 11.8434C19.6516 11.9601 19.6724 12.0851 19.6724 12.2184C19.6724 12.3517 19.6516 12.4767 19.6099 12.5934C19.5682 12.7101 19.4974 12.8184 19.3974 12.9184L14.8224 17.4934C14.6224 17.6934 14.3849 17.7892 14.1099 17.7809C13.8349 17.7726 13.5974 17.6684 13.3974 17.4684C13.2141 17.2684 13.1182 17.0351 13.1099 16.7684C13.1016 16.5017 13.1974 16.2684 13.3974 16.0684L16.2474 13.2184Z" fill="#1C1B1F"/>
</g>
</svg>
