<svg width="900" height="450" viewBox="0 0 900 450" fill="none" xmlns="http://www.w3.org/2000/svg">
<g filter="url(#filter0_d_274_99)">
<rect x="41" y="68.3745" width="818" height="314.251" rx="12.6332" fill="white"/>
<path d="M68.0788 118.641V100.266H75.1132C76.4411 100.266 77.5447 100.475 78.424 100.894C79.3093 101.306 79.9703 101.872 80.4069 102.589C80.8496 103.307 81.0709 104.121 81.0709 105.03C81.0709 105.778 80.9273 106.418 80.6402 106.95C80.3531 107.476 79.9673 107.904 79.4828 108.233C78.9983 108.562 78.4569 108.798 77.8588 108.942V109.121C78.5108 109.157 79.1358 109.358 79.734 109.723C80.3381 110.081 80.8316 110.59 81.2145 111.248C81.5973 111.906 81.7887 112.701 81.7887 113.634C81.7887 114.586 81.5584 115.441 81.0978 116.201C80.6372 116.954 79.9434 117.549 79.0162 117.986C78.0891 118.423 76.9226 118.641 75.5169 118.641H68.0788ZM71.4076 115.86H74.9876C76.1959 115.86 77.0662 115.629 77.5986 115.169C78.1369 114.702 78.4061 114.104 78.4061 113.374C78.4061 112.83 78.2715 112.339 78.0023 111.903C77.7331 111.46 77.3503 111.113 76.8538 110.862C76.3574 110.605 75.7652 110.476 75.0773 110.476H71.4076V115.86ZM71.4076 108.081H74.7005C75.2747 108.081 75.7921 107.976 76.2527 107.767C76.7133 107.551 77.0752 107.249 77.3384 106.86C77.6075 106.466 77.7421 105.999 77.7421 105.461C77.7421 104.749 77.4909 104.163 76.9884 103.702C76.492 103.241 75.7532 103.011 74.7722 103.011H71.4076V108.081ZM88.5068 118.919C87.6335 118.919 86.8469 118.764 86.1471 118.453C85.4532 118.136 84.9029 117.669 84.4961 117.053C84.0954 116.437 83.895 115.677 83.895 114.774C83.895 113.996 84.0385 113.353 84.3256 112.845C84.6128 112.336 85.0046 111.93 85.501 111.625C85.9975 111.32 86.5568 111.089 87.1789 110.934C87.807 110.772 88.456 110.656 89.1259 110.584C89.9334 110.5 90.5884 110.425 91.0909 110.36C91.5933 110.288 91.9582 110.18 92.1855 110.037C92.4188 109.887 92.5354 109.657 92.5354 109.346V109.292C92.5354 108.616 92.3351 108.093 91.9343 107.722C91.5335 107.351 90.9563 107.165 90.2026 107.165C89.407 107.165 88.776 107.339 88.3094 107.686C87.8488 108.033 87.5378 108.442 87.3763 108.915L84.3436 108.484C84.5829 107.647 84.9776 106.947 85.528 106.385C86.0783 105.816 86.7512 105.392 87.5468 105.111C88.3423 104.824 89.2216 104.68 90.1847 104.68C90.8486 104.68 91.5096 104.758 92.1676 104.913C92.8255 105.069 93.4267 105.326 93.971 105.685C94.5154 106.038 94.952 106.519 95.281 107.129C95.616 107.74 95.7835 108.502 95.7835 109.417V118.641H92.6611V116.748H92.5534C92.356 117.131 92.0778 117.49 91.7189 117.825C91.366 118.154 90.9204 118.42 90.3821 118.623C89.8497 118.821 89.2246 118.919 88.5068 118.919ZM89.3502 116.533C90.0022 116.533 90.5675 116.404 91.046 116.147C91.5245 115.884 91.8924 115.537 92.1496 115.106C92.4128 114.675 92.5444 114.206 92.5444 113.697V112.073C92.4427 112.157 92.2693 112.235 92.024 112.307C91.7847 112.378 91.5156 112.441 91.2165 112.495C90.9174 112.549 90.6213 112.597 90.3282 112.639C90.0351 112.68 89.7809 112.716 89.5656 112.746C89.081 112.812 88.6474 112.92 88.2646 113.069C87.8817 113.219 87.5797 113.428 87.3583 113.697C87.137 113.96 87.0264 114.301 87.0264 114.72C87.0264 115.318 87.2447 115.77 87.6813 116.075C88.118 116.38 88.6743 116.533 89.3502 116.533ZM102.297 100.266V118.641H99.0494V100.266H102.297ZM109.603 118.919C108.73 118.919 107.943 118.764 107.244 118.453C106.55 118.136 105.999 117.669 105.593 117.053C105.192 116.437 104.991 115.677 104.991 114.774C104.991 113.996 105.135 113.353 105.422 112.845C105.709 112.336 106.101 111.93 106.598 111.625C107.094 111.32 107.653 111.089 108.275 110.934C108.903 110.772 109.552 110.656 110.222 110.584C111.03 110.5 111.685 110.425 112.187 110.36C112.69 110.288 113.055 110.18 113.282 110.037C113.515 109.887 113.632 109.657 113.632 109.346V109.292C113.632 108.616 113.432 108.093 113.031 107.722C112.63 107.351 112.053 107.165 111.299 107.165C110.504 107.165 109.872 107.339 109.406 107.686C108.945 108.033 108.634 108.442 108.473 108.915L105.44 108.484C105.679 107.647 106.074 106.947 106.624 106.385C107.175 105.816 107.848 105.392 108.643 105.111C109.439 104.824 110.318 104.68 111.281 104.68C111.945 104.68 112.606 104.758 113.264 104.913C113.922 105.069 114.523 105.326 115.067 105.685C115.612 106.038 116.048 106.519 116.377 107.129C116.712 107.74 116.88 108.502 116.88 109.417V118.641H113.758V116.748H113.65C113.452 117.131 113.174 117.49 112.815 117.825C112.462 118.154 112.017 118.42 111.479 118.623C110.946 118.821 110.321 118.919 109.603 118.919ZM110.447 116.533C111.099 116.533 111.664 116.404 112.142 116.147C112.621 115.884 112.989 115.537 113.246 115.106C113.509 114.675 113.641 114.206 113.641 113.697V112.073C113.539 112.157 113.366 112.235 113.12 112.307C112.881 112.378 112.612 112.441 112.313 112.495C112.014 112.549 111.718 112.597 111.425 112.639C111.132 112.68 110.877 112.716 110.662 112.746C110.178 112.812 109.744 112.92 109.361 113.069C108.978 113.219 108.676 113.428 108.455 113.697C108.233 113.96 108.123 114.301 108.123 114.72C108.123 115.318 108.341 115.77 108.778 116.075C109.214 116.38 109.771 116.533 110.447 116.533ZM123.394 110.566V118.641H120.146V104.859H123.25V107.201H123.412C123.729 106.43 124.234 105.816 124.928 105.362C125.628 104.907 126.492 104.68 127.521 104.68C128.472 104.68 129.301 104.883 130.007 105.29C130.718 105.697 131.269 106.286 131.658 107.058C132.052 107.829 132.247 108.765 132.241 109.866V118.641H128.993V110.369C128.993 109.447 128.753 108.727 128.275 108.206C127.802 107.686 127.147 107.426 126.31 107.426C125.742 107.426 125.236 107.551 124.794 107.802C124.357 108.048 124.013 108.404 123.762 108.87C123.517 109.337 123.394 109.902 123.394 110.566ZM141.554 118.91C140.178 118.91 138.997 118.608 138.01 118.004C137.029 117.4 136.272 116.565 135.74 115.501C135.214 114.43 134.95 113.198 134.95 111.804C134.95 110.404 135.22 109.169 135.758 108.098C136.296 107.022 137.056 106.184 138.037 105.586C139.024 104.982 140.19 104.68 141.536 104.68C142.655 104.68 143.645 104.886 144.506 105.299C145.373 105.706 146.064 106.283 146.579 107.031C147.093 107.772 147.386 108.64 147.458 109.633H144.354C144.228 108.969 143.929 108.416 143.456 107.973C142.99 107.524 142.365 107.3 141.581 107.3C140.917 107.3 140.334 107.479 139.831 107.838C139.329 108.191 138.937 108.7 138.656 109.364C138.381 110.028 138.243 110.823 138.243 111.75C138.243 112.689 138.381 113.497 138.656 114.173C138.931 114.843 139.317 115.36 139.814 115.725C140.316 116.084 140.905 116.263 141.581 116.263C142.06 116.263 142.487 116.174 142.864 115.994C143.247 115.809 143.567 115.543 143.824 115.196C144.081 114.849 144.258 114.427 144.354 113.931H147.458C147.38 114.906 147.093 115.77 146.597 116.524C146.1 117.271 145.424 117.858 144.569 118.282C143.714 118.701 142.709 118.91 141.554 118.91ZM156.226 118.91C154.845 118.91 153.651 118.623 152.646 118.049C151.647 117.469 150.879 116.649 150.34 115.59C149.802 114.526 149.533 113.273 149.533 111.831C149.533 110.413 149.802 109.169 150.34 108.098C150.885 107.022 151.644 106.184 152.619 105.586C153.594 104.982 154.74 104.68 156.056 104.68C156.905 104.68 157.707 104.818 158.46 105.093C159.22 105.362 159.89 105.781 160.47 106.349C161.057 106.917 161.517 107.641 161.852 108.52C162.187 109.394 162.355 110.434 162.355 111.643V112.639H151.058V110.449H159.241C159.235 109.827 159.101 109.274 158.837 108.789C158.574 108.299 158.206 107.913 157.734 107.632C157.267 107.351 156.723 107.21 156.101 107.21C155.437 107.21 154.854 107.372 154.351 107.695C153.849 108.012 153.457 108.43 153.176 108.951C152.901 109.465 152.76 110.031 152.754 110.647V112.558C152.754 113.359 152.901 114.047 153.194 114.621C153.487 115.19 153.897 115.626 154.423 115.931C154.949 116.231 155.565 116.38 156.271 116.38C156.744 116.38 157.171 116.314 157.554 116.183C157.937 116.045 158.269 115.845 158.55 115.582C158.831 115.318 159.044 114.992 159.187 114.604L162.22 114.944C162.029 115.746 161.664 116.446 161.125 117.044C160.593 117.636 159.911 118.097 159.08 118.426C158.248 118.749 157.297 118.91 156.226 118.91ZM177.381 118.91C176.035 118.91 174.869 118.614 173.882 118.022C172.895 117.43 172.129 116.601 171.585 115.537C171.047 114.472 170.777 113.228 170.777 111.804C170.777 110.38 171.047 109.133 171.585 108.063C172.129 106.992 172.895 106.16 173.882 105.568C174.869 104.976 176.035 104.68 177.381 104.68C178.727 104.68 179.893 104.976 180.88 105.568C181.867 106.16 182.63 106.992 183.168 108.063C183.713 109.133 183.985 110.38 183.985 111.804C183.985 113.228 183.713 114.472 183.168 115.537C182.63 116.601 181.867 117.43 180.88 118.022C179.893 118.614 178.727 118.91 177.381 118.91ZM177.399 116.308C178.129 116.308 178.739 116.108 179.229 115.707C179.72 115.3 180.085 114.756 180.324 114.074C180.569 113.392 180.692 112.633 180.692 111.795C180.692 110.952 180.569 110.189 180.324 109.507C180.085 108.819 179.72 108.272 179.229 107.865C178.739 107.458 178.129 107.255 177.399 107.255C176.651 107.255 176.029 107.458 175.533 107.865C175.042 108.272 174.674 108.819 174.429 109.507C174.19 110.189 174.07 110.952 174.07 111.795C174.07 112.633 174.19 113.392 174.429 114.074C174.674 114.756 175.042 115.3 175.533 115.707C176.029 116.108 176.651 116.308 177.399 116.308ZM198.583 104.859L193.675 118.641H190.086L185.178 104.859H188.642L191.809 115.097H191.952L195.129 104.859H198.583ZM206.463 118.91C205.081 118.91 203.888 118.623 202.883 118.049C201.884 117.469 201.115 116.649 200.577 115.59C200.039 114.526 199.77 113.273 199.77 111.831C199.77 110.413 200.039 109.169 200.577 108.098C201.121 107.022 201.881 106.184 202.856 105.586C203.831 104.982 204.977 104.68 206.293 104.68C207.142 104.68 207.944 104.818 208.697 105.093C209.457 105.362 210.127 105.781 210.707 106.349C211.293 106.917 211.754 107.641 212.089 108.52C212.424 109.394 212.591 110.434 212.591 111.643V112.639H201.295V110.449H209.478C209.472 109.827 209.337 109.274 209.074 108.789C208.811 108.299 208.443 107.913 207.97 107.632C207.504 107.351 206.96 107.21 206.337 107.21C205.673 107.21 205.09 107.372 204.588 107.695C204.085 108.012 203.694 108.43 203.412 108.951C203.137 109.465 202.997 110.031 202.991 110.647V112.558C202.991 113.359 203.137 114.047 203.43 114.621C203.723 115.19 204.133 115.626 204.66 115.931C205.186 116.231 205.802 116.38 206.508 116.38C206.98 116.38 207.408 116.314 207.791 116.183C208.174 116.045 208.506 115.845 208.787 115.582C209.068 115.318 209.28 114.992 209.424 114.604L212.457 114.944C212.265 115.746 211.9 116.446 211.362 117.044C210.83 117.636 210.148 118.097 209.316 118.426C208.485 118.749 207.534 118.91 206.463 118.91ZM215.339 118.641V104.859H218.488V107.156H218.632C218.883 106.361 219.314 105.748 219.924 105.317C220.54 104.88 221.243 104.662 222.033 104.662C222.212 104.662 222.412 104.671 222.634 104.689C222.861 104.701 223.049 104.722 223.199 104.752V107.74C223.061 107.692 222.843 107.65 222.544 107.614C222.251 107.572 221.967 107.551 221.692 107.551C221.099 107.551 220.567 107.68 220.094 107.937C219.628 108.188 219.26 108.538 218.991 108.987C218.722 109.435 218.587 109.953 218.587 110.539V118.641H215.339ZM238.506 104.859V107.372H230.583V104.859H238.506ZM232.539 101.558H235.787V114.496C235.787 114.933 235.853 115.267 235.985 115.501C236.122 115.728 236.302 115.884 236.523 115.967C236.744 116.051 236.99 116.093 237.259 116.093C237.462 116.093 237.648 116.078 237.815 116.048C237.989 116.018 238.12 115.991 238.21 115.967L238.757 118.507C238.584 118.566 238.335 118.632 238.012 118.704C237.695 118.776 237.307 118.818 236.846 118.83C236.033 118.853 235.3 118.731 234.648 118.462C233.996 118.187 233.478 117.762 233.096 117.188C232.719 116.613 232.533 115.896 232.539 115.034V101.558ZM241.222 118.641V104.859H244.47V118.641H241.222ZM242.855 102.903C242.341 102.903 241.898 102.733 241.527 102.392C241.157 102.045 240.971 101.629 240.971 101.145C240.971 100.654 241.157 100.239 241.527 99.8977C241.898 99.5507 242.341 99.3773 242.855 99.3773C243.376 99.3773 243.818 99.5507 244.183 99.8977C244.554 100.239 244.74 100.654 244.74 101.145C244.74 101.629 244.554 102.045 244.183 102.392C243.818 102.733 243.376 102.903 242.855 102.903ZM247.81 118.641V104.859H250.915V107.201H251.076C251.363 106.412 251.839 105.796 252.503 105.353C253.167 104.904 253.959 104.68 254.881 104.68C255.814 104.68 256.6 104.907 257.24 105.362C257.886 105.811 258.341 106.424 258.604 107.201H258.748C259.053 106.436 259.567 105.825 260.291 105.371C261.021 104.91 261.885 104.68 262.884 104.68C264.152 104.68 265.187 105.081 265.989 105.882C266.79 106.684 267.191 107.853 267.191 109.391V118.641H263.934V109.893C263.934 109.038 263.707 108.413 263.252 108.018C262.797 107.617 262.241 107.417 261.583 107.417C260.799 107.417 260.186 107.662 259.744 108.152C259.307 108.637 259.089 109.268 259.089 110.046V118.641H255.904V109.758C255.904 109.047 255.688 108.478 255.257 108.054C254.833 107.629 254.276 107.417 253.589 107.417C253.122 107.417 252.697 107.536 252.315 107.775C251.932 108.009 251.627 108.341 251.399 108.771C251.172 109.196 251.058 109.693 251.058 110.261V118.641H247.81ZM276.587 118.91C275.205 118.91 274.012 118.623 273.007 118.049C272.008 117.469 271.24 116.649 270.701 115.59C270.163 114.526 269.894 113.273 269.894 111.831C269.894 110.413 270.163 109.169 270.701 108.098C271.246 107.022 272.005 106.184 272.98 105.586C273.955 104.982 275.101 104.68 276.417 104.68C277.266 104.68 278.068 104.818 278.821 105.093C279.581 105.362 280.251 105.781 280.831 106.349C281.417 106.917 281.878 107.641 282.213 108.52C282.548 109.394 282.715 110.434 282.715 111.643V112.639H271.419V110.449H279.602C279.596 109.827 279.461 109.274 279.198 108.789C278.935 108.299 278.567 107.913 278.095 107.632C277.628 107.351 277.084 107.21 276.462 107.21C275.798 107.21 275.214 107.372 274.712 107.695C274.21 108.012 273.818 108.43 273.537 108.951C273.261 109.465 273.121 110.031 273.115 110.647V112.558C273.115 113.359 273.261 114.047 273.555 114.621C273.848 115.19 274.257 115.626 274.784 115.931C275.31 116.231 275.926 116.38 276.632 116.38C277.105 116.38 277.532 116.314 277.915 116.183C278.298 116.045 278.63 115.845 278.911 115.582C279.192 115.318 279.405 114.992 279.548 114.604L282.581 114.944C282.389 115.746 282.025 116.446 281.486 117.044C280.954 117.636 280.272 118.097 279.44 118.426C278.609 118.749 277.658 118.91 276.587 118.91Z" fill="#1F1F1F"/>
<path d="M66.2664 263.606H833.734" stroke="#D1D1D1" stroke-width="0.789575"/>
<path d="M66.2664 225.707H833.734" stroke="#D1D1D1" stroke-width="0.789575" stroke-dasharray="6.32 6.32"/>
<path d="M66.2664 187.807H833.734" stroke="#D1D1D1" stroke-width="0.789575" stroke-dasharray="6.32 6.32"/>
<path d="M66.2664 149.907H833.734" stroke="#D1D1D1" stroke-width="0.789575" stroke-dasharray="6.32 6.32"/>
<path d="M66.2664 248.476L231.258 263.606L387.084 170.436L524.577 248.476L674.292 263.606L832.154 224.586" stroke="#90A6F6" stroke-width="1.57915"/>
<path d="M450 263.606L450 149.907" stroke="#D1D1D1" stroke-width="0.789575" stroke-linejoin="round" stroke-dasharray="1.58 3.16"/>
<g filter="url(#filter1_d_274_99)">
<rect x="445.263" y="202.019" width="9.4749" height="9.4749" rx="4.73745" fill="#90A6F6"/>
<rect x="444.473" y="201.229" width="11.0541" height="11.0541" rx="5.52703" stroke="white" stroke-width="1.57915"/>
</g>
<g filter="url(#filter2_d_274_99)">
<rect x="372.622" y="149.907" width="157.915" height="35.6332" rx="3.1583" fill="white"/>
<path d="M390.024 160.442H391.693V170.294C391.693 171.173 391.531 171.92 391.208 172.535C390.885 173.149 390.43 173.616 389.842 173.934C389.254 174.253 388.561 174.412 387.763 174.412C387.009 174.412 386.338 174.275 385.751 174.002C385.163 173.723 384.701 173.329 384.364 172.817C384.028 172.306 383.86 171.698 383.86 170.994H385.502C385.502 171.384 385.598 171.725 385.791 172.016C385.988 172.304 386.258 172.528 386.599 172.689C386.939 172.851 387.328 172.932 387.763 172.932C388.243 172.932 388.651 172.831 388.987 172.629C389.324 172.427 389.58 172.131 389.755 171.741C389.934 171.346 390.024 170.863 390.024 170.294V160.442ZM401.336 169.998V163.887H402.924V174.224H401.336V172.474H401.228C400.986 172.999 400.609 173.445 400.098 173.813C399.586 174.177 398.94 174.358 398.16 174.358C397.514 174.358 396.939 174.217 396.437 173.934C395.934 173.647 395.54 173.216 395.252 172.642C394.965 172.064 394.822 171.335 394.822 170.455V163.887H396.41V170.348C396.41 171.101 396.621 171.702 397.042 172.151C397.469 172.6 398.011 172.824 398.671 172.824C399.066 172.824 399.467 172.723 399.876 172.521C400.288 172.319 400.634 172.01 400.912 171.592C401.194 171.175 401.336 170.644 401.336 169.998ZM407.421 160.442V174.224H405.833V160.442H407.421ZM411.352 178.1C411.083 178.1 410.843 178.077 410.632 178.032C410.422 177.992 410.276 177.952 410.195 177.911L410.599 176.512C410.985 176.61 411.325 176.646 411.622 176.619C411.918 176.592 412.18 176.46 412.409 176.222C412.642 175.989 412.855 175.61 413.048 175.085L413.344 174.277L409.522 163.887H411.245L414.098 172.124H414.206L417.059 163.887H418.782L414.394 175.731C414.197 176.265 413.952 176.707 413.661 177.057C413.369 177.411 413.03 177.674 412.644 177.844C412.263 178.014 411.832 178.1 411.352 178.1Z" fill="#7A7A7A"/>
<path d="M431.584 160.442V174.224H429.088V162.871H429.007L425.783 164.93V162.642L429.209 160.442H431.584ZM437.212 172.339L437.124 173.08C437.061 173.645 436.949 174.219 436.788 174.802C436.631 175.39 436.465 175.931 436.29 176.424C436.115 176.918 435.973 177.306 435.866 177.588H434.224C434.287 177.315 434.372 176.942 434.479 176.471C434.592 176 434.699 175.471 434.802 174.883C434.906 174.295 434.975 173.699 435.011 173.093L435.058 172.339H437.212ZM439.913 174.224V172.42L444.698 167.73C445.156 167.268 445.537 166.857 445.842 166.498C446.147 166.139 446.376 165.792 446.528 165.455C446.681 165.119 446.757 164.76 446.757 164.379C446.757 163.943 446.658 163.571 446.461 163.262C446.264 162.948 445.992 162.705 445.647 162.535C445.301 162.364 444.909 162.279 444.469 162.279C444.016 162.279 443.619 162.373 443.278 162.562C442.937 162.746 442.672 163.008 442.484 163.349C442.3 163.69 442.208 164.096 442.208 164.567H439.833C439.833 163.692 440.032 162.932 440.432 162.286C440.831 161.64 441.38 161.14 442.08 160.785C442.785 160.431 443.592 160.254 444.503 160.254C445.427 160.254 446.239 160.426 446.939 160.772C447.639 161.117 448.181 161.59 448.567 162.192C448.958 162.793 449.153 163.479 449.153 164.251C449.153 164.767 449.054 165.274 448.857 165.772C448.659 166.27 448.312 166.821 447.814 167.427C447.32 168.033 446.627 168.766 445.734 169.627L443.359 172.043V172.138H449.361V174.224H439.913ZM456.474 174.412C455.577 174.412 454.774 174.244 454.065 173.907C453.356 173.566 452.793 173.1 452.376 172.508C451.963 171.915 451.744 171.238 451.717 170.475H454.139C454.184 171.041 454.429 171.503 454.873 171.862C455.317 172.216 455.851 172.393 456.474 172.393C456.963 172.393 457.398 172.281 457.78 172.057C458.161 171.832 458.462 171.521 458.681 171.121C458.901 170.722 459.009 170.267 459.004 169.755C459.009 169.235 458.899 168.773 458.675 168.369C458.45 167.965 458.143 167.649 457.753 167.42C457.363 167.187 456.914 167.07 456.407 167.07C455.994 167.066 455.588 167.142 455.189 167.299C454.79 167.456 454.473 167.663 454.24 167.918L451.986 167.548L452.706 160.442H460.7V162.528H454.772L454.375 166.182H454.455C454.711 165.882 455.072 165.633 455.539 165.435C456.005 165.233 456.517 165.132 457.073 165.132C457.908 165.132 458.652 165.33 459.307 165.724C459.962 166.115 460.478 166.653 460.855 167.34C461.232 168.026 461.42 168.811 461.42 169.695C461.42 170.605 461.209 171.418 460.788 172.131C460.371 172.84 459.79 173.398 459.045 173.806C458.305 174.21 457.448 174.412 456.474 174.412ZM468.769 174.486C467.661 174.486 466.71 174.206 465.916 173.645C465.126 173.08 464.518 172.265 464.092 171.202C463.67 170.134 463.459 168.849 463.459 167.346C463.464 165.843 463.677 164.565 464.099 163.511C464.525 162.452 465.133 161.644 465.922 161.088C466.716 160.532 467.665 160.254 468.769 160.254C469.872 160.254 470.821 160.532 471.615 161.088C472.409 161.644 473.017 162.452 473.439 163.511C473.865 164.569 474.078 165.848 474.078 167.346C474.078 168.854 473.865 170.141 473.439 171.209C473.017 172.272 472.409 173.084 471.615 173.645C470.826 174.206 469.877 174.486 468.769 174.486ZM468.769 172.38C469.63 172.38 470.31 171.956 470.808 171.108C471.31 170.256 471.561 169.002 471.561 167.346C471.561 166.252 471.447 165.332 471.218 164.587C470.989 163.843 470.666 163.282 470.249 162.905C469.832 162.524 469.339 162.333 468.769 162.333C467.912 162.333 467.234 162.759 466.737 163.611C466.239 164.459 465.987 165.704 465.983 167.346C465.978 168.445 466.088 169.37 466.313 170.119C466.541 170.868 466.864 171.433 467.282 171.815C467.699 172.191 468.195 172.38 468.769 172.38ZM489.837 160.442H492.333V169.446C492.333 170.433 492.1 171.301 491.633 172.05C491.171 172.799 490.521 173.385 489.682 173.806C488.843 174.224 487.863 174.432 486.741 174.432C485.615 174.432 484.633 174.224 483.794 173.806C482.955 173.385 482.304 172.799 481.842 172.05C481.38 171.301 481.149 170.433 481.149 169.446V160.442H483.646V169.237C483.646 169.811 483.771 170.323 484.022 170.771C484.278 171.22 484.637 171.572 485.099 171.828C485.561 172.079 486.109 172.205 486.741 172.205C487.374 172.205 487.921 172.079 488.383 171.828C488.85 171.572 489.209 171.22 489.46 170.771C489.711 170.323 489.837 169.811 489.837 169.237V160.442ZM502.537 164.231C502.474 163.643 502.209 163.185 501.743 162.858C501.28 162.53 500.679 162.367 499.939 162.367C499.419 162.367 498.972 162.445 498.6 162.602C498.228 162.759 497.943 162.972 497.745 163.241C497.548 163.511 497.447 163.818 497.442 164.163C497.442 164.45 497.508 164.699 497.638 164.91C497.772 165.121 497.954 165.301 498.183 165.449C498.411 165.592 498.665 165.713 498.943 165.812C499.221 165.911 499.502 165.994 499.784 166.061L501.076 166.384C501.597 166.505 502.097 166.669 502.577 166.875C503.061 167.082 503.494 167.342 503.876 167.656C504.262 167.97 504.567 168.349 504.791 168.793C505.015 169.237 505.127 169.758 505.127 170.354C505.127 171.162 504.921 171.873 504.508 172.487C504.096 173.098 503.499 173.575 502.718 173.921C501.942 174.262 501.002 174.432 499.899 174.432C498.826 174.432 497.896 174.266 497.106 173.934C496.321 173.602 495.706 173.118 495.262 172.481C494.823 171.844 494.585 171.068 494.549 170.152H497.005C497.041 170.632 497.189 171.032 497.449 171.35C497.709 171.669 498.048 171.906 498.465 172.064C498.887 172.221 499.358 172.299 499.878 172.299C500.421 172.299 500.897 172.218 501.305 172.057C501.718 171.891 502.041 171.662 502.274 171.37C502.507 171.074 502.626 170.729 502.631 170.334C502.626 169.975 502.521 169.679 502.314 169.446C502.108 169.208 501.819 169.011 501.446 168.854C501.079 168.692 500.648 168.549 500.154 168.423L498.586 168.019C497.451 167.728 496.554 167.286 495.895 166.694C495.24 166.097 494.912 165.305 494.912 164.318C494.912 163.506 495.132 162.795 495.572 162.185C496.016 161.575 496.619 161.101 497.382 160.765C498.145 160.424 499.008 160.254 499.973 160.254C500.951 160.254 501.808 160.424 502.543 160.765C503.284 161.101 503.864 161.57 504.286 162.171C504.708 162.768 504.925 163.454 504.939 164.231H502.537ZM512.023 174.224H507.353V160.442H512.117C513.486 160.442 514.661 160.718 515.644 161.27C516.631 161.817 517.389 162.604 517.918 163.632C518.448 164.659 518.712 165.888 518.712 167.319C518.712 168.755 518.445 169.989 517.911 171.02C517.382 172.052 516.617 172.844 515.617 173.396C514.621 173.948 513.423 174.224 512.023 174.224ZM509.85 172.064H511.902C512.862 172.064 513.663 171.889 514.304 171.539C514.946 171.184 515.428 170.657 515.751 169.957C516.074 169.253 516.236 168.374 516.236 167.319C516.236 166.265 516.074 165.39 515.751 164.695C515.428 163.995 514.951 163.472 514.318 163.127C513.69 162.777 512.909 162.602 511.976 162.602H509.85V172.064Z" fill="#1F1F1F"/>
<rect width="157.915" height="0.00157915" transform="translate(372.622 185.541)" fill="white"/>
<path d="M450.79 193.436L445.263 185.541L456.317 185.541L450.79 193.436Z" fill="white"/>
</g>
<g clip-path="url(#clip0_274_99)">
<path d="M67.9352 293.091H69.9271L74.6107 304.531H74.7722L79.4559 293.091H81.4477V306.873H79.8865V296.402H79.7519L75.4452 306.873H73.9378L69.631 296.402H69.4964V306.873H67.9352V293.091ZM87.6202 307.115C86.9652 307.115 86.3708 306.991 85.8369 306.745C85.3031 306.493 84.8791 306.132 84.5651 305.661C84.2511 305.186 84.094 304.612 84.094 303.939C84.094 303.346 84.2107 302.866 84.444 302.498C84.6773 302.126 84.989 301.835 85.3794 301.624C85.7697 301.413 86.2003 301.256 86.6714 301.153C87.1469 301.045 87.6247 300.96 88.1047 300.897C88.7328 300.816 89.242 300.756 89.6323 300.715C90.0271 300.67 90.3142 300.596 90.4936 300.493C90.6776 300.39 90.7695 300.211 90.7695 299.955V299.901C90.7695 299.237 90.5879 298.721 90.2245 298.353C89.8656 297.985 89.3205 297.801 88.5892 297.801C87.8311 297.801 87.2366 297.967 86.806 298.299C86.3753 298.631 86.0725 298.986 85.8975 299.363L84.3901 298.824C84.6593 298.196 85.0182 297.707 85.4668 297.357C85.9199 297.003 86.4134 296.756 86.9473 296.617C87.4856 296.473 88.015 296.402 88.5354 296.402C88.8674 296.402 89.2487 296.442 89.6794 296.523C90.1146 296.599 90.534 296.758 90.9378 297.001C91.346 297.243 91.6847 297.609 91.9539 298.098C92.2231 298.587 92.3577 299.241 92.3577 300.062V306.873H90.7695V305.473H90.6888C90.5811 305.697 90.4017 305.937 90.1504 306.193C89.8992 306.449 89.565 306.666 89.1478 306.846C88.7306 307.025 88.2214 307.115 87.6202 307.115ZM87.8625 305.688C88.4905 305.688 89.0199 305.565 89.4506 305.318C89.8858 305.071 90.2133 304.753 90.4331 304.363C90.6574 303.972 90.7695 303.562 90.7695 303.131V301.678C90.7023 301.758 90.5542 301.832 90.3254 301.9C90.1011 301.962 89.8409 302.018 89.5448 302.068C89.2532 302.113 88.9683 302.153 88.6902 302.189C88.4165 302.22 88.1945 302.247 88.024 302.27C87.6112 302.324 87.2254 302.411 86.8665 302.532C86.5121 302.649 86.225 302.826 86.0052 303.064C85.7898 303.297 85.6822 303.616 85.6822 304.019C85.6822 304.571 85.8863 304.988 86.2945 305.271C86.7073 305.549 87.2299 305.688 87.8625 305.688ZM95.9091 310.749C95.6399 310.749 95.3999 310.726 95.189 310.681C94.9782 310.641 94.8324 310.601 94.7516 310.56L95.1554 309.161C95.5412 309.259 95.8822 309.295 96.1783 309.268C96.4743 309.241 96.7368 309.109 96.9656 308.871C97.1989 308.638 97.412 308.259 97.6049 307.734L97.901 306.926L94.0787 296.536H95.8014L98.6546 304.773H98.7623L101.616 296.536H103.338L98.9507 308.38C98.7533 308.914 98.5088 309.356 98.2172 309.706C97.9256 310.06 97.5869 310.322 97.2011 310.493C96.8198 310.663 96.3891 310.749 95.9091 310.749Z" fill="#7A7A7A"/>
<path d="M224.704 293.091H226.373V302.943C226.373 303.822 226.212 304.569 225.889 305.183C225.566 305.798 225.11 306.265 224.523 306.583C223.935 306.902 223.242 307.061 222.443 307.061C221.69 307.061 221.019 306.924 220.431 306.65C219.844 306.372 219.382 305.978 219.045 305.466C218.709 304.955 218.54 304.347 218.54 303.642H220.182C220.182 304.033 220.279 304.374 220.472 304.665C220.669 304.952 220.938 305.177 221.279 305.338C221.62 305.5 222.008 305.581 222.443 305.581C222.923 305.581 223.332 305.48 223.668 305.278C224.005 305.076 224.26 304.78 224.435 304.389C224.615 303.995 224.704 303.512 224.704 302.943V293.091ZM236.016 302.647V296.536H237.605V306.873H236.016V305.123H235.909C235.667 305.648 235.29 306.094 234.778 306.462C234.267 306.825 233.621 307.007 232.84 307.007C232.194 307.007 231.62 306.866 231.117 306.583C230.615 306.296 230.22 305.865 229.933 305.291C229.646 304.712 229.502 303.983 229.502 303.104V296.536H231.091V302.996C231.091 303.75 231.301 304.351 231.723 304.8C232.149 305.249 232.692 305.473 233.352 305.473C233.746 305.473 234.148 305.372 234.556 305.17C234.969 304.968 235.314 304.659 235.593 304.241C235.875 303.824 236.016 303.293 236.016 302.647ZM242.101 300.655V306.873H240.513V296.536H242.048V298.151H242.182C242.424 297.626 242.792 297.205 243.286 296.886C243.779 296.563 244.416 296.402 245.197 296.402C245.897 296.402 246.509 296.545 247.034 296.832C247.559 297.115 247.967 297.546 248.259 298.124C248.55 298.699 248.696 299.425 248.696 300.305V306.873H247.108V300.412C247.108 299.6 246.897 298.968 246.476 298.515C246.054 298.057 245.475 297.828 244.739 297.828C244.232 297.828 243.779 297.938 243.38 298.158C242.985 298.378 242.673 298.699 242.445 299.12C242.216 299.542 242.101 300.053 242.101 300.655Z" fill="#7A7A7A"/>
<path d="M371.198 293.091H372.867V302.943C372.867 303.822 372.705 304.569 372.382 305.183C372.059 305.798 371.604 306.265 371.016 306.583C370.429 306.902 369.735 307.061 368.937 307.061C368.183 307.061 367.512 306.924 366.925 306.65C366.337 306.372 365.875 305.978 365.539 305.466C365.202 304.955 365.034 304.347 365.034 303.642H366.676C366.676 304.033 366.772 304.374 366.965 304.665C367.163 304.952 367.432 305.177 367.773 305.338C368.114 305.5 368.502 305.581 368.937 305.581C369.417 305.581 369.825 305.48 370.162 305.278C370.498 305.076 370.754 304.78 370.929 304.389C371.108 303.995 371.198 303.512 371.198 302.943V293.091ZM382.51 302.647V296.536H384.098V306.873H382.51V305.123H382.402C382.16 305.648 381.783 306.094 381.272 306.462C380.76 306.825 380.114 307.007 379.334 307.007C378.688 307.007 378.113 306.866 377.611 306.583C377.109 306.296 376.714 305.865 376.427 305.291C376.139 304.712 375.996 303.983 375.996 303.104V296.536H377.584V302.996C377.584 303.75 377.795 304.351 378.217 304.8C378.643 305.249 379.186 305.473 379.845 305.473C380.24 305.473 380.641 305.372 381.05 305.17C381.462 304.968 381.808 304.659 382.086 304.241C382.369 303.824 382.51 303.293 382.51 302.647ZM388.595 293.091V306.873H387.007V293.091H388.595Z" fill="#7A7A7A"/>
<path d="M505.981 306.873H504.231L509.292 293.091H511.014L516.075 306.873H514.325L510.207 295.271H510.099L505.981 306.873ZM506.627 301.489H513.679V302.97H506.627V301.489ZM524.52 302.647V296.536H526.108V306.873H524.52V305.123H524.412C524.17 305.648 523.793 306.094 523.282 306.462C522.771 306.825 522.125 307.007 521.344 307.007C520.698 307.007 520.124 306.866 519.621 306.583C519.119 306.296 518.724 305.865 518.437 305.291C518.15 304.712 518.006 303.983 518.006 303.104V296.536H519.594V302.996C519.594 303.75 519.805 304.351 520.227 304.8C520.653 305.249 521.196 305.473 521.855 305.473C522.25 305.473 522.652 305.372 523.06 305.17C523.473 304.968 523.818 304.659 524.096 304.241C524.379 303.824 524.52 303.293 524.52 302.647ZM533.189 310.964C532.422 310.964 531.763 310.865 531.211 310.668C530.659 310.475 530.199 310.219 529.831 309.901C529.468 309.587 529.179 309.25 528.963 308.891L530.228 308.003C530.372 308.192 530.554 308.407 530.773 308.649C530.993 308.896 531.294 309.109 531.675 309.288C532.061 309.472 532.566 309.564 533.189 309.564C534.024 309.564 534.712 309.362 535.255 308.959C535.798 308.555 536.069 307.922 536.069 307.061V304.961H535.935C535.818 305.15 535.652 305.383 535.437 305.661C535.226 305.935 534.921 306.179 534.522 306.395C534.127 306.606 533.593 306.711 532.92 306.711C532.086 306.711 531.336 306.514 530.672 306.119C530.013 305.724 529.49 305.15 529.105 304.396C528.723 303.642 528.533 302.727 528.533 301.651C528.533 300.592 528.719 299.67 529.091 298.885C529.463 298.095 529.982 297.485 530.646 297.054C531.309 296.619 532.077 296.402 532.947 296.402C533.62 296.402 534.154 296.514 534.549 296.738C534.948 296.958 535.253 297.209 535.464 297.492C535.679 297.77 535.845 297.999 535.962 298.178H536.123V296.536H537.658V307.169C537.658 308.057 537.456 308.779 537.052 309.335C536.653 309.896 536.114 310.307 535.437 310.567C534.764 310.832 534.015 310.964 533.189 310.964ZM533.135 305.284C533.772 305.284 534.311 305.139 534.75 304.847C535.19 304.555 535.524 304.136 535.753 303.589C535.982 303.041 536.096 302.386 536.096 301.624C536.096 300.879 535.984 300.222 535.76 299.652C535.536 299.082 535.204 298.636 534.764 298.313C534.324 297.99 533.781 297.828 533.135 297.828C532.462 297.828 531.902 297.999 531.453 298.34C531.009 298.681 530.675 299.138 530.45 299.713C530.231 300.287 530.121 300.924 530.121 301.624C530.121 302.341 530.233 302.976 530.457 303.528C530.686 304.075 531.022 304.506 531.467 304.82C531.915 305.13 532.471 305.284 533.135 305.284Z" fill="#7A7A7A"/>
<path d="M662.446 296.536C662.365 295.854 662.038 295.325 661.463 294.948C660.889 294.571 660.185 294.383 659.35 294.383C658.74 294.383 658.206 294.482 657.749 294.679C657.296 294.876 656.941 295.148 656.686 295.493C656.434 295.839 656.309 296.231 656.309 296.671C656.309 297.039 656.396 297.355 656.571 297.62C656.751 297.88 656.979 298.098 657.258 298.272C657.536 298.443 657.827 298.584 658.132 298.696C658.437 298.804 658.718 298.892 658.974 298.959L660.373 299.336C660.732 299.43 661.131 299.56 661.571 299.726C662.015 299.892 662.439 300.119 662.843 300.406C663.251 300.688 663.588 301.052 663.852 301.496C664.117 301.94 664.249 302.485 664.249 303.131C664.249 303.876 664.054 304.549 663.664 305.15C663.278 305.751 662.713 306.229 661.968 306.583C661.228 306.938 660.328 307.115 659.27 307.115C658.283 307.115 657.428 306.956 656.706 306.637C655.988 306.319 655.423 305.874 655.01 305.305C654.602 304.735 654.371 304.073 654.317 303.319H656.04C656.084 303.84 656.259 304.271 656.564 304.612C656.874 304.948 657.264 305.199 657.735 305.365C658.211 305.527 658.722 305.607 659.27 305.607C659.907 305.607 660.479 305.504 660.986 305.298C661.493 305.087 661.894 304.795 662.19 304.423C662.486 304.046 662.634 303.607 662.634 303.104C662.634 302.647 662.506 302.274 662.251 301.987C661.995 301.7 661.659 301.467 661.241 301.287C660.824 301.108 660.373 300.951 659.889 300.816L658.193 300.332C657.116 300.022 656.264 299.58 655.636 299.006C655.008 298.432 654.694 297.68 654.694 296.752C654.694 295.98 654.902 295.307 655.319 294.733C655.741 294.154 656.306 293.705 657.015 293.387C657.729 293.064 658.525 292.902 659.404 292.902C660.292 292.902 661.082 293.062 661.773 293.38C662.464 293.694 663.011 294.125 663.415 294.672C663.823 295.22 664.038 295.841 664.061 296.536H662.446ZM671.112 307.088C670.116 307.088 669.256 306.868 668.534 306.428C667.816 305.984 667.262 305.365 666.872 304.571C666.486 303.773 666.293 302.844 666.293 301.785C666.293 300.726 666.486 299.793 666.872 298.986C667.262 298.174 667.805 297.541 668.501 297.088C669.2 296.631 670.017 296.402 670.95 296.402C671.488 296.402 672.02 296.491 672.545 296.671C673.07 296.85 673.548 297.142 673.978 297.546C674.409 297.945 674.752 298.474 675.008 299.134C675.264 299.793 675.391 300.605 675.391 301.57V302.243H667.424V300.87H673.776C673.776 300.287 673.66 299.766 673.426 299.309C673.198 298.851 672.87 298.49 672.444 298.225C672.022 297.961 671.524 297.828 670.95 297.828C670.317 297.828 669.77 297.985 669.308 298.299C668.85 298.609 668.498 299.013 668.252 299.511C668.005 300.009 667.881 300.542 667.881 301.112V302.027C667.881 302.808 668.016 303.47 668.285 304.013C668.559 304.551 668.938 304.961 669.422 305.244C669.907 305.522 670.47 305.661 671.112 305.661C671.529 305.661 671.906 305.603 672.242 305.486C672.583 305.365 672.877 305.186 673.124 304.948C673.37 304.706 673.561 304.405 673.696 304.046L675.23 304.477C675.068 304.997 674.797 305.455 674.416 305.85C674.034 306.24 673.563 306.545 673.002 306.765C672.442 306.98 671.811 307.088 671.112 307.088ZM677.807 310.749V296.536H679.342V298.178H679.53C679.647 297.999 679.808 297.77 680.014 297.492C680.225 297.209 680.526 296.958 680.916 296.738C681.311 296.514 681.845 296.402 682.518 296.402C683.388 296.402 684.155 296.619 684.819 297.054C685.483 297.49 686.001 298.106 686.374 298.905C686.746 299.704 686.932 300.646 686.932 301.731C686.932 302.826 686.746 303.775 686.374 304.578C686.001 305.376 685.485 305.996 684.826 306.435C684.166 306.87 683.406 307.088 682.545 307.088C681.881 307.088 681.349 306.978 680.95 306.758C680.551 306.534 680.243 306.28 680.028 305.998C679.813 305.711 679.647 305.473 679.53 305.284H679.395V310.749H677.807ZM679.368 301.704C679.368 302.485 679.483 303.174 679.712 303.77C679.94 304.363 680.275 304.827 680.714 305.163C681.154 305.495 681.692 305.661 682.329 305.661C682.993 305.661 683.547 305.486 683.991 305.136C684.44 304.782 684.777 304.306 685.001 303.71C685.23 303.109 685.344 302.44 685.344 301.704C685.344 300.978 685.232 300.323 685.008 299.739C684.788 299.152 684.454 298.687 684.005 298.346C683.561 298.001 683.002 297.828 682.329 297.828C681.683 297.828 681.14 297.992 680.701 298.32C680.261 298.643 679.929 299.096 679.705 299.679C679.481 300.258 679.368 300.933 679.368 301.704Z" fill="#7A7A7A"/>
<path d="M815.031 299.982C815.031 301.435 814.768 302.691 814.243 303.75C813.718 304.809 812.998 305.625 812.083 306.2C811.168 306.774 810.123 307.061 808.947 307.061C807.772 307.061 806.727 306.774 805.811 306.2C804.896 305.625 804.176 304.809 803.651 303.75C803.126 302.691 802.864 301.435 802.864 299.982C802.864 298.528 803.126 297.272 803.651 296.213C804.176 295.155 804.896 294.338 805.811 293.764C806.727 293.19 807.772 292.902 808.947 292.902C810.123 292.902 811.168 293.19 812.083 293.764C812.998 294.338 813.718 295.155 814.243 296.213C814.768 297.272 815.031 298.528 815.031 299.982ZM813.416 299.982C813.416 298.788 813.216 297.781 812.817 296.96C812.422 296.139 811.886 295.518 811.208 295.096C810.535 294.675 809.782 294.464 808.947 294.464C808.113 294.464 807.357 294.675 806.68 295.096C806.007 295.518 805.471 296.139 805.071 296.96C804.676 297.781 804.479 298.788 804.479 299.982C804.479 301.175 804.676 302.182 805.071 303.003C805.471 303.824 806.007 304.446 806.68 304.867C807.357 305.289 808.113 305.5 808.947 305.5C809.782 305.5 810.535 305.289 811.208 304.867C811.886 304.446 812.422 303.824 812.817 303.003C813.216 302.182 813.416 301.175 813.416 299.982ZM821.821 307.088C820.852 307.088 820.017 306.859 819.317 306.402C818.617 305.944 818.079 305.314 817.702 304.511C817.325 303.708 817.137 302.79 817.137 301.758C817.137 300.708 817.33 299.782 817.716 298.979C818.106 298.172 818.649 297.541 819.344 297.088C820.044 296.631 820.861 296.402 821.794 296.402C822.52 296.402 823.175 296.536 823.759 296.805C824.342 297.075 824.82 297.451 825.192 297.936C825.564 298.421 825.795 298.986 825.885 299.632H824.297C824.176 299.161 823.907 298.744 823.489 298.38C823.077 298.012 822.52 297.828 821.821 297.828C821.201 297.828 820.659 297.99 820.192 298.313C819.73 298.631 819.369 299.082 819.109 299.665C818.853 300.244 818.725 300.924 818.725 301.704C818.725 302.503 818.851 303.198 819.102 303.791C819.358 304.383 819.717 304.843 820.179 305.17C820.645 305.498 821.193 305.661 821.821 305.661C822.233 305.661 822.608 305.589 822.944 305.446C823.281 305.302 823.566 305.096 823.799 304.827C824.032 304.558 824.198 304.235 824.297 303.858H825.885C825.795 304.468 825.573 305.018 825.219 305.507C824.869 305.991 824.405 306.377 823.826 306.664C823.252 306.947 822.583 307.088 821.821 307.088ZM832.702 296.536V297.882H827.345V296.536H832.702ZM828.907 294.06H830.495V303.912C830.495 304.36 830.56 304.697 830.69 304.921C830.824 305.141 830.995 305.289 831.201 305.365C831.412 305.437 831.634 305.473 831.867 305.473C832.042 305.473 832.186 305.464 832.298 305.446C832.41 305.424 832.5 305.406 832.567 305.392L832.89 306.819C832.783 306.859 832.632 306.899 832.439 306.94C832.247 306.985 832.002 307.007 831.706 307.007C831.257 307.007 830.818 306.911 830.387 306.718C829.961 306.525 829.606 306.231 829.324 305.836C829.046 305.441 828.907 304.943 828.907 304.342V294.06Z" fill="#7A7A7A"/>
</g>
<rect x="66.2664" y="342.323" width="25.2664" height="12.6332" rx="6.3166" fill="#90A6F6"/>
<path d="M105.835 355.139V341.357H110.653C111.613 341.357 112.405 341.523 113.029 341.855C113.652 342.183 114.116 342.625 114.422 343.181C114.727 343.733 114.879 344.345 114.879 345.018C114.879 345.61 114.774 346.099 114.563 346.485C114.356 346.871 114.083 347.176 113.742 347.4C113.405 347.625 113.04 347.791 112.645 347.898V348.033C113.067 348.06 113.491 348.208 113.917 348.477C114.343 348.746 114.7 349.132 114.987 349.635C115.274 350.137 115.417 350.752 115.417 351.478C115.417 352.169 115.26 352.791 114.946 353.342C114.632 353.894 114.137 354.332 113.459 354.655C112.782 354.978 111.9 355.139 110.815 355.139H105.835ZM107.504 353.659H110.815C111.905 353.659 112.679 353.448 113.136 353.026C113.598 352.6 113.829 352.084 113.829 351.478C113.829 351.012 113.71 350.581 113.473 350.186C113.235 349.787 112.896 349.469 112.457 349.231C112.017 348.989 111.497 348.867 110.895 348.867H107.504V353.659ZM107.504 347.414H110.599C111.102 347.414 111.555 347.315 111.959 347.118C112.367 346.92 112.69 346.642 112.928 346.283C113.17 345.924 113.291 345.503 113.291 345.018C113.291 344.413 113.08 343.899 112.658 343.477C112.237 343.051 111.568 342.838 110.653 342.838H107.504V347.414ZM120.986 355.381C120.331 355.381 119.737 355.258 119.203 355.011C118.669 354.76 118.245 354.399 117.931 353.928C117.617 353.452 117.46 352.878 117.46 352.205C117.46 351.613 117.576 351.133 117.81 350.765C118.043 350.393 118.355 350.101 118.745 349.89C119.135 349.679 119.566 349.522 120.037 349.419C120.513 349.312 120.99 349.226 121.47 349.164C122.099 349.083 122.608 349.022 122.998 348.982C123.393 348.937 123.68 348.863 123.859 348.76C124.043 348.657 124.135 348.477 124.135 348.221V348.168C124.135 347.504 123.954 346.988 123.59 346.62C123.231 346.252 122.686 346.068 121.955 346.068C121.197 346.068 120.602 346.234 120.172 346.566C119.741 346.898 119.438 347.252 119.263 347.629L117.756 347.091C118.025 346.463 118.384 345.974 118.833 345.624C119.286 345.269 119.779 345.023 120.313 344.884C120.851 344.74 121.381 344.668 121.901 344.668C122.233 344.668 122.614 344.709 123.045 344.789C123.48 344.866 123.9 345.025 124.304 345.267C124.712 345.509 125.051 345.875 125.32 346.364C125.589 346.853 125.723 347.508 125.723 348.329V355.139H124.135V353.739H124.055C123.947 353.964 123.767 354.204 123.516 354.459C123.265 354.715 122.931 354.933 122.514 355.112C122.096 355.292 121.587 355.381 120.986 355.381ZM121.228 353.955C121.856 353.955 122.386 353.831 122.816 353.585C123.252 353.338 123.579 353.019 123.799 352.629C124.023 352.239 124.135 351.828 124.135 351.398V349.944C124.068 350.025 123.92 350.099 123.691 350.166C123.467 350.229 123.207 350.285 122.911 350.334C122.619 350.379 122.334 350.42 122.056 350.456C121.782 350.487 121.56 350.514 121.39 350.536C120.977 350.59 120.591 350.678 120.232 350.799C119.878 350.915 119.591 351.093 119.371 351.33C119.156 351.564 119.048 351.882 119.048 352.286C119.048 352.838 119.252 353.255 119.66 353.538C120.073 353.816 120.596 353.955 121.228 353.955ZM130.21 341.357V355.139H128.622V341.357H130.21ZM136.161 355.381C135.506 355.381 134.911 355.258 134.377 355.011C133.844 354.76 133.42 354.399 133.106 353.928C132.791 353.452 132.634 352.878 132.634 352.205C132.634 351.613 132.751 351.133 132.984 350.765C133.218 350.393 133.529 350.101 133.92 349.89C134.31 349.679 134.741 349.522 135.212 349.419C135.687 349.312 136.165 349.226 136.645 349.164C137.273 349.083 137.782 349.022 138.173 348.982C138.567 348.937 138.855 348.863 139.034 348.76C139.218 348.657 139.31 348.477 139.31 348.221V348.168C139.31 347.504 139.128 346.988 138.765 346.62C138.406 346.252 137.861 346.068 137.13 346.068C136.371 346.068 135.777 346.234 135.346 346.566C134.916 346.898 134.613 347.252 134.438 347.629L132.931 347.091C133.2 346.463 133.559 345.974 134.007 345.624C134.46 345.269 134.954 345.023 135.488 344.884C136.026 344.74 136.555 344.668 137.076 344.668C137.408 344.668 137.789 344.709 138.22 344.789C138.655 344.866 139.074 345.025 139.478 345.267C139.886 345.509 140.225 345.875 140.494 346.364C140.764 346.853 140.898 347.508 140.898 348.329V355.139H139.31V353.739H139.229C139.122 353.964 138.942 354.204 138.691 354.459C138.44 354.715 138.105 354.933 137.688 355.112C137.271 355.292 136.762 355.381 136.161 355.381ZM136.403 353.955C137.031 353.955 137.56 353.831 137.991 353.585C138.426 353.338 138.754 353.019 138.973 352.629C139.198 352.239 139.31 351.828 139.31 351.398V349.944C139.243 350.025 139.095 350.099 138.866 350.166C138.642 350.229 138.381 350.285 138.085 350.334C137.794 350.379 137.509 350.42 137.231 350.456C136.957 350.487 136.735 350.514 136.564 350.536C136.152 350.59 135.766 350.678 135.407 350.799C135.053 350.915 134.765 351.093 134.546 351.33C134.33 351.564 134.223 351.882 134.223 352.286C134.223 352.838 134.427 353.255 134.835 353.538C135.248 353.816 135.77 353.955 136.403 353.955ZM145.385 348.921V355.139H143.797V344.803H145.331V346.418H145.466C145.708 345.893 146.076 345.471 146.569 345.153C147.063 344.83 147.7 344.668 148.48 344.668C149.18 344.668 149.793 344.812 150.317 345.099C150.842 345.382 151.251 345.812 151.542 346.391C151.834 346.965 151.98 347.692 151.98 348.571V355.139H150.391V348.679C150.391 347.867 150.181 347.234 149.759 346.781C149.337 346.324 148.759 346.095 148.023 346.095C147.516 346.095 147.063 346.205 146.663 346.425C146.269 346.644 145.957 346.965 145.728 347.387C145.499 347.809 145.385 348.32 145.385 348.921ZM159.081 355.354C158.112 355.354 157.277 355.126 156.577 354.668C155.878 354.211 155.339 353.58 154.962 352.777C154.586 351.974 154.397 351.057 154.397 350.025C154.397 348.975 154.59 348.049 154.976 347.246C155.366 346.438 155.909 345.808 156.604 345.355C157.304 344.897 158.121 344.668 159.054 344.668C159.781 344.668 160.436 344.803 161.019 345.072C161.602 345.341 162.08 345.718 162.452 346.203C162.825 346.687 163.056 347.252 163.145 347.898H161.557C161.436 347.427 161.167 347.01 160.75 346.647C160.337 346.279 159.781 346.095 159.081 346.095C158.462 346.095 157.919 346.256 157.452 346.579C156.99 346.898 156.629 347.349 156.369 347.932C156.113 348.511 155.985 349.19 155.985 349.971C155.985 350.77 156.111 351.465 156.362 352.057C156.618 352.649 156.977 353.109 157.439 353.437C157.905 353.764 158.453 353.928 159.081 353.928C159.493 353.928 159.868 353.856 160.205 353.713C160.541 353.569 160.826 353.363 161.059 353.093C161.292 352.824 161.458 352.501 161.557 352.124H163.145C163.056 352.735 162.833 353.284 162.479 353.773C162.129 354.258 161.665 354.643 161.086 354.931C160.512 355.213 159.843 355.354 159.081 355.354ZM169.801 355.354C168.805 355.354 167.946 355.135 167.223 354.695C166.505 354.251 165.951 353.632 165.561 352.838C165.175 352.039 164.982 351.111 164.982 350.052C164.982 348.993 165.175 348.06 165.561 347.252C165.951 346.44 166.494 345.808 167.19 345.355C167.889 344.897 168.706 344.668 169.639 344.668C170.177 344.668 170.709 344.758 171.234 344.937C171.759 345.117 172.237 345.409 172.667 345.812C173.098 346.212 173.441 346.741 173.697 347.4C173.953 348.06 174.08 348.872 174.08 349.836V350.509H166.113V349.137H172.465C172.465 348.553 172.349 348.033 172.115 347.575C171.887 347.118 171.559 346.757 171.133 346.492C170.711 346.227 170.213 346.095 169.639 346.095C169.007 346.095 168.459 346.252 167.997 346.566C167.54 346.876 167.187 347.279 166.941 347.777C166.694 348.275 166.57 348.809 166.57 349.379V350.294C166.57 351.075 166.705 351.736 166.974 352.279C167.248 352.818 167.627 353.228 168.112 353.511C168.596 353.789 169.159 353.928 169.801 353.928C170.218 353.928 170.595 353.87 170.931 353.753C171.272 353.632 171.566 353.452 171.813 353.215C172.059 352.972 172.25 352.672 172.385 352.313L173.919 352.744C173.757 353.264 173.486 353.722 173.105 354.116C172.723 354.507 172.252 354.812 171.692 355.031C171.131 355.247 170.5 355.354 169.801 355.354ZM182.391 349.325C182.391 347.629 182.611 346.07 183.051 344.648C183.495 343.222 184.127 341.909 184.948 340.711H186.348C186.025 341.156 185.722 341.703 185.44 342.353C185.161 342.999 184.917 343.711 184.706 344.487C184.495 345.258 184.329 346.057 184.208 346.882C184.091 347.708 184.033 348.522 184.033 349.325C184.033 350.393 184.136 351.476 184.343 352.575C184.549 353.674 184.827 354.695 185.177 355.637C185.527 356.579 185.917 357.346 186.348 357.939H184.948C184.127 356.741 183.495 355.431 183.051 354.009C182.611 352.582 182.391 351.021 182.391 349.325ZM188.692 355.139V344.803H190.28V355.139H188.692ZM189.499 343.08C189.189 343.08 188.923 342.975 188.698 342.764C188.478 342.553 188.368 342.3 188.368 342.003C188.368 341.707 188.478 341.454 188.698 341.243C188.923 341.032 189.189 340.927 189.499 340.927C189.809 340.927 190.073 341.032 190.293 341.243C190.517 341.454 190.63 341.707 190.63 342.003C190.63 342.3 190.517 342.553 190.293 342.764C190.073 342.975 189.809 343.08 189.499 343.08ZM194.777 348.921V355.139H193.188V344.803H194.723V346.418H194.857C195.1 345.893 195.467 345.471 195.961 345.153C196.454 344.83 197.091 344.668 197.872 344.668C198.572 344.668 199.184 344.812 199.709 345.099C200.234 345.382 200.642 345.812 200.934 346.391C201.225 346.965 201.371 347.692 201.371 348.571V355.139H199.783V348.679C199.783 347.867 199.572 347.234 199.151 346.781C198.729 346.324 198.15 346.095 197.414 346.095C196.907 346.095 196.454 346.205 196.055 346.425C195.66 346.644 195.349 346.965 195.12 347.387C194.891 347.809 194.777 348.32 194.777 348.921ZM218.862 341.357H220.531V350.482C220.531 351.425 220.309 352.266 219.865 353.006C219.425 353.742 218.804 354.323 218.001 354.749C217.198 355.171 216.256 355.381 215.175 355.381C214.094 355.381 213.152 355.171 212.348 354.749C211.545 354.323 210.922 353.742 210.478 353.006C210.038 352.266 209.818 351.425 209.818 350.482V341.357H211.487V350.348C211.487 351.021 211.635 351.62 211.931 352.145C212.227 352.665 212.649 353.075 213.196 353.376C213.748 353.672 214.408 353.82 215.175 353.82C215.942 353.82 216.601 353.672 217.153 353.376C217.705 353.075 218.127 352.665 218.418 352.145C218.714 351.62 218.862 351.021 218.862 350.348V341.357ZM231.401 344.803C231.32 344.121 230.993 343.592 230.418 343.215C229.844 342.838 229.14 342.65 228.305 342.65C227.695 342.65 227.161 342.748 226.704 342.946C226.251 343.143 225.896 343.414 225.641 343.76C225.389 344.105 225.264 344.498 225.264 344.937C225.264 345.305 225.351 345.622 225.526 345.886C225.706 346.147 225.934 346.364 226.213 346.539C226.491 346.71 226.782 346.851 227.087 346.963C227.392 347.071 227.673 347.158 227.929 347.225L229.328 347.602C229.687 347.697 230.086 347.827 230.526 347.993C230.97 348.159 231.394 348.385 231.798 348.672C232.206 348.955 232.543 349.318 232.807 349.762C233.072 350.207 233.204 350.752 233.204 351.398C233.204 352.142 233.009 352.815 232.619 353.416C232.233 354.018 231.668 354.495 230.923 354.85C230.183 355.204 229.283 355.381 228.225 355.381C227.238 355.381 226.383 355.222 225.661 354.904C224.943 354.585 224.378 354.141 223.965 353.571C223.557 353.001 223.326 352.34 223.272 351.586H224.995C225.039 352.106 225.214 352.537 225.519 352.878C225.829 353.215 226.219 353.466 226.69 353.632C227.166 353.793 227.677 353.874 228.225 353.874C228.862 353.874 229.434 353.771 229.941 353.564C230.448 353.354 230.849 353.062 231.145 352.69C231.441 352.313 231.589 351.873 231.589 351.371C231.589 350.913 231.461 350.541 231.206 350.254C230.95 349.967 230.614 349.733 230.196 349.554C229.779 349.374 229.328 349.217 228.844 349.083L227.148 348.598C226.071 348.289 225.219 347.847 224.591 347.273C223.963 346.698 223.649 345.947 223.649 345.018C223.649 344.247 223.857 343.574 224.275 342.999C224.696 342.421 225.262 341.972 225.97 341.654C226.684 341.331 227.48 341.169 228.359 341.169C229.248 341.169 230.037 341.328 230.728 341.647C231.419 341.961 231.966 342.392 232.37 342.939C232.778 343.486 232.994 344.108 233.016 344.803H231.401ZM240.201 355.139H235.948V341.357H240.39C241.727 341.357 242.871 341.633 243.822 342.185C244.773 342.733 245.502 343.52 246.009 344.547C246.516 345.57 246.769 346.795 246.769 348.221C246.769 349.657 246.513 350.893 246.002 351.929C245.49 352.961 244.746 353.755 243.768 354.311C242.79 354.863 241.601 355.139 240.201 355.139ZM237.617 353.659H240.094C241.233 353.659 242.177 353.439 242.927 352.999C243.676 352.56 244.234 351.934 244.602 351.122C244.97 350.31 245.154 349.343 245.154 348.221C245.154 347.109 244.972 346.151 244.609 345.348C244.246 344.54 243.703 343.921 242.98 343.491C242.258 343.056 241.359 342.838 240.282 342.838H237.617V353.659ZM252.745 348.248C252.745 349.944 252.523 351.505 252.078 352.932C251.639 354.354 251.009 355.664 250.188 356.862H248.788C249.111 356.418 249.411 355.87 249.69 355.22C249.972 354.574 250.219 353.865 250.43 353.093C250.641 352.317 250.804 351.517 250.921 350.691C251.042 349.861 251.103 349.047 251.103 348.248C251.103 347.181 251 346.097 250.793 344.998C250.587 343.899 250.309 342.878 249.959 341.936C249.609 340.994 249.219 340.227 248.788 339.635H250.188C251.009 340.833 251.639 342.145 252.078 343.571C252.523 344.994 252.745 346.553 252.745 348.248Z" fill="#7A7A7A"/>
</g>
<defs>
<filter id="filter0_d_274_99" x="37.8417" y="66.7954" width="824.317" height="320.568" filterUnits="userSpaceOnUse" color-interpolation-filters="sRGB">
<feFlood flood-opacity="0" result="BackgroundImageFix"/>
<feColorMatrix in="SourceAlpha" type="matrix" values="0 0 0 0 0 0 0 0 0 0 0 0 0 0 0 0 0 0 127 0" result="hardAlpha"/>
<feOffset dy="1.57915"/>
<feGaussianBlur stdDeviation="1.57915"/>
<feComposite in2="hardAlpha" operator="out"/>
<feColorMatrix type="matrix" values="0 0 0 0 0 0 0 0 0 0 0 0 0 0 0 0 0 0 0.16 0"/>
<feBlend mode="normal" in2="BackgroundImageFix" result="effect1_dropShadow_274_99"/>
<feBlend mode="normal" in="SourceGraphic" in2="effect1_dropShadow_274_99" result="shape"/>
</filter>
<filter id="filter1_d_274_99" x="440.525" y="198.861" width="18.9498" height="18.9499" filterUnits="userSpaceOnUse" color-interpolation-filters="sRGB">
<feFlood flood-opacity="0" result="BackgroundImageFix"/>
<feColorMatrix in="SourceAlpha" type="matrix" values="0 0 0 0 0 0 0 0 0 0 0 0 0 0 0 0 0 0 127 0" result="hardAlpha"/>
<feOffset dy="1.57915"/>
<feGaussianBlur stdDeviation="1.57915"/>
<feComposite in2="hardAlpha" operator="out"/>
<feColorMatrix type="matrix" values="0 0 0 0 0 0 0 0 0 0 0 0 0 0 0 0 0 0 0.16 0"/>
<feBlend mode="normal" in2="BackgroundImageFix" result="effect1_dropShadow_274_99"/>
<feBlend mode="normal" in="SourceGraphic" in2="effect1_dropShadow_274_99" result="shape"/>
</filter>
<filter id="filter2_d_274_99" x="366.305" y="146.749" width="170.548" height="56.1625" filterUnits="userSpaceOnUse" color-interpolation-filters="sRGB">
<feFlood flood-opacity="0" result="BackgroundImageFix"/>
<feColorMatrix in="SourceAlpha" type="matrix" values="0 0 0 0 0 0 0 0 0 0 0 0 0 0 0 0 0 0 127 0" result="hardAlpha"/>
<feOffset dy="3.1583"/>
<feGaussianBlur stdDeviation="3.1583"/>
<feComposite in2="hardAlpha" operator="out"/>
<feColorMatrix type="matrix" values="0 0 0 0 0 0 0 0 0 0 0 0 0 0 0 0 0 0 0.16 0"/>
<feBlend mode="normal" in2="BackgroundImageFix" result="effect1_dropShadow_274_99"/>
<feBlend mode="normal" in="SourceGraphic" in2="effect1_dropShadow_274_99" result="shape"/>
</filter>
<clipPath id="clip0_274_99">
<rect width="767.467" height="23" fill="white" transform="translate(66.2664 288.873)"/>
</clipPath>
</defs>
</svg>
