<svg width="522" height="203" viewBox="0 0 522 203" fill="none" xmlns="http://www.w3.org/2000/svg">
<g filter="url(#filter0_d_7_3474)">
<rect x="2" y="1" width="518" height="199" rx="8" fill="white"/>
<path d="M19.1477 32V20.3636H23.6023C24.4432 20.3636 25.142 20.4962 25.6989 20.7614C26.2595 21.0227 26.678 21.3807 26.9545 21.8352C27.2348 22.2898 27.375 22.8049 27.375 23.3807C27.375 23.8542 27.2841 24.2595 27.1023 24.5966C26.9205 24.9299 26.6761 25.2008 26.3693 25.4091C26.0625 25.6174 25.7197 25.767 25.3409 25.858V25.9716C25.7538 25.9943 26.1496 26.1212 26.5284 26.3523C26.911 26.5795 27.2235 26.9015 27.4659 27.3182C27.7083 27.7348 27.8295 28.2386 27.8295 28.8295C27.8295 29.4318 27.6837 29.9735 27.392 30.4545C27.1004 30.9318 26.661 31.3087 26.0739 31.5852C25.4867 31.8617 24.7481 32 23.858 32H19.1477ZM21.2557 30.2386H23.5227C24.2879 30.2386 24.839 30.0928 25.1761 29.8011C25.517 29.5057 25.6875 29.1269 25.6875 28.6648C25.6875 28.3201 25.6023 28.0095 25.4318 27.733C25.2614 27.4527 25.0189 27.233 24.7045 27.0739C24.3902 26.911 24.0152 26.8295 23.5795 26.8295H21.2557V30.2386ZM21.2557 25.3125H23.3409C23.7045 25.3125 24.0322 25.2462 24.3239 25.1136C24.6155 24.9773 24.8447 24.786 25.0114 24.5398C25.1818 24.2898 25.267 23.9943 25.267 23.6534C25.267 23.2027 25.108 22.8314 24.7898 22.5398C24.4754 22.2481 24.0076 22.1023 23.3864 22.1023H21.2557V25.3125ZM32.0838 32.1761C31.5308 32.1761 31.0327 32.0777 30.5895 31.8807C30.1501 31.6799 29.8016 31.3845 29.544 30.9943C29.2902 30.6042 29.1634 30.1231 29.1634 29.5511C29.1634 29.0587 29.2543 28.6515 29.4361 28.3295C29.6179 28.0076 29.866 27.75 30.1804 27.5568C30.4948 27.3636 30.849 27.2178 31.2429 27.1193C31.6406 27.017 32.0516 26.9432 32.4759 26.8977C32.9872 26.8447 33.402 26.7973 33.7202 26.7557C34.0384 26.7102 34.2694 26.642 34.4134 26.5511C34.5611 26.4564 34.6349 26.3106 34.6349 26.1136V26.0795C34.6349 25.6515 34.508 25.3201 34.2543 25.0852C34.0005 24.8504 33.6349 24.733 33.1577 24.733C32.6539 24.733 32.2543 24.8428 31.9588 25.0625C31.6671 25.2822 31.4702 25.5417 31.3679 25.8409L29.4474 25.5682C29.599 25.0379 29.849 24.5947 30.1974 24.2386C30.5459 23.8788 30.9721 23.6098 31.4759 23.4318C31.9796 23.25 32.5365 23.1591 33.1463 23.1591C33.5668 23.1591 33.9853 23.2083 34.402 23.3068C34.8187 23.4053 35.1993 23.5682 35.544 23.7955C35.8887 24.0189 36.1652 24.3239 36.3736 24.7102C36.5857 25.0966 36.6918 25.5795 36.6918 26.1591V32H34.7145V30.8011H34.6463C34.5213 31.0436 34.3452 31.2708 34.1179 31.483C33.8944 31.6913 33.6122 31.8598 33.2713 31.9886C32.9342 32.1136 32.5384 32.1761 32.0838 32.1761ZM32.6179 30.6648C33.0308 30.6648 33.3887 30.5833 33.6918 30.4205C33.9948 30.2538 34.2277 30.0341 34.3906 29.7614C34.5573 29.4886 34.6406 29.1913 34.6406 28.8693V27.8409C34.5762 27.8939 34.4664 27.9432 34.3111 27.9886C34.1596 28.0341 33.9891 28.0739 33.7997 28.108C33.6103 28.142 33.4228 28.1723 33.2372 28.1989C33.0516 28.2254 32.8906 28.2481 32.7543 28.267C32.4474 28.3087 32.1728 28.3769 31.9304 28.4716C31.688 28.5663 31.4967 28.6989 31.3565 28.8693C31.2164 29.036 31.1463 29.2519 31.1463 29.517C31.1463 29.8958 31.2846 30.1818 31.5611 30.375C31.8376 30.5682 32.1899 30.6648 32.6179 30.6648ZM40.8168 20.3636V32H38.7599V20.3636H40.8168ZM45.4432 32.1761C44.8902 32.1761 44.392 32.0777 43.9489 31.8807C43.5095 31.6799 43.161 31.3845 42.9034 30.9943C42.6496 30.6042 42.5227 30.1231 42.5227 29.5511C42.5227 29.0587 42.6136 28.6515 42.7955 28.3295C42.9773 28.0076 43.2254 27.75 43.5398 27.5568C43.8542 27.3636 44.2083 27.2178 44.6023 27.1193C45 27.017 45.411 26.9432 45.8352 26.8977C46.3466 26.8447 46.7614 26.7973 47.0795 26.7557C47.3977 26.7102 47.6288 26.642 47.7727 26.5511C47.9205 26.4564 47.9943 26.3106 47.9943 26.1136V26.0795C47.9943 25.6515 47.8674 25.3201 47.6136 25.0852C47.3598 24.8504 46.9943 24.733 46.517 24.733C46.0133 24.733 45.6136 24.8428 45.3182 25.0625C45.0265 25.2822 44.8295 25.5417 44.7273 25.8409L42.8068 25.5682C42.9583 25.0379 43.2083 24.5947 43.5568 24.2386C43.9053 23.8788 44.3314 23.6098 44.8352 23.4318C45.339 23.25 45.8958 23.1591 46.5057 23.1591C46.9261 23.1591 47.3447 23.2083 47.7614 23.3068C48.178 23.4053 48.5587 23.5682 48.9034 23.7955C49.2481 24.0189 49.5246 24.3239 49.733 24.7102C49.9451 25.0966 50.0511 25.5795 50.0511 26.1591V32H48.0739V30.8011H48.0057C47.8807 31.0436 47.7045 31.2708 47.4773 31.483C47.2538 31.6913 46.9716 31.8598 46.6307 31.9886C46.2936 32.1136 45.8977 32.1761 45.4432 32.1761ZM45.9773 30.6648C46.3902 30.6648 46.7481 30.5833 47.0511 30.4205C47.3542 30.2538 47.5871 30.0341 47.75 29.7614C47.9167 29.4886 48 29.1913 48 28.8693V27.8409C47.9356 27.8939 47.8258 27.9432 47.6705 27.9886C47.5189 28.0341 47.3485 28.0739 47.1591 28.108C46.9697 28.142 46.7822 28.1723 46.5966 28.1989C46.411 28.2254 46.25 28.2481 46.1136 28.267C45.8068 28.3087 45.5322 28.3769 45.2898 28.4716C45.0473 28.5663 44.8561 28.6989 44.7159 28.8693C44.5758 29.036 44.5057 29.2519 44.5057 29.517C44.5057 29.8958 44.6439 30.1818 44.9205 30.375C45.197 30.5682 45.5492 30.6648 45.9773 30.6648ZM54.1761 26.8864V32H52.1193V23.2727H54.0852V24.7557H54.1875C54.3883 24.267 54.7083 23.8788 55.1477 23.5909C55.5909 23.303 56.1383 23.1591 56.7898 23.1591C57.392 23.1591 57.9167 23.2879 58.3636 23.5455C58.8144 23.803 59.1629 24.1761 59.4091 24.6648C59.6591 25.1534 59.7822 25.7462 59.7784 26.4432V32H57.7216V26.7614C57.7216 26.178 57.5701 25.7216 57.267 25.392C56.9678 25.0625 56.553 24.8977 56.0227 24.8977C55.6629 24.8977 55.3428 24.9773 55.0625 25.1364C54.786 25.2917 54.5682 25.517 54.4091 25.8125C54.2538 26.108 54.1761 26.4659 54.1761 26.8864ZM65.6761 32.1705C64.8049 32.1705 64.0568 31.9792 63.4318 31.5966C62.8106 31.214 62.3314 30.6856 61.9943 30.0114C61.661 29.3333 61.4943 28.553 61.4943 27.6705C61.4943 26.7841 61.6648 26.0019 62.0057 25.3239C62.3466 24.642 62.8277 24.1117 63.4489 23.733C64.0739 23.3504 64.8125 23.1591 65.6648 23.1591C66.3731 23.1591 67 23.2898 67.5455 23.5511C68.0947 23.8087 68.5322 24.1742 68.858 24.6477C69.1837 25.1174 69.3693 25.6667 69.4148 26.2955H67.4489C67.3693 25.875 67.1799 25.5246 66.8807 25.2443C66.5852 24.9602 66.1894 24.8182 65.6932 24.8182C65.2727 24.8182 64.9034 24.9318 64.5852 25.1591C64.267 25.3826 64.0189 25.7045 63.8409 26.125C63.6667 26.5455 63.5795 27.0492 63.5795 27.6364C63.5795 28.2311 63.6667 28.7424 63.8409 29.1705C64.0152 29.5947 64.2595 29.9223 64.5739 30.1534C64.892 30.3807 65.2652 30.4943 65.6932 30.4943C65.9962 30.4943 66.267 30.4375 66.5057 30.3239C66.7481 30.2064 66.9508 30.0379 67.1136 29.8182C67.2765 29.5985 67.3883 29.3314 67.4489 29.017H69.4148C69.3655 29.6345 69.1837 30.1818 68.8693 30.6591C68.5549 31.1326 68.1269 31.5038 67.5852 31.7727C67.0436 32.0379 66.4072 32.1705 65.6761 32.1705ZM74.9673 32.1705C74.0923 32.1705 73.3366 31.9886 72.7003 31.625C72.0677 31.2576 71.581 30.7386 71.2401 30.0682C70.8991 29.3939 70.7287 28.6004 70.7287 27.6875C70.7287 26.7898 70.8991 26.0019 71.2401 25.3239C71.5848 24.642 72.0658 24.1117 72.6832 23.733C73.3007 23.3504 74.026 23.1591 74.8594 23.1591C75.3973 23.1591 75.9048 23.2462 76.3821 23.4205C76.8632 23.5909 77.2874 23.8561 77.6548 24.2159C78.026 24.5758 78.3177 25.0341 78.5298 25.5909C78.742 26.1439 78.848 26.803 78.848 27.5682V28.1989H71.6946V26.8125H76.8764C76.8726 26.4186 76.7874 26.0682 76.6207 25.7614C76.4541 25.4508 76.2211 25.2064 75.9219 25.0284C75.6264 24.8504 75.2817 24.7614 74.8878 24.7614C74.4673 24.7614 74.098 24.8636 73.7798 25.0682C73.4616 25.2689 73.2135 25.5341 73.0355 25.8636C72.8613 26.1894 72.7723 26.5473 72.7685 26.9375V28.1477C72.7685 28.6553 72.8613 29.0909 73.0469 29.4545C73.2325 29.8144 73.492 30.0909 73.8253 30.2841C74.1586 30.4735 74.5488 30.5682 74.9957 30.5682C75.295 30.5682 75.5658 30.5265 75.8082 30.4432C76.0507 30.3561 76.2609 30.2292 76.4389 30.0625C76.617 29.8958 76.7514 29.6894 76.8423 29.4432L78.7628 29.6591C78.6416 30.1667 78.4105 30.6098 78.0696 30.9886C77.7325 31.3636 77.3007 31.6553 76.7741 31.8636C76.2476 32.0682 75.6454 32.1705 74.9673 32.1705ZM88.3636 32.1705C87.5114 32.1705 86.7727 31.983 86.1477 31.608C85.5227 31.233 85.0379 30.7083 84.6932 30.0341C84.3523 29.3598 84.1818 28.572 84.1818 27.6705C84.1818 26.7689 84.3523 25.9792 84.6932 25.3011C85.0379 24.6231 85.5227 24.0966 86.1477 23.7216C86.7727 23.3466 87.5114 23.1591 88.3636 23.1591C89.2159 23.1591 89.9545 23.3466 90.5795 23.7216C91.2045 24.0966 91.6875 24.6231 92.0284 25.3011C92.3731 25.9792 92.5455 26.7689 92.5455 27.6705C92.5455 28.572 92.3731 29.3598 92.0284 30.0341C91.6875 30.7083 91.2045 31.233 90.5795 31.608C89.9545 31.983 89.2159 32.1705 88.3636 32.1705ZM88.375 30.5227C88.8371 30.5227 89.2235 30.3958 89.5341 30.142C89.8447 29.8845 90.0758 29.5398 90.2273 29.108C90.3826 28.6761 90.4602 28.1951 90.4602 27.6648C90.4602 27.1307 90.3826 26.6477 90.2273 26.2159C90.0758 25.7803 89.8447 25.4337 89.5341 25.1761C89.2235 24.9186 88.8371 24.7898 88.375 24.7898C87.9015 24.7898 87.5076 24.9186 87.1932 25.1761C86.8826 25.4337 86.6496 25.7803 86.4943 26.2159C86.3428 26.6477 86.267 27.1307 86.267 27.6648C86.267 28.1951 86.3428 28.6761 86.4943 29.108C86.6496 29.5398 86.8826 29.8845 87.1932 30.142C87.5076 30.3958 87.9015 30.5227 88.375 30.5227ZM101.79 23.2727L98.6818 32H96.4091L93.3011 23.2727H95.4943L97.5 29.7557H97.5909L99.6023 23.2727H101.79ZM106.78 32.1705C105.905 32.1705 105.149 31.9886 104.513 31.625C103.88 31.2576 103.393 30.7386 103.053 30.0682C102.712 29.3939 102.541 28.6004 102.541 27.6875C102.541 26.7898 102.712 26.0019 103.053 25.3239C103.397 24.642 103.878 24.1117 104.496 23.733C105.113 23.3504 105.839 23.1591 106.672 23.1591C107.21 23.1591 107.717 23.2462 108.195 23.4205C108.676 23.5909 109.1 23.8561 109.467 24.2159C109.839 24.5758 110.13 25.0341 110.342 25.5909C110.554 26.1439 110.661 26.803 110.661 27.5682V28.1989H103.507V26.8125H108.689C108.685 26.4186 108.6 26.0682 108.433 25.7614C108.267 25.4508 108.034 25.2064 107.734 25.0284C107.439 24.8504 107.094 24.7614 106.7 24.7614C106.28 24.7614 105.911 24.8636 105.592 25.0682C105.274 25.2689 105.026 25.5341 104.848 25.8636C104.674 26.1894 104.585 26.5473 104.581 26.9375V28.1477C104.581 28.6553 104.674 29.0909 104.859 29.4545C105.045 29.8144 105.304 30.0909 105.638 30.2841C105.971 30.4735 106.361 30.5682 106.808 30.5682C107.107 30.5682 107.378 30.5265 107.621 30.4432C107.863 30.3561 108.073 30.2292 108.251 30.0625C108.429 29.8958 108.564 29.6894 108.655 29.4432L110.575 29.6591C110.454 30.1667 110.223 30.6098 109.882 30.9886C109.545 31.3636 109.113 31.6553 108.587 31.8636C108.06 32.0682 107.458 32.1705 106.78 32.1705ZM112.401 32V23.2727H114.395V24.7273H114.486C114.645 24.2235 114.918 23.8352 115.304 23.5625C115.694 23.286 116.139 23.1477 116.639 23.1477C116.753 23.1477 116.88 23.1534 117.02 23.1648C117.164 23.1723 117.283 23.1856 117.378 23.2045V25.0966C117.291 25.0663 117.152 25.0398 116.963 25.017C116.777 24.9905 116.598 24.9773 116.423 24.9773C116.048 24.9773 115.711 25.0587 115.412 25.2216C115.116 25.3807 114.884 25.6023 114.713 25.8864C114.543 26.1705 114.457 26.4981 114.457 26.8693V32H112.401ZM127.071 23.2727V24.8636H122.054V23.2727H127.071ZM123.293 21.1818H125.349V29.375C125.349 29.6515 125.391 29.8636 125.474 30.0114C125.562 30.1553 125.675 30.2538 125.815 30.3068C125.955 30.3598 126.111 30.3864 126.281 30.3864C126.41 30.3864 126.527 30.3769 126.634 30.358C126.743 30.339 126.827 30.322 126.884 30.3068L127.23 31.9148C127.12 31.9527 126.963 31.9943 126.759 32.0398C126.558 32.0852 126.312 32.1117 126.02 32.1193C125.505 32.1345 125.041 32.0568 124.628 31.8864C124.215 31.7121 123.887 31.4432 123.645 31.0795C123.406 30.7159 123.289 30.2614 123.293 29.7159V21.1818ZM128.791 32V23.2727H130.848V32H128.791ZM129.825 22.0341C129.5 22.0341 129.219 21.9261 128.984 21.7102C128.75 21.4905 128.632 21.2273 128.632 20.9205C128.632 20.6098 128.75 20.3466 128.984 20.1307C129.219 19.911 129.5 19.8011 129.825 19.8011C130.155 19.8011 130.435 19.911 130.666 20.1307C130.901 20.3466 131.018 20.6098 131.018 20.9205C131.018 21.2273 130.901 21.4905 130.666 21.7102C130.435 21.9261 130.155 22.0341 129.825 22.0341ZM132.963 32V23.2727H134.929V24.7557H135.031C135.213 24.2557 135.514 23.8655 135.935 23.5852C136.355 23.3011 136.857 23.1591 137.44 23.1591C138.031 23.1591 138.529 23.303 138.935 23.5909C139.344 23.875 139.632 24.2633 139.798 24.7557H139.889C140.082 24.2708 140.408 23.8845 140.866 23.5966C141.329 23.3049 141.876 23.1591 142.509 23.1591C143.312 23.1591 143.967 23.4129 144.474 23.9205C144.982 24.428 145.236 25.1686 145.236 26.142V32H143.173V26.4602C143.173 25.9186 143.029 25.5227 142.741 25.2727C142.454 25.0189 142.101 24.892 141.685 24.892C141.188 24.892 140.8 25.0473 140.52 25.358C140.243 25.6648 140.105 26.0644 140.105 26.5568V32H138.088V26.375C138.088 25.9242 137.952 25.5644 137.679 25.2955C137.41 25.0265 137.058 24.892 136.622 24.892C136.327 24.892 136.058 24.9678 135.815 25.1193C135.573 25.267 135.38 25.4773 135.236 25.75C135.092 26.0189 135.02 26.3333 135.02 26.6932V32H132.963ZM151.186 32.1705C150.311 32.1705 149.555 31.9886 148.919 31.625C148.286 31.2576 147.8 30.7386 147.459 30.0682C147.118 29.3939 146.947 28.6004 146.947 27.6875C146.947 26.7898 147.118 26.0019 147.459 25.3239C147.804 24.642 148.285 24.1117 148.902 23.733C149.519 23.3504 150.245 23.1591 151.078 23.1591C151.616 23.1591 152.124 23.2462 152.601 23.4205C153.082 23.5909 153.506 23.8561 153.874 24.2159C154.245 24.5758 154.536 25.0341 154.749 25.5909C154.961 26.1439 155.067 26.803 155.067 27.5682V28.1989H147.913V26.8125H153.095C153.091 26.4186 153.006 26.0682 152.839 25.7614C152.673 25.4508 152.44 25.2064 152.141 25.0284C151.845 24.8504 151.5 24.7614 151.107 24.7614C150.686 24.7614 150.317 24.8636 149.999 25.0682C149.68 25.2689 149.432 25.5341 149.254 25.8636C149.08 26.1894 148.991 26.5473 148.987 26.9375V28.1477C148.987 28.6553 149.08 29.0909 149.266 29.4545C149.451 29.8144 149.711 30.0909 150.044 30.2841C150.377 30.4735 150.768 30.5682 151.214 30.5682C151.514 30.5682 151.785 30.5265 152.027 30.4432C152.269 30.3561 152.48 30.2292 152.658 30.0625C152.836 29.8958 152.97 29.6894 153.061 29.4432L154.982 29.6591C154.86 30.1667 154.629 30.6098 154.288 30.9886C153.951 31.3636 153.519 31.6553 152.993 31.8636C152.466 32.0682 151.864 32.1705 151.186 32.1705Z" fill="#1F1F1F"/>
<path d="M18 124H504" stroke="#D1D1D1" stroke-width="0.5"/>
<path d="M18 100H504" stroke="#D1D1D1" stroke-width="0.5" stroke-dasharray="4 4"/>
<path d="M18 76H504" stroke="#D1D1D1" stroke-width="0.5" stroke-dasharray="4 4"/>
<path d="M18 52H504" stroke="#D1D1D1" stroke-width="0.5" stroke-dasharray="4 4"/>
<path d="M18 114.419L122.481 124L221.158 65L308.226 114.419L403.033 124L503 99.2906" stroke="#90A6F6"/>
<path d="M261 124L261 52" stroke="#D1D1D1" stroke-width="0.5" stroke-linejoin="round" stroke-dasharray="1 2"/>
<g filter="url(#filter1_d_7_3474)">
<rect x="258" y="85" width="6" height="6" rx="3" fill="#90A6F6"/>
<rect x="257.5" y="84.5" width="7" height="7" rx="3.5" stroke="white"/>
</g>
<g filter="url(#filter2_d_7_3474)">
<rect x="212" y="52" width="100" height="23" rx="2" fill="white"/>
<path d="M222.898 59.2727H223.955V65.5114C223.955 66.0682 223.852 66.5412 223.648 66.9304C223.443 67.3196 223.155 67.6151 222.783 67.8168C222.411 68.0185 221.972 68.1193 221.466 68.1193C220.989 68.1193 220.564 68.0327 220.192 67.8594C219.82 67.6832 219.527 67.4332 219.314 67.1094C219.101 66.7855 218.994 66.4006 218.994 65.9545H220.034C220.034 66.2017 220.095 66.4176 220.217 66.6023C220.342 66.7841 220.513 66.9261 220.729 67.0284C220.945 67.1307 221.19 67.1818 221.466 67.1818C221.77 67.1818 222.028 67.1179 222.241 66.9901C222.455 66.8622 222.616 66.6747 222.727 66.4276C222.841 66.1776 222.898 65.8722 222.898 65.5114V59.2727ZM230.061 65.3239V61.4545H231.067V68H230.061V66.892H229.993C229.839 67.2244 229.601 67.5071 229.277 67.7401C228.953 67.9702 228.544 68.0852 228.05 68.0852C227.641 68.0852 227.277 67.9957 226.959 67.8168C226.641 67.6349 226.391 67.3622 226.209 66.9986C226.027 66.6321 225.936 66.1705 225.936 65.6136V61.4545H226.942V65.5455C226.942 66.0227 227.075 66.4034 227.342 66.6875C227.612 66.9716 227.956 67.1136 228.374 67.1136C228.624 67.1136 228.878 67.0497 229.136 66.9219C229.398 66.794 229.616 66.598 229.793 66.3338C229.972 66.0696 230.061 65.733 230.061 65.3239ZM233.914 59.2727V68H232.909V59.2727H233.914ZM236.404 70.4545C236.234 70.4545 236.082 70.4403 235.948 70.4119C235.815 70.3864 235.722 70.3608 235.671 70.3352L235.927 69.4489C236.171 69.5114 236.387 69.5341 236.575 69.517C236.762 69.5 236.928 69.4162 237.073 69.2656C237.221 69.1179 237.356 68.8778 237.478 68.5455L237.665 68.0341L235.245 61.4545H236.336L238.143 66.6705H238.211L240.018 61.4545H241.109L238.33 68.9545C238.205 69.2926 238.05 69.5724 237.866 69.794C237.681 70.0185 237.467 70.1847 237.222 70.2926C236.981 70.4006 236.708 70.4545 236.404 70.4545Z" fill="#7A7A7A"/>
<path d="M249.216 59.2727V68H247.635V60.8111H247.584L245.543 62.1151V60.6662L247.712 59.2727H249.216ZM252.779 66.8068L252.724 67.2756C252.684 67.6335 252.613 67.9972 252.511 68.3665C252.412 68.7386 252.306 69.081 252.196 69.3935C252.085 69.706 251.995 69.9517 251.927 70.1307H250.887C250.927 69.9574 250.981 69.7216 251.049 69.4233C251.12 69.125 251.189 68.7898 251.254 68.4176C251.319 68.0455 251.363 67.6676 251.386 67.2841L251.416 66.8068H252.779ZM254.49 68V66.858L257.52 63.8878C257.81 63.5952 258.051 63.3352 258.245 63.108C258.438 62.8807 258.583 62.6605 258.679 62.4474C258.776 62.2344 258.824 62.0071 258.824 61.7656C258.824 61.4901 258.762 61.2543 258.637 61.0582C258.512 60.8594 258.34 60.706 258.121 60.598C257.902 60.4901 257.654 60.4361 257.375 60.4361C257.088 60.4361 256.837 60.4957 256.621 60.6151C256.405 60.7315 256.238 60.8977 256.118 61.1136C256.002 61.3295 255.944 61.5866 255.944 61.8849H254.439C254.439 61.331 254.566 60.8494 254.819 60.4403C255.071 60.0312 255.419 59.7145 255.863 59.4901C256.309 59.2656 256.82 59.1534 257.397 59.1534C257.982 59.1534 258.496 59.2628 258.939 59.4815C259.382 59.7003 259.726 60 259.971 60.3807C260.218 60.7614 260.341 61.196 260.341 61.6847C260.341 62.0114 260.279 62.3324 260.154 62.6477C260.029 62.9631 259.809 63.3125 259.493 63.696C259.181 64.0795 258.742 64.544 258.176 65.0895L256.672 66.6193V66.679H260.473V68H254.49ZM264.978 68.1193C264.409 68.1193 263.901 68.0128 263.452 67.7997C263.003 67.5838 262.647 67.2884 262.382 66.9134C262.121 66.5384 261.982 66.1094 261.965 65.6264H263.499C263.527 65.9844 263.682 66.277 263.963 66.5043C264.245 66.7287 264.583 66.8409 264.978 66.8409C265.287 66.8409 265.563 66.7699 265.804 66.6278C266.046 66.4858 266.236 66.2884 266.375 66.0355C266.515 65.7827 266.583 65.4943 266.58 65.1705C266.583 64.8409 266.513 64.5483 266.371 64.2926C266.229 64.0369 266.034 63.8366 265.787 63.6918C265.54 63.544 265.256 63.4702 264.935 63.4702C264.674 63.4673 264.417 63.5156 264.164 63.6151C263.911 63.7145 263.711 63.8452 263.563 64.0071L262.135 63.7727L262.591 59.2727H267.654V60.5938H263.9L263.648 62.9077H263.699C263.861 62.7173 264.09 62.5597 264.385 62.4347C264.681 62.3068 265.005 62.2429 265.357 62.2429C265.885 62.2429 266.357 62.3679 266.772 62.6179C267.186 62.8651 267.513 63.206 267.752 63.6406C267.99 64.0753 268.11 64.5724 268.11 65.1321C268.11 65.7088 267.976 66.223 267.709 66.6747C267.445 67.1236 267.077 67.4773 266.605 67.7358C266.137 67.9915 265.594 68.1193 264.978 68.1193ZM272.763 68.1662C272.061 68.1662 271.459 67.9886 270.956 67.6335C270.456 67.2756 270.071 66.7599 269.801 66.0866C269.534 65.4105 269.401 64.5966 269.401 63.6449C269.404 62.6932 269.539 61.8835 269.806 61.2159C270.076 60.5455 270.461 60.0341 270.961 59.6818C271.463 59.3295 272.064 59.1534 272.763 59.1534C273.462 59.1534 274.063 59.3295 274.566 59.6818C275.069 60.0341 275.453 60.5455 275.721 61.2159C275.99 61.8864 276.125 62.696 276.125 63.6449C276.125 64.5994 275.99 65.4148 275.721 66.0909C275.453 66.7642 275.069 67.2784 274.566 67.6335C274.066 67.9886 273.465 68.1662 272.763 68.1662ZM272.763 66.8324C273.309 66.8324 273.739 66.5639 274.054 66.027C274.373 65.4872 274.532 64.6932 274.532 63.6449C274.532 62.9517 274.459 62.3693 274.314 61.8977C274.169 61.4261 273.965 61.071 273.701 60.8324C273.436 60.5909 273.124 60.4702 272.763 60.4702C272.221 60.4702 271.792 60.7401 271.476 61.2798C271.161 61.8168 271.002 62.6051 270.999 63.6449C270.996 64.3409 271.066 64.9261 271.208 65.4006C271.353 65.875 271.557 66.233 271.821 66.4744C272.086 66.7131 272.4 66.8324 272.763 66.8324ZM286.104 59.2727H287.685V64.9744C287.685 65.5994 287.538 66.1491 287.242 66.6236C286.95 67.098 286.538 67.4687 286.006 67.7358C285.475 68 284.854 68.1321 284.144 68.1321C283.431 68.1321 282.809 68 282.278 67.7358C281.746 67.4687 281.335 67.098 281.042 66.6236C280.749 66.1491 280.603 65.5994 280.603 64.9744V59.2727H282.184V64.8423C282.184 65.206 282.263 65.5298 282.423 65.8139C282.585 66.098 282.812 66.321 283.104 66.483C283.397 66.642 283.744 66.7216 284.144 66.7216C284.545 66.7216 284.891 66.642 285.184 66.483C285.479 66.321 285.707 66.098 285.866 65.8139C286.025 65.5298 286.104 65.206 286.104 64.8423V59.2727ZM294.147 61.6719C294.107 61.2997 293.939 61.0099 293.644 60.8026C293.351 60.5952 292.971 60.4915 292.502 60.4915C292.172 60.4915 291.89 60.5412 291.654 60.6406C291.418 60.7401 291.238 60.875 291.113 61.0455C290.988 61.2159 290.924 61.4105 290.921 61.6293C290.921 61.8111 290.962 61.9687 291.044 62.1023C291.13 62.2358 291.245 62.3494 291.39 62.4432C291.534 62.5341 291.695 62.6108 291.871 62.6733C292.047 62.7358 292.225 62.7884 292.404 62.831L293.222 63.0355C293.551 63.1122 293.868 63.2159 294.172 63.3466C294.479 63.4773 294.753 63.642 294.995 63.8409C295.239 64.0398 295.432 64.2798 295.574 64.5611C295.716 64.8423 295.787 65.1719 295.787 65.5497C295.787 66.0611 295.657 66.5114 295.395 66.9006C295.134 67.2869 294.756 67.5895 294.262 67.8082C293.77 68.0241 293.175 68.1321 292.476 68.1321C291.797 68.1321 291.208 68.027 290.708 67.8168C290.211 67.6065 289.821 67.2997 289.54 66.8963C289.262 66.4929 289.111 66.0014 289.088 65.4219H290.644C290.667 65.7259 290.76 65.9787 290.925 66.1804C291.09 66.3821 291.304 66.5327 291.569 66.6321C291.836 66.7315 292.134 66.7812 292.463 66.7812C292.807 66.7812 293.108 66.7301 293.367 66.6278C293.628 66.5227 293.833 66.3778 293.98 66.1932C294.128 66.0057 294.203 65.7869 294.206 65.5369C294.203 65.3097 294.137 65.1222 294.006 64.9744C293.875 64.8239 293.692 64.6989 293.456 64.5994C293.223 64.4972 292.951 64.4062 292.638 64.3267L291.645 64.071C290.926 63.8864 290.358 63.6065 289.941 63.2315C289.526 62.8537 289.319 62.3523 289.319 61.7273C289.319 61.2131 289.458 60.7628 289.736 60.3764C290.017 59.9901 290.4 59.6903 290.882 59.4773C291.365 59.2614 291.912 59.1534 292.523 59.1534C293.142 59.1534 293.685 59.2614 294.151 59.4773C294.62 59.6903 294.988 59.9872 295.255 60.3679C295.522 60.7457 295.659 61.1804 295.668 61.6719H294.147ZM300.154 68H297.197V59.2727H300.214C301.08 59.2727 301.825 59.4474 302.447 59.7969C303.072 60.1435 303.552 60.642 303.887 61.2926C304.222 61.9432 304.39 62.7216 304.39 63.6278C304.39 64.5369 304.221 65.3182 303.883 65.9716C303.548 66.625 303.063 67.1264 302.43 67.4759C301.799 67.8253 301.04 68 300.154 68ZM298.778 66.6321H300.077C300.685 66.6321 301.192 66.5213 301.599 66.2997C302.005 66.0753 302.31 65.7415 302.515 65.2983C302.719 64.8523 302.822 64.2955 302.822 63.6278C302.822 62.9602 302.719 62.4062 302.515 61.9659C302.31 61.5227 302.008 61.1918 301.607 60.973C301.21 60.7514 300.715 60.6406 300.124 60.6406H298.778V66.6321Z" fill="#1F1F1F"/>
<rect width="100" height="0.001" transform="translate(212 75)" fill="white"/>
<path d="M261.5 80L258 75L265 75L261.5 80Z" fill="white"/>
</g>
<g clip-path="url(#clip0_7_3474)">
<path d="M19.0568 143.273H20.3182L23.2841 150.517H23.3864L26.3523 143.273H27.6136V152H26.625V145.369H26.5398L23.8125 152H22.858L20.1307 145.369H20.0455V152H19.0568V143.273ZM31.5224 152.153C31.1076 152.153 30.7312 152.075 30.3931 151.919C30.055 151.76 29.7866 151.531 29.5877 151.233C29.3888 150.932 29.2894 150.568 29.2894 150.142C29.2894 149.767 29.3633 149.463 29.511 149.23C29.6587 148.994 29.8562 148.81 30.1033 148.676C30.3505 148.543 30.6232 148.443 30.9215 148.378C31.2227 148.31 31.5252 148.256 31.8292 148.216C32.2269 148.165 32.5494 148.126 32.7965 148.101C33.0465 148.072 33.2283 148.026 33.342 147.96C33.4585 147.895 33.5167 147.781 33.5167 147.619V147.585C33.5167 147.165 33.4016 146.838 33.1715 146.605C32.9442 146.372 32.5991 146.256 32.136 146.256C31.6559 146.256 31.2795 146.361 31.0067 146.571C30.734 146.781 30.5423 147.006 30.4315 147.244L29.4769 146.903C29.6474 146.506 29.8746 146.196 30.1587 145.974C30.4457 145.75 30.7582 145.594 31.0962 145.506C31.4371 145.415 31.7724 145.369 32.1019 145.369C32.3121 145.369 32.5536 145.395 32.8263 145.446C33.1019 145.494 33.3675 145.595 33.6232 145.749C33.8817 145.902 34.0962 146.134 34.2667 146.443C34.4371 146.753 34.5224 147.168 34.5224 147.688V152H33.5167V151.114H33.4656C33.3974 151.256 33.2837 151.408 33.1246 151.57C32.9656 151.732 32.7539 151.869 32.4897 151.983C32.2255 152.097 31.9031 152.153 31.5224 152.153ZM31.6758 151.25C32.0735 151.25 32.4087 151.172 32.6815 151.016C32.957 150.859 33.1644 150.658 33.3036 150.411C33.4457 150.163 33.5167 149.903 33.5167 149.631V148.71C33.4741 148.761 33.3803 148.808 33.2354 148.851C33.0934 148.891 32.9286 148.926 32.7411 148.957C32.5565 148.986 32.3761 149.011 32.1999 149.034C32.0266 149.054 31.886 149.071 31.7781 149.085C31.5167 149.119 31.2724 149.175 31.0451 149.251C30.8207 149.325 30.6388 149.437 30.4996 149.588C30.3633 149.736 30.2951 149.937 30.2951 150.193C30.2951 150.543 30.4244 150.807 30.6829 150.986C30.9442 151.162 31.2752 151.25 31.6758 151.25ZM36.7713 154.455C36.6009 154.455 36.4489 154.44 36.3153 154.412C36.1818 154.386 36.0895 154.361 36.0384 154.335L36.294 153.449C36.5384 153.511 36.7543 153.534 36.9418 153.517C37.1293 153.5 37.2955 153.416 37.4403 153.266C37.5881 153.118 37.723 152.878 37.8452 152.545L38.0327 152.034L35.6122 145.455H36.7031L38.5099 150.67H38.5781L40.3849 145.455H41.4759L38.6974 152.955C38.5724 153.293 38.4176 153.572 38.233 153.794C38.0483 154.018 37.8338 154.185 37.5895 154.293C37.348 154.401 37.0753 154.455 36.7713 154.455Z" fill="#7A7A7A"/>
<path d="M117.998 143.273H119.055V149.511C119.055 150.068 118.952 150.541 118.748 150.93C118.543 151.32 118.255 151.615 117.883 151.817C117.51 152.018 117.072 152.119 116.566 152.119C116.089 152.119 115.664 152.033 115.292 151.859C114.92 151.683 114.627 151.433 114.414 151.109C114.201 150.786 114.094 150.401 114.094 149.955H115.134C115.134 150.202 115.195 150.418 115.317 150.602C115.442 150.784 115.613 150.926 115.829 151.028C116.045 151.131 116.29 151.182 116.566 151.182C116.87 151.182 117.128 151.118 117.341 150.99C117.555 150.862 117.716 150.675 117.827 150.428C117.941 150.178 117.998 149.872 117.998 149.511V143.273ZM125.161 149.324V145.455H126.167V152H125.161V150.892H125.093C124.939 151.224 124.701 151.507 124.377 151.74C124.053 151.97 123.644 152.085 123.15 152.085C122.741 152.085 122.377 151.996 122.059 151.817C121.741 151.635 121.491 151.362 121.309 150.999C121.127 150.632 121.036 150.17 121.036 149.614V145.455H122.042V149.545C122.042 150.023 122.175 150.403 122.442 150.688C122.712 150.972 123.056 151.114 123.474 151.114C123.724 151.114 123.978 151.05 124.236 150.922C124.498 150.794 124.716 150.598 124.893 150.334C125.072 150.07 125.161 149.733 125.161 149.324ZM129.014 148.062V152H128.009V145.455H128.98V146.477H129.066C129.219 146.145 129.452 145.878 129.764 145.676C130.077 145.472 130.48 145.369 130.975 145.369C131.418 145.369 131.806 145.46 132.138 145.642C132.47 145.821 132.729 146.094 132.914 146.46C133.098 146.824 133.191 147.284 133.191 147.841V152H132.185V147.909C132.185 147.395 132.051 146.994 131.784 146.707C131.517 146.418 131.151 146.273 130.685 146.273C130.364 146.273 130.077 146.342 129.824 146.482C129.574 146.621 129.377 146.824 129.232 147.091C129.087 147.358 129.014 147.682 129.014 148.062Z" fill="#7A7A7A"/>
<path d="M210.598 143.273H211.654V149.511C211.654 150.068 211.552 150.541 211.348 150.93C211.143 151.32 210.855 151.615 210.483 151.817C210.11 152.018 209.672 152.119 209.166 152.119C208.689 152.119 208.264 152.033 207.892 151.859C207.52 151.683 207.227 151.433 207.014 151.109C206.801 150.786 206.694 150.401 206.694 149.955H207.734C207.734 150.202 207.795 150.418 207.917 150.602C208.042 150.784 208.213 150.926 208.429 151.028C208.645 151.131 208.89 151.182 209.166 151.182C209.47 151.182 209.728 151.118 209.941 150.99C210.154 150.862 210.316 150.675 210.427 150.428C210.541 150.178 210.598 149.872 210.598 149.511V143.273ZM217.761 149.324V145.455H218.767V152H217.761V150.892H217.693C217.539 151.224 217.301 151.507 216.977 151.74C216.653 151.97 216.244 152.085 215.75 152.085C215.341 152.085 214.977 151.996 214.659 151.817C214.341 151.635 214.091 151.362 213.909 150.999C213.727 150.632 213.636 150.17 213.636 149.614V145.455H214.642V149.545C214.642 150.023 214.775 150.403 215.042 150.688C215.312 150.972 215.656 151.114 216.074 151.114C216.324 151.114 216.578 151.05 216.836 150.922C217.098 150.794 217.316 150.598 217.493 150.334C217.672 150.07 217.761 149.733 217.761 149.324ZM221.614 143.273V152H220.609V143.273H221.614Z" fill="#7A7A7A"/>
<path d="M296.215 152H295.107L298.311 143.273H299.402L302.607 152H301.499L298.891 144.653H298.823L296.215 152ZM296.624 148.591H301.09V149.528H296.624V148.591ZM307.955 149.324V145.455H308.961V152H307.955V150.892H307.887C307.733 151.224 307.495 151.507 307.171 151.74C306.847 151.97 306.438 152.085 305.944 152.085C305.534 152.085 305.171 151.996 304.853 151.817C304.534 151.635 304.284 151.362 304.103 150.999C303.921 150.632 303.83 150.17 303.83 149.614V145.455H304.836V149.545C304.836 150.023 304.969 150.403 305.236 150.688C305.506 150.972 305.85 151.114 306.267 151.114C306.517 151.114 306.772 151.05 307.03 150.922C307.292 150.794 307.51 150.598 307.686 150.334C307.865 150.07 307.955 149.733 307.955 149.324ZM313.445 154.591C312.959 154.591 312.541 154.528 312.192 154.403C311.842 154.281 311.551 154.119 311.318 153.918C311.088 153.719 310.905 153.506 310.768 153.278L311.57 152.716C311.66 152.835 311.776 152.972 311.915 153.125C312.054 153.281 312.244 153.416 312.486 153.53C312.73 153.646 313.05 153.705 313.445 153.705C313.973 153.705 314.409 153.577 314.753 153.321C315.097 153.065 315.268 152.665 315.268 152.119V150.79H315.183C315.109 150.909 315.004 151.057 314.868 151.233C314.734 151.406 314.541 151.561 314.288 151.697C314.038 151.831 313.7 151.898 313.274 151.898C312.746 151.898 312.271 151.773 311.851 151.523C311.433 151.273 311.102 150.909 310.858 150.432C310.616 149.955 310.496 149.375 310.496 148.693C310.496 148.023 310.614 147.439 310.849 146.942C311.085 146.442 311.413 146.055 311.834 145.783C312.254 145.507 312.74 145.369 313.291 145.369C313.717 145.369 314.055 145.44 314.305 145.582C314.558 145.722 314.751 145.881 314.885 146.06C315.021 146.236 315.126 146.381 315.2 146.494H315.303V145.455H316.274V152.188C316.274 152.75 316.146 153.207 315.891 153.56C315.638 153.915 315.297 154.175 314.868 154.339C314.442 154.507 313.967 154.591 313.445 154.591ZM313.41 150.994C313.814 150.994 314.155 150.902 314.433 150.717C314.712 150.533 314.923 150.267 315.068 149.92C315.213 149.574 315.285 149.159 315.285 148.676C315.285 148.205 315.214 147.788 315.072 147.428C314.93 147.067 314.72 146.784 314.442 146.58C314.163 146.375 313.82 146.273 313.41 146.273C312.984 146.273 312.629 146.381 312.345 146.597C312.064 146.812 311.852 147.102 311.71 147.466C311.571 147.83 311.501 148.233 311.501 148.676C311.501 149.131 311.572 149.533 311.714 149.882C311.859 150.229 312.072 150.501 312.354 150.7C312.638 150.896 312.99 150.994 313.41 150.994Z" fill="#7A7A7A"/>
<path d="M395.23 145.455C395.178 145.023 394.971 144.688 394.607 144.449C394.244 144.21 393.798 144.091 393.269 144.091C392.883 144.091 392.545 144.153 392.255 144.278C391.968 144.403 391.744 144.575 391.582 144.794C391.423 145.013 391.343 145.261 391.343 145.54C391.343 145.773 391.399 145.973 391.509 146.141C391.623 146.305 391.768 146.443 391.944 146.554C392.12 146.662 392.305 146.751 392.498 146.822C392.691 146.891 392.869 146.946 393.031 146.989L393.917 147.227C394.144 147.287 394.397 147.369 394.676 147.474C394.957 147.58 395.225 147.723 395.481 147.905C395.74 148.084 395.953 148.314 396.12 148.595C396.288 148.876 396.372 149.222 396.372 149.631C396.372 150.102 396.248 150.528 396.001 150.909C395.757 151.29 395.399 151.592 394.927 151.817C394.458 152.041 393.889 152.153 393.218 152.153C392.593 152.153 392.052 152.053 391.595 151.851C391.14 151.649 390.782 151.368 390.521 151.007C390.262 150.646 390.116 150.227 390.082 149.75H391.173C391.201 150.08 391.312 150.352 391.505 150.568C391.701 150.781 391.948 150.94 392.247 151.045C392.548 151.148 392.872 151.199 393.218 151.199C393.622 151.199 393.984 151.134 394.305 151.003C394.626 150.869 394.88 150.685 395.068 150.449C395.255 150.21 395.349 149.932 395.349 149.614C395.349 149.324 395.268 149.088 395.106 148.906C394.944 148.724 394.731 148.577 394.467 148.463C394.203 148.349 393.917 148.25 393.61 148.165L392.536 147.858C391.855 147.662 391.315 147.382 390.917 147.018C390.519 146.655 390.32 146.179 390.32 145.591C390.32 145.102 390.453 144.676 390.717 144.312C390.984 143.946 391.342 143.662 391.791 143.46C392.242 143.256 392.747 143.153 393.303 143.153C393.866 143.153 394.366 143.254 394.803 143.456C395.241 143.655 395.588 143.928 395.843 144.274C396.102 144.621 396.238 145.014 396.252 145.455H395.23ZM400.717 152.136C400.086 152.136 399.542 151.997 399.085 151.719C398.63 151.438 398.28 151.045 398.032 150.543C397.788 150.037 397.666 149.449 397.666 148.778C397.666 148.108 397.788 147.517 398.032 147.006C398.28 146.491 398.623 146.091 399.064 145.804C399.507 145.514 400.024 145.369 400.615 145.369C400.956 145.369 401.292 145.426 401.625 145.54C401.957 145.653 402.26 145.838 402.532 146.094C402.805 146.347 403.023 146.682 403.184 147.099C403.346 147.517 403.427 148.031 403.427 148.642V149.068H398.382V148.199H402.405C402.405 147.83 402.331 147.5 402.183 147.21C402.038 146.92 401.831 146.692 401.561 146.524C401.294 146.357 400.979 146.273 400.615 146.273C400.214 146.273 399.868 146.372 399.575 146.571C399.285 146.767 399.062 147.023 398.906 147.338C398.75 147.653 398.672 147.991 398.672 148.352V148.932C398.672 149.426 398.757 149.845 398.927 150.189C399.101 150.53 399.341 150.79 399.648 150.969C399.954 151.145 400.311 151.233 400.717 151.233C400.981 151.233 401.22 151.196 401.433 151.122C401.649 151.045 401.835 150.932 401.991 150.781C402.148 150.628 402.268 150.437 402.354 150.21L403.325 150.483C403.223 150.812 403.051 151.102 402.809 151.352C402.568 151.599 402.27 151.793 401.915 151.932C401.559 152.068 401.16 152.136 400.717 152.136ZM404.957 154.455V145.455H405.929V146.494H406.048C406.122 146.381 406.224 146.236 406.355 146.06C406.488 145.881 406.679 145.722 406.926 145.582C407.176 145.44 407.514 145.369 407.94 145.369C408.491 145.369 408.977 145.507 409.398 145.783C409.818 146.058 410.146 146.449 410.382 146.955C410.618 147.46 410.736 148.057 410.736 148.744C410.736 149.438 410.618 150.038 410.382 150.547C410.146 151.053 409.819 151.445 409.402 151.723C408.984 151.999 408.503 152.136 407.957 152.136C407.537 152.136 407.2 152.067 406.947 151.928C406.694 151.786 406.5 151.625 406.363 151.446C406.227 151.264 406.122 151.114 406.048 150.994H405.963V154.455H404.957ZM405.946 148.727C405.946 149.222 406.018 149.658 406.163 150.036C406.308 150.411 406.52 150.705 406.798 150.918C407.077 151.128 407.417 151.233 407.821 151.233C408.241 151.233 408.592 151.122 408.873 150.901C409.157 150.676 409.371 150.375 409.513 149.997C409.657 149.616 409.73 149.193 409.73 148.727C409.73 148.267 409.659 147.852 409.517 147.483C409.378 147.111 409.166 146.817 408.882 146.601C408.601 146.382 408.247 146.273 407.821 146.273C407.412 146.273 407.068 146.376 406.79 146.584C406.511 146.788 406.301 147.075 406.159 147.445C406.017 147.811 405.946 148.239 405.946 148.727Z" fill="#7A7A7A"/>
<path d="M491.42 147.636C491.42 148.557 491.254 149.352 490.922 150.023C490.589 150.693 490.134 151.21 489.554 151.574C488.974 151.938 488.313 152.119 487.568 152.119C486.824 152.119 486.162 151.938 485.582 151.574C485.003 151.21 484.547 150.693 484.214 150.023C483.882 149.352 483.716 148.557 483.716 147.636C483.716 146.716 483.882 145.92 484.214 145.25C484.547 144.58 485.003 144.062 485.582 143.699C486.162 143.335 486.824 143.153 487.568 143.153C488.313 143.153 488.974 143.335 489.554 143.699C490.134 144.062 490.589 144.58 490.922 145.25C491.254 145.92 491.42 146.716 491.42 147.636ZM490.398 147.636C490.398 146.881 490.271 146.243 490.018 145.723C489.768 145.203 489.429 144.81 489 144.543C488.574 144.276 488.097 144.142 487.568 144.142C487.04 144.142 486.561 144.276 486.132 144.543C485.706 144.81 485.366 145.203 485.114 145.723C484.864 146.243 484.739 146.881 484.739 147.636C484.739 148.392 484.864 149.03 485.114 149.55C485.366 150.07 485.706 150.463 486.132 150.73C486.561 150.997 487.04 151.131 487.568 151.131C488.097 151.131 488.574 150.997 489 150.73C489.429 150.463 489.768 150.07 490.018 149.55C490.271 149.03 490.398 148.392 490.398 147.636ZM495.72 152.136C495.107 152.136 494.578 151.991 494.135 151.702C493.692 151.412 493.351 151.013 493.112 150.504C492.874 149.996 492.754 149.415 492.754 148.761C492.754 148.097 492.876 147.51 493.121 147.001C493.368 146.49 493.712 146.091 494.152 145.804C494.595 145.514 495.112 145.369 495.703 145.369C496.163 145.369 496.578 145.455 496.947 145.625C497.317 145.795 497.619 146.034 497.855 146.341C498.091 146.648 498.237 147.006 498.294 147.415H497.288C497.212 147.116 497.041 146.852 496.777 146.622C496.516 146.389 496.163 146.273 495.72 146.273C495.328 146.273 494.984 146.375 494.689 146.58C494.396 146.781 494.168 147.067 494.003 147.436C493.841 147.803 493.76 148.233 493.76 148.727C493.76 149.233 493.839 149.673 493.999 150.048C494.161 150.423 494.388 150.714 494.68 150.922C494.976 151.129 495.322 151.233 495.72 151.233C495.982 151.233 496.219 151.188 496.432 151.097C496.645 151.006 496.825 150.875 496.973 150.705C497.121 150.534 497.226 150.33 497.288 150.091H498.294C498.237 150.477 498.097 150.825 497.872 151.135C497.651 151.442 497.357 151.686 496.99 151.868C496.626 152.047 496.203 152.136 495.72 152.136ZM502.611 145.455V146.307H499.219V145.455H502.611ZM500.207 143.886H501.213V150.125C501.213 150.409 501.254 150.622 501.337 150.764C501.422 150.903 501.53 150.997 501.661 151.045C501.794 151.091 501.935 151.114 502.082 151.114C502.193 151.114 502.284 151.108 502.355 151.097C502.426 151.082 502.483 151.071 502.526 151.062L502.73 151.966C502.662 151.991 502.567 152.017 502.445 152.043C502.322 152.071 502.168 152.085 501.98 152.085C501.696 152.085 501.418 152.024 501.145 151.902C500.875 151.78 500.651 151.594 500.472 151.344C500.295 151.094 500.207 150.778 500.207 150.398V143.886Z" fill="#7A7A7A"/>
</g>
<rect x="18" y="174.5" width="16" height="8" rx="4" fill="#90A6F6"/>
<path d="M43.0568 183V174.273H46.108C46.7159 174.273 47.2173 174.378 47.6122 174.588C48.0071 174.795 48.3011 175.075 48.4943 175.428C48.6875 175.777 48.7841 176.165 48.7841 176.591C48.7841 176.966 48.7173 177.276 48.5838 177.52C48.4531 177.764 48.2798 177.957 48.0639 178.099C47.8509 178.241 47.6193 178.347 47.3693 178.415V178.5C47.6364 178.517 47.9048 178.611 48.1747 178.781C48.4446 178.952 48.6705 179.196 48.8523 179.514C49.0341 179.832 49.125 180.222 49.125 180.682C49.125 181.119 49.0256 181.513 48.8267 181.862C48.6278 182.212 48.3139 182.489 47.8849 182.693C47.456 182.898 46.8977 183 46.2102 183H43.0568ZM44.1136 182.062H46.2102C46.9006 182.062 47.3906 181.929 47.6804 181.662C47.973 181.392 48.1193 181.065 48.1193 180.682C48.1193 180.386 48.044 180.114 47.8935 179.864C47.7429 179.611 47.5284 179.409 47.25 179.259C46.9716 179.105 46.642 179.028 46.2614 179.028H44.1136V182.062ZM44.1136 178.108H46.0739C46.392 178.108 46.679 178.045 46.9347 177.92C47.1932 177.795 47.3977 177.619 47.5483 177.392C47.7017 177.165 47.7784 176.898 47.7784 176.591C47.7784 176.207 47.6449 175.882 47.3778 175.615C47.1108 175.345 46.6875 175.21 46.108 175.21H44.1136V178.108ZM52.6513 183.153C52.2365 183.153 51.8601 183.075 51.522 182.919C51.1839 182.76 50.9155 182.531 50.7166 182.233C50.5178 181.932 50.4183 181.568 50.4183 181.142C50.4183 180.767 50.4922 180.463 50.6399 180.23C50.7876 179.994 50.9851 179.81 51.2322 179.676C51.4794 179.543 51.7521 179.443 52.0504 179.378C52.3516 179.31 52.6541 179.256 52.9581 179.216C53.3558 179.165 53.6783 179.126 53.9254 179.101C54.1754 179.072 54.3572 179.026 54.4709 178.96C54.5874 178.895 54.6456 178.781 54.6456 178.619V178.585C54.6456 178.165 54.5305 177.838 54.3004 177.605C54.0732 177.372 53.728 177.256 53.2649 177.256C52.7848 177.256 52.4084 177.361 52.1357 177.571C51.8629 177.781 51.6712 178.006 51.5604 178.244L50.6058 177.903C50.7763 177.506 51.0036 177.196 51.2876 176.974C51.5746 176.75 51.8871 176.594 52.2251 176.506C52.5661 176.415 52.9013 176.369 53.2308 176.369C53.4411 176.369 53.6825 176.395 53.9553 176.446C54.2308 176.494 54.4964 176.595 54.7521 176.749C55.0107 176.902 55.2251 177.134 55.3956 177.443C55.5661 177.753 55.6513 178.168 55.6513 178.688V183H54.6456V182.114H54.5945C54.5263 182.256 54.4126 182.408 54.2536 182.57C54.0945 182.732 53.8828 182.869 53.6186 182.983C53.3544 183.097 53.032 183.153 52.6513 183.153ZM52.8047 182.25C53.2024 182.25 53.5376 182.172 53.8104 182.016C54.0859 181.859 54.2933 181.658 54.4325 181.411C54.5746 181.163 54.6456 180.903 54.6456 180.631V179.71C54.603 179.761 54.5092 179.808 54.3643 179.851C54.2223 179.891 54.0575 179.926 53.87 179.957C53.6854 179.986 53.505 180.011 53.3288 180.034C53.1555 180.054 53.0149 180.071 52.907 180.085C52.6456 180.119 52.4013 180.175 52.174 180.251C51.9496 180.325 51.7678 180.437 51.6286 180.588C51.4922 180.736 51.424 180.937 51.424 181.193C51.424 181.543 51.5533 181.807 51.8118 181.986C52.0732 182.162 52.4041 182.25 52.8047 182.25ZM58.4925 174.273V183H57.4869V174.273H58.4925ZM62.2607 183.153C61.8459 183.153 61.4695 183.075 61.1314 182.919C60.7933 182.76 60.5249 182.531 60.326 182.233C60.1271 181.932 60.0277 181.568 60.0277 181.142C60.0277 180.767 60.1016 180.463 60.2493 180.23C60.397 179.994 60.5945 179.81 60.8416 179.676C61.0888 179.543 61.3615 179.443 61.6598 179.378C61.9609 179.31 62.2635 179.256 62.5675 179.216C62.9652 179.165 63.2876 179.126 63.5348 179.101C63.7848 179.072 63.9666 179.026 64.0803 178.96C64.1967 178.895 64.255 178.781 64.255 178.619V178.585C64.255 178.165 64.1399 177.838 63.9098 177.605C63.6825 177.372 63.3374 177.256 62.8743 177.256C62.3942 177.256 62.0178 177.361 61.745 177.571C61.4723 177.781 61.2805 178.006 61.1697 178.244L60.2152 177.903C60.3857 177.506 60.6129 177.196 60.897 176.974C61.1839 176.75 61.4964 176.594 61.8345 176.506C62.1754 176.415 62.5107 176.369 62.8402 176.369C63.0504 176.369 63.2919 176.395 63.5646 176.446C63.8402 176.494 64.1058 176.595 64.3615 176.749C64.62 176.902 64.8345 177.134 65.005 177.443C65.1754 177.753 65.2607 178.168 65.2607 178.688V183H64.255V182.114H64.2038C64.1357 182.256 64.022 182.408 63.8629 182.57C63.7038 182.732 63.4922 182.869 63.228 182.983C62.9638 183.097 62.6413 183.153 62.2607 183.153ZM62.4141 182.25C62.8118 182.25 63.147 182.172 63.4197 182.016C63.6953 181.859 63.9027 181.658 64.0419 181.411C64.1839 181.163 64.255 180.903 64.255 180.631V179.71C64.2124 179.761 64.1186 179.808 63.9737 179.851C63.8317 179.891 63.6669 179.926 63.4794 179.957C63.2947 179.986 63.1143 180.011 62.9382 180.034C62.7649 180.054 62.6243 180.071 62.5163 180.085C62.255 180.119 62.0107 180.175 61.7834 180.251C61.5589 180.325 61.3771 180.437 61.2379 180.588C61.1016 180.736 61.0334 180.937 61.0334 181.193C61.0334 181.543 61.1626 181.807 61.4212 181.986C61.6825 182.162 62.0135 182.25 62.4141 182.25ZM68.1019 179.062V183H67.0962V176.455H68.0678V177.477H68.1531C68.3065 177.145 68.5394 176.878 68.8519 176.676C69.1644 176.472 69.5678 176.369 70.0621 176.369C70.5053 176.369 70.8931 176.46 71.2255 176.642C71.5579 176.821 71.8164 177.094 72.0011 177.46C72.1857 177.824 72.2781 178.284 72.2781 178.841V183H71.2724V178.909C71.2724 178.395 71.1388 177.994 70.8718 177.707C70.6048 177.418 70.2383 177.273 69.7724 177.273C69.4513 177.273 69.1644 177.342 68.9116 177.482C68.6616 177.621 68.4641 177.824 68.3192 178.091C68.1744 178.358 68.1019 178.682 68.1019 179.062ZM76.7749 183.136C76.1612 183.136 75.6328 182.991 75.1896 182.702C74.7464 182.412 74.4055 182.013 74.1669 181.504C73.9283 180.996 73.8089 180.415 73.8089 179.761C73.8089 179.097 73.9311 178.51 74.1754 178.001C74.4226 177.49 74.7663 177.091 75.2067 176.804C75.6499 176.514 76.1669 176.369 76.7578 176.369C77.218 176.369 77.6328 176.455 78.0021 176.625C78.3714 176.795 78.674 177.034 78.9098 177.341C79.1456 177.648 79.2919 178.006 79.3487 178.415H78.343C78.2663 178.116 78.0959 177.852 77.8317 177.622C77.5703 177.389 77.218 177.273 76.7749 177.273C76.3828 177.273 76.0391 177.375 75.7436 177.58C75.451 177.781 75.2223 178.067 75.0575 178.436C74.8956 178.803 74.8146 179.233 74.8146 179.727C74.8146 180.233 74.8942 180.673 75.0533 181.048C75.2152 181.423 75.4425 181.714 75.7351 181.922C76.0305 182.129 76.3771 182.233 76.7749 182.233C77.0362 182.233 77.2734 182.188 77.4865 182.097C77.6996 182.006 77.88 181.875 78.0277 181.705C78.1754 181.534 78.2805 181.33 78.343 181.091H79.3487C79.2919 181.477 79.1513 181.825 78.9268 182.135C78.7053 182.442 78.4112 182.686 78.0447 182.868C77.6811 183.047 77.2578 183.136 76.7749 183.136ZM83.5632 183.136C82.9325 183.136 82.3885 182.997 81.9311 182.719C81.4766 182.438 81.1257 182.045 80.8786 181.543C80.6342 181.037 80.5121 180.449 80.5121 179.778C80.5121 179.108 80.6342 178.517 80.8786 178.006C81.1257 177.491 81.4695 177.091 81.9098 176.804C82.353 176.514 82.87 176.369 83.4609 176.369C83.8018 176.369 84.1385 176.426 84.4709 176.54C84.8033 176.653 85.1058 176.838 85.3786 177.094C85.6513 177.347 85.8686 177.682 86.0305 178.099C86.1925 178.517 86.2734 179.031 86.2734 179.642V180.068H81.228V179.199H85.2507C85.2507 178.83 85.1768 178.5 85.0291 178.21C84.8842 177.92 84.6768 177.692 84.407 177.524C84.1399 177.357 83.8246 177.273 83.4609 177.273C83.0604 177.273 82.7138 177.372 82.4212 177.571C82.1314 177.767 81.9084 178.023 81.7521 178.338C81.5959 178.653 81.5178 178.991 81.5178 179.352V179.932C81.5178 180.426 81.603 180.845 81.7734 181.189C81.9467 181.53 82.1868 181.79 82.4936 181.969C82.8004 182.145 83.157 182.233 83.5632 182.233C83.8274 182.233 84.0661 182.196 84.2791 182.122C84.495 182.045 84.6811 181.932 84.8374 181.781C84.9936 181.628 85.1143 181.437 85.1996 181.21L86.1712 181.483C86.0689 181.812 85.897 182.102 85.6555 182.352C85.4141 182.599 85.1158 182.793 84.7607 182.932C84.4055 183.068 84.0064 183.136 83.5632 183.136ZM91.5362 179.318C91.5362 178.244 91.6754 177.257 91.9538 176.357C92.2351 175.453 92.6357 174.622 93.1555 173.864H94.0419C93.8374 174.145 93.6456 174.491 93.4666 174.903C93.2905 175.312 93.1357 175.763 93.0021 176.254C92.8686 176.743 92.7635 177.249 92.6868 177.771C92.6129 178.294 92.576 178.81 92.576 179.318C92.576 179.994 92.6413 180.68 92.772 181.376C92.9027 182.072 93.0788 182.719 93.3004 183.315C93.522 183.912 93.7692 184.398 94.0419 184.773H93.1555C92.6357 184.014 92.2351 183.185 91.9538 182.284C91.6754 181.381 91.5362 180.392 91.5362 179.318ZM95.5259 183V176.455H96.5316V183H95.5259ZM96.0373 175.364C95.8413 175.364 95.6722 175.297 95.5302 175.163C95.391 175.03 95.3214 174.869 95.3214 174.682C95.3214 174.494 95.391 174.334 95.5302 174.2C95.6722 174.067 95.8413 174 96.0373 174C96.2333 174 96.4009 174.067 96.5401 174.2C96.6822 174.334 96.7532 174.494 96.7532 174.682C96.7532 174.869 96.6822 175.03 96.5401 175.163C96.4009 175.297 96.2333 175.364 96.0373 175.364ZM99.3793 179.062V183H98.3736V176.455H99.3452V177.477H99.4304C99.5838 177.145 99.8168 176.878 100.129 176.676C100.442 176.472 100.845 176.369 101.339 176.369C101.783 176.369 102.17 176.46 102.503 176.642C102.835 176.821 103.094 177.094 103.278 177.46C103.463 177.824 103.555 178.284 103.555 178.841V183H102.55V178.909C102.55 178.395 102.416 177.994 102.149 177.707C101.882 177.418 101.516 177.273 101.05 177.273C100.729 177.273 100.442 177.342 100.189 177.482C99.9389 177.621 99.7415 177.824 99.5966 178.091C99.4517 178.358 99.3793 178.682 99.3793 179.062ZM114.632 174.273H115.689V180.051C115.689 180.648 115.548 181.18 115.267 181.649C114.988 182.115 114.595 182.483 114.086 182.753C113.578 183.02 112.981 183.153 112.297 183.153C111.612 183.153 111.015 183.02 110.507 182.753C109.998 182.483 109.603 182.115 109.322 181.649C109.044 181.18 108.904 180.648 108.904 180.051V174.273H109.961V179.966C109.961 180.392 110.055 180.771 110.243 181.104C110.43 181.433 110.697 181.693 111.044 181.884C111.393 182.071 111.811 182.165 112.297 182.165C112.782 182.165 113.2 182.071 113.549 181.884C113.899 181.693 114.166 181.433 114.35 181.104C114.538 180.771 114.632 180.392 114.632 179.966V174.273ZM122.572 176.455C122.521 176.023 122.313 175.688 121.95 175.449C121.586 175.21 121.14 175.091 120.612 175.091C120.225 175.091 119.887 175.153 119.597 175.278C119.31 175.403 119.086 175.575 118.924 175.794C118.765 176.013 118.685 176.261 118.685 176.54C118.685 176.773 118.741 176.973 118.852 177.141C118.965 177.305 119.11 177.443 119.286 177.554C119.462 177.662 119.647 177.751 119.84 177.822C120.033 177.891 120.211 177.946 120.373 177.989L121.259 178.227C121.487 178.287 121.739 178.369 122.018 178.474C122.299 178.58 122.567 178.723 122.823 178.905C123.082 179.084 123.295 179.314 123.462 179.595C123.63 179.876 123.714 180.222 123.714 180.631C123.714 181.102 123.59 181.528 123.343 181.909C123.099 182.29 122.741 182.592 122.269 182.817C121.8 183.041 121.231 183.153 120.56 183.153C119.935 183.153 119.394 183.053 118.937 182.851C118.482 182.649 118.124 182.368 117.863 182.007C117.604 181.646 117.458 181.227 117.424 180.75H118.515C118.543 181.08 118.654 181.352 118.847 181.568C119.043 181.781 119.29 181.94 119.589 182.045C119.89 182.148 120.214 182.199 120.56 182.199C120.964 182.199 121.326 182.134 121.647 182.003C121.968 181.869 122.222 181.685 122.41 181.449C122.597 181.21 122.691 180.932 122.691 180.614C122.691 180.324 122.61 180.088 122.448 179.906C122.286 179.724 122.073 179.577 121.809 179.463C121.545 179.349 121.259 179.25 120.952 179.165L119.879 178.858C119.197 178.662 118.657 178.382 118.259 178.018C117.862 177.655 117.663 177.179 117.663 176.591C117.663 176.102 117.795 175.676 118.059 175.312C118.326 174.946 118.684 174.662 119.133 174.46C119.585 174.256 120.089 174.153 120.646 174.153C121.208 174.153 121.708 174.254 122.146 174.456C122.583 174.655 122.93 174.928 123.185 175.274C123.444 175.621 123.58 176.014 123.594 176.455H122.572ZM128.145 183H125.451V174.273H128.264C129.11 174.273 129.835 174.447 130.437 174.797C131.039 175.143 131.501 175.642 131.822 176.293C132.143 176.94 132.304 177.716 132.304 178.619C132.304 179.528 132.142 180.311 131.818 180.967C131.494 181.621 131.022 182.124 130.403 182.476C129.784 182.825 129.031 183 128.145 183ZM126.508 182.062H128.076C128.798 182.062 129.396 181.923 129.87 181.645C130.345 181.366 130.699 180.97 130.931 180.456C131.164 179.942 131.281 179.33 131.281 178.619C131.281 177.915 131.166 177.308 130.936 176.8C130.706 176.288 130.362 175.896 129.904 175.624C129.447 175.348 128.877 175.21 128.196 175.21H126.508V182.062ZM136.088 178.636C136.088 179.71 135.947 180.699 135.666 181.602C135.387 182.503 134.988 183.332 134.468 184.091H133.582C133.787 183.81 133.977 183.463 134.153 183.051C134.332 182.642 134.488 182.193 134.622 181.705C134.755 181.213 134.859 180.706 134.933 180.183C135.01 179.658 135.048 179.142 135.048 178.636C135.048 177.96 134.983 177.274 134.852 176.578C134.721 175.882 134.545 175.236 134.324 174.639C134.102 174.043 133.855 173.557 133.582 173.182H134.468C134.988 173.94 135.387 174.771 135.666 175.675C135.947 176.575 136.088 177.562 136.088 178.636Z" fill="#7A7A7A"/>
</g>
<defs>
<filter id="filter0_d_7_3474" x="0" y="0" width="522" height="203" filterUnits="userSpaceOnUse" color-interpolation-filters="sRGB">
<feFlood flood-opacity="0" result="BackgroundImageFix"/>
<feColorMatrix in="SourceAlpha" type="matrix" values="0 0 0 0 0 0 0 0 0 0 0 0 0 0 0 0 0 0 127 0" result="hardAlpha"/>
<feOffset dy="1"/>
<feGaussianBlur stdDeviation="1"/>
<feComposite in2="hardAlpha" operator="out"/>
<feColorMatrix type="matrix" values="0 0 0 0 0 0 0 0 0 0 0 0 0 0 0 0 0 0 0.16 0"/>
<feBlend mode="normal" in2="BackgroundImageFix" result="effect1_dropShadow_7_3474"/>
<feBlend mode="normal" in="SourceGraphic" in2="effect1_dropShadow_7_3474" result="shape"/>
</filter>
<filter id="filter1_d_7_3474" x="255" y="83" width="12" height="12" filterUnits="userSpaceOnUse" color-interpolation-filters="sRGB">
<feFlood flood-opacity="0" result="BackgroundImageFix"/>
<feColorMatrix in="SourceAlpha" type="matrix" values="0 0 0 0 0 0 0 0 0 0 0 0 0 0 0 0 0 0 127 0" result="hardAlpha"/>
<feOffset dy="1"/>
<feGaussianBlur stdDeviation="1"/>
<feComposite in2="hardAlpha" operator="out"/>
<feColorMatrix type="matrix" values="0 0 0 0 0 0 0 0 0 0 0 0 0 0 0 0 0 0 0.16 0"/>
<feBlend mode="normal" in2="BackgroundImageFix" result="effect1_dropShadow_7_3474"/>
<feBlend mode="normal" in="SourceGraphic" in2="effect1_dropShadow_7_3474" result="shape"/>
</filter>
<filter id="filter2_d_7_3474" x="208" y="50" width="108" height="36" filterUnits="userSpaceOnUse" color-interpolation-filters="sRGB">
<feFlood flood-opacity="0" result="BackgroundImageFix"/>
<feColorMatrix in="SourceAlpha" type="matrix" values="0 0 0 0 0 0 0 0 0 0 0 0 0 0 0 0 0 0 127 0" result="hardAlpha"/>
<feOffset dy="2"/>
<feGaussianBlur stdDeviation="2"/>
<feComposite in2="hardAlpha" operator="out"/>
<feColorMatrix type="matrix" values="0 0 0 0 0 0 0 0 0 0 0 0 0 0 0 0 0 0 0.16 0"/>
<feBlend mode="normal" in2="BackgroundImageFix" result="effect1_dropShadow_7_3474"/>
<feBlend mode="normal" in="SourceGraphic" in2="effect1_dropShadow_7_3474" result="shape"/>
</filter>
<clipPath id="clip0_7_3474">
<rect width="486" height="15" fill="white" transform="translate(18 140)"/>
</clipPath>
</defs>
</svg>
