<svg width="25" height="25" viewBox="0 0 25 25" fill="none" xmlns="http://www.w3.org/2000/svg">
<path d="M10.9726 14.7048L8.82256 12.5548C8.63923 12.3715 8.40589 12.2798 8.12256 12.2798C7.83923 12.2798 7.60589 12.3715 7.42256 12.5548C7.23923 12.7381 7.14756 12.9715 7.14756 13.2548C7.14756 13.5381 7.23923 13.7715 7.42256 13.9548L10.2726 16.8048C10.4726 17.0048 10.7059 17.1048 10.9726 17.1048C11.2392 17.1048 11.4726 17.0048 11.6726 16.8048L17.3226 11.1548C17.5059 10.9715 17.5976 10.7381 17.5976 10.4548C17.5976 10.1715 17.5059 9.93812 17.3226 9.75479C17.1392 9.57145 16.9059 9.47979 16.6226 9.47979C16.3392 9.47979 16.1059 9.57145 15.9226 9.75479L10.9726 14.7048ZM12.3726 22.9048C10.9892 22.9048 9.68923 22.6423 8.47256 22.1173C7.25589 21.5923 6.19756 20.8798 5.29756 19.9798C4.39756 19.0798 3.68506 18.0215 3.16006 16.8048C2.63506 15.5881 2.37256 14.2881 2.37256 12.9048C2.37256 11.5215 2.63506 10.2215 3.16006 9.00479C3.68506 7.78812 4.39756 6.72979 5.29756 5.82979C6.19756 4.92979 7.25589 4.21729 8.47256 3.69229C9.68923 3.16729 10.9892 2.90479 12.3726 2.90479C13.7559 2.90479 15.0559 3.16729 16.2726 3.69229C17.4892 4.21729 18.5476 4.92979 19.4476 5.82979C20.3476 6.72979 21.0601 7.78812 21.5851 9.00479C22.1101 10.2215 22.3726 11.5215 22.3726 12.9048C22.3726 14.2881 22.1101 15.5881 21.5851 16.8048C21.0601 18.0215 20.3476 19.0798 19.4476 19.9798C18.5476 20.8798 17.4892 21.5923 16.2726 22.1173C15.0559 22.6423 13.7559 22.9048 12.3726 22.9048Z" fill="#00B301"/>
<path d="M10.9725 14.7047L8.82246 12.5547C8.63913 12.3714 8.40579 12.2797 8.12246 12.2797C7.83913 12.2797 7.60579 12.3714 7.42246 12.5547C7.23913 12.7381 7.14746 12.9714 7.14746 13.2547C7.14746 13.5381 7.23913 13.7714 7.42246 13.9547L10.2725 16.8047C10.4725 17.0047 10.7058 17.1047 10.9725 17.1047C11.2391 17.1047 11.4725 17.0047 11.6725 16.8047L17.3225 11.1547C17.5058 10.9714 17.5975 10.7381 17.5975 10.4547C17.5975 10.1714 17.5058 9.93807 17.3225 9.75474C17.1391 9.5714 16.9058 9.47974 16.6225 9.47974C16.3391 9.47974 16.1058 9.5714 15.9225 9.75474L10.9725 14.7047Z" fill="white"/>
</svg>
