<svg width="1382" height="258" viewBox="0 0 1382 258" fill="none" xmlns="http://www.w3.org/2000/svg">
<rect width="1382" height="258" fill="white"/>
<path opacity="0.3" d="M167.669 99.3314C165.949 97.5931 163.804 96.3355 161.447 95.6836C159.09 95.0317 156.603 95.0082 154.235 95.6156L114.218 105.62C110.929 106.434 107.924 108.131 105.528 110.527C103.132 112.923 101.435 115.928 100.62 119.217L90.6163 159.275C89.3913 164.134 90.7797 169.156 94.3321 172.709C97.0271 175.363 100.58 176.833 104.255 176.833C105.398 176.833 106.582 176.711 107.725 176.384L147.783 166.38C151.072 165.565 154.077 163.868 156.473 161.472C158.869 159.076 160.566 156.071 161.38 152.782L171.385 112.725C172.61 107.866 171.221 102.843 167.669 99.3314Z" fill="#00702E"/>
<path d="M131 151.848C133.08 151.848 135.14 151.438 137.063 150.642C138.985 149.846 140.731 148.679 142.203 147.207C143.674 145.736 144.841 143.99 145.637 142.067C146.433 140.145 146.843 138.085 146.843 136.004C146.843 133.924 146.433 131.864 145.637 129.941C144.841 128.019 143.674 126.273 142.203 124.802C140.731 123.33 138.985 122.163 137.063 121.367C135.14 120.571 133.08 120.161 131 120.161C126.798 120.161 122.768 121.83 119.797 124.802C116.825 127.773 115.156 131.803 115.156 136.004C115.156 140.206 116.825 144.236 119.797 147.207C122.768 150.179 126.798 151.848 131 151.848Z" fill="#00702E"/>
<path d="M934.123 93.125H930.04C926.651 93.125 923.915 95.8608 923.915 99.25V103.333C923.915 106.723 926.651 109.458 930.04 109.458H934.123C937.513 109.458 940.248 106.723 940.248 103.333V99.25C940.248 95.8608 937.513 93.125 934.123 93.125ZM900.436 130.577H896.353C892.963 130.577 890.228 133.313 890.228 136.702V140.786C890.228 144.175 892.963 146.911 896.353 146.911H900.436C903.825 146.911 906.561 144.175 906.561 140.786V136.702C906.561 133.313 903.784 130.577 900.436 130.577ZM967.648 130.577H963.564C960.175 130.577 957.439 133.313 957.439 136.702V140.786C957.439 144.175 960.175 146.911 963.564 146.911H967.648C971.037 146.911 973.773 144.175 973.773 140.786V136.702C973.773 133.313 971.037 130.577 967.648 130.577Z" fill="#00702E"/>
<path d="M898.312 135.665C896.638 135.665 895.25 134.277 895.25 132.603C895.25 115.167 908.317 100.508 925.63 98.4662C927.263 98.3029 928.815 99.487 929.019 101.161C929.223 102.835 927.998 104.346 926.324 104.55C919.452 105.36 913.116 108.664 908.517 113.834C903.919 119.005 901.377 125.683 901.375 132.603C901.375 134.277 899.987 135.665 898.312 135.665ZM965.683 135.674C964.009 135.674 962.621 134.285 962.621 132.611C962.621 118.36 951.963 106.314 937.835 104.599C937.438 104.552 937.054 104.426 936.706 104.23C936.357 104.034 936.051 103.771 935.804 103.456C935.558 103.141 935.376 102.781 935.269 102.395C935.162 102.01 935.132 101.607 935.181 101.21C935.385 99.5361 936.937 98.3519 938.611 98.556C955.802 100.639 968.787 115.298 968.787 132.652C968.746 134.285 967.398 135.674 965.683 135.674ZM937.267 176.862H926.773C923.017 176.862 920.24 173.84 920.934 170.574L922.649 163.02H941.392L943.107 170.574C943.882 174.045 941.269 176.862 937.267 176.862Z" fill="#00702E"/>
<path opacity="0.3" d="M948.619 156.617L941.391 163.028H922.649L915.421 156.617C911.215 153.187 911.215 150.533 914.4 146.49L927.14 130.402C928.039 129.299 929.06 128.523 930.162 128.156C931.346 127.748 932.653 127.748 933.837 128.156C934.94 128.564 935.96 129.299 936.859 130.402L949.599 146.49C952.784 150.533 952.661 153.064 948.619 156.617Z" fill="#00702E"/>
<path opacity="0.3" d="M398 168.666C406.663 168.666 414.972 165.225 421.098 159.098C427.225 152.972 430.666 144.663 430.666 136C430.666 127.336 427.225 119.027 421.098 112.901C414.972 106.775 406.663 103.333 398 103.333C389.336 103.333 381.027 106.775 374.901 112.901C368.775 119.027 365.333 127.336 365.333 136C365.333 144.663 368.775 152.972 374.901 159.098C381.027 165.225 389.336 168.666 398 168.666Z" fill="#00702E"/>
<path d="M397.996 148.736C401.375 148.736 404.616 147.394 407.005 145.005C409.394 142.616 410.736 139.375 410.736 135.996C410.736 132.617 409.394 129.377 407.005 126.988C404.616 124.598 401.375 123.256 397.996 123.256C394.617 123.256 391.377 124.598 388.988 126.988C386.598 129.377 385.256 132.617 385.256 135.996C385.256 139.375 386.598 142.616 388.988 145.005C391.377 147.394 394.617 148.736 397.996 148.736ZM401.063 95.167V103.497H401.022C400.042 103.374 399.021 103.334 398 103.334C396.979 103.334 395.959 103.374 394.979 103.497H394.938V95.167C394.938 93.4928 396.326 92.1045 398 92.1045C399.674 92.1045 401.063 93.4928 401.063 95.167ZM365.334 136C365.334 137.021 365.374 138.083 365.497 139.063H357.167C355.493 139.063 354.104 137.674 354.104 136C354.104 134.326 355.493 132.938 357.167 132.938H365.497C365.374 133.918 365.334 134.979 365.334 136ZM401.063 168.504V176.834C401.063 178.508 399.674 179.896 398 179.896C396.326 179.896 394.938 178.508 394.938 176.834V168.504H394.979C395.959 168.626 396.979 168.667 398 168.667C399.021 168.667 400.042 168.626 401.022 168.504H401.063ZM441.896 136C441.896 137.674 440.508 139.063 438.834 139.063H430.504C430.626 138.083 430.667 137.021 430.667 136C430.667 134.979 430.626 133.918 430.504 132.938H438.834C440.508 132.938 441.896 134.326 441.896 136Z" fill="#00702E"/>
<path opacity="0.3" d="M694.441 112.974C690.194 104.399 681.987 98.0699 672.473 95.9874C662.51 93.7824 652.301 96.1507 644.502 102.439C640.652 105.501 637.546 109.395 635.418 113.829C633.289 118.264 632.193 123.123 632.211 128.042C632.211 138.617 638.54 149.683 648.095 156.094V159.483C648.055 160.627 648.014 162.382 649.402 163.812C650.831 165.282 652.955 165.445 654.629 165.445H675.576C677.781 165.445 679.455 164.832 680.599 163.689C682.15 162.097 682.11 160.055 682.069 158.952V156.094C694.727 147.56 702.689 129.552 694.441 112.974Z" fill="#00702E"/>
<path d="M678.311 176.825C678.066 176.825 677.781 176.784 677.536 176.703C669.328 174.375 660.712 174.375 652.505 176.703C650.994 177.111 649.401 176.254 648.993 174.743C648.888 174.383 648.855 174.007 648.896 173.635C648.938 173.263 649.054 172.902 649.236 172.576C649.419 172.249 649.664 171.961 649.959 171.73C650.254 171.5 650.592 171.33 650.953 171.231C660.181 168.618 669.9 168.618 679.128 171.231C680.639 171.68 681.537 173.232 681.088 174.743C680.68 176.009 679.536 176.825 678.311 176.825ZM665 143.554C664.467 143.548 663.945 143.403 663.485 143.134C663.024 142.865 662.642 142.482 662.374 142.021C662.107 141.56 661.964 141.038 661.959 140.505C661.954 139.972 662.087 139.447 662.346 138.981L665.816 132.938H662.386C660.345 132.938 658.671 132.039 657.772 130.528C656.874 128.977 656.956 127.098 657.976 125.302L662.346 117.707C663.203 116.237 665.081 115.747 666.511 116.563C667.981 117.421 668.471 119.299 667.654 120.728L664.183 126.813H667.613C669.655 126.813 671.329 127.711 672.227 129.222C673.126 130.773 673.044 132.652 672.023 134.448L667.654 142.043C667.082 143.023 666.061 143.554 665 143.554Z" fill="#00702E"/>
<path opacity="0.3" d="M1239.83 108.029V123.138C1239.83 132.325 1236.16 136 1226.97 136H1215.95C1206.76 136 1203.08 132.325 1203.08 123.138V108.029C1203.08 98.842 1206.76 95.167 1215.95 95.167H1226.97C1236.16 95.167 1239.83 98.842 1239.83 108.029ZM1194.92 148.863V163.971C1194.92 173.159 1191.24 176.834 1182.05 176.834H1171.03C1161.84 176.834 1158.17 173.159 1158.17 163.971V148.863C1158.17 139.675 1161.84 136 1171.03 136H1182.05C1191.24 136 1194.92 139.675 1194.92 148.863Z" fill="#00702E"/>
<path d="M1210.35 176.834C1209.81 176.831 1209.28 176.684 1208.81 176.409C1208.34 176.133 1207.96 175.739 1207.69 175.266C1207.43 174.793 1207.29 174.258 1207.3 173.716C1207.31 173.174 1207.46 172.643 1207.74 172.179L1211.7 165.564C1212.56 164.094 1214.44 163.644 1215.91 164.502C1217.38 165.359 1217.82 167.238 1216.97 168.708L1216.23 169.933C1221.24 168.633 1225.68 165.707 1228.85 161.613C1232.02 157.519 1233.75 152.489 1233.75 147.311C1233.75 145.637 1235.14 144.249 1236.81 144.249C1238.49 144.249 1239.83 145.637 1239.83 147.352C1239.83 163.604 1226.6 176.834 1210.35 176.834ZM1161.23 127.711C1159.56 127.711 1158.17 126.364 1158.17 124.649C1158.17 108.397 1171.4 95.167 1187.65 95.167C1188.79 95.167 1189.77 95.7795 1190.34 96.7187C1190.87 97.6987 1190.87 98.842 1190.3 99.822L1186.34 106.396C1185.44 107.866 1183.57 108.356 1182.14 107.458C1181.79 107.252 1181.49 106.98 1181.25 106.657C1181 106.334 1180.83 105.967 1180.73 105.576C1180.63 105.185 1180.61 104.778 1180.67 104.38C1180.73 103.981 1180.87 103.598 1181.07 103.252L1181.81 102.027C1171.76 104.64 1164.29 113.787 1164.29 124.649C1164.29 126.364 1162.9 127.711 1161.23 127.711Z" fill="#00702E"/>
</svg>
