<svg width="25" height="25" viewBox="0 0 25 25" fill="none" xmlns="http://www.w3.org/2000/svg">
<path d="M2.5 6.75L9.41302 10.667C11.9616 12.111 13.0384 12.111 15.587 10.667L22.5 6.75" stroke="#5c5c5c" stroke-width="2" stroke-linejoin="round"/>
<path d="M2.51577 14.2256C2.58114 17.2912 2.61383 18.8239 3.74496 19.9594C4.87608 21.0948 6.45033 21.1343 9.59883 21.2134C11.5393 21.2622 13.4607 21.2622 15.4012 21.2134C18.5497 21.1343 20.1239 21.0948 21.2551 19.9594C22.3862 18.8239 22.4189 17.2912 22.4842 14.2256C22.5053 13.2399 22.5053 12.2601 22.4842 11.2744C22.4189 8.20886 22.3862 6.67609 21.2551 5.54066C20.1239 4.40523 18.5497 4.36568 15.4012 4.28657C13.4607 4.23781 11.5393 4.23781 9.59882 4.28656C6.45033 4.36566 4.87608 4.40521 3.74495 5.54065C2.61382 6.67608 2.58114 8.20885 2.51576 11.2744C2.49474 12.2601 2.49475 13.2399 2.51577 14.2256Z" stroke="#5c5c5c" stroke-width="2" stroke-linejoin="round"/>
</svg>