<svg width="24" height="25" viewBox="0 0 24 25" fill="none" xmlns="http://www.w3.org/2000/svg">
<path d="M6.51734 17.8632C6.91177 18.4405 8.10883 19.6728 9.74168 19.9833M9.86428 22.75C8.83582 22.5806 2 20.3557 2 12.8426C2 5.81329 8.0019 2.75 12.0008 2.75C15.9996 2.75 22 5.81329 22 12.8426C22 20.3557 15.1642 22.5806 14.1357 22.75C14.1357 22.75 13.9267 19.3326 14.0487 18.7469C14.1706 18.1613 13.7552 17.2188 13.7552 17.2188C14.7262 16.8555 16.2043 16.3347 16.7001 14.9374C17.0848 13.8532 17.3268 12.2788 16.2508 10.7989C16.2508 10.7989 16.5318 8.40809 15.9996 8.31548C15.4675 8.22287 13.8998 9.26192 13.8998 9.26192C13.4432 9.13248 12.4243 8.88476 12.0018 8.92939C11.5792 8.88476 10.5568 9.13248 10.1002 9.26192C10.1002 9.26192 8.53249 8.22287 8.00036 8.31548C7.46823 8.40809 7.74917 10.7989 7.74917 10.7989C6.67316 12.2788 6.91516 13.8532 7.2999 14.9374C7.79575 16.3347 9.27384 16.8555 10.2448 17.2188C10.2448 17.2188 9.82944 18.1613 9.95135 18.7469C10.0733 19.3326 9.86428 22.75 9.86428 22.75Z" stroke="currentcolor" stroke-width="2" stroke-linecap="round" stroke-linejoin="round"/>
</svg>
