<svg width="100" height="100" viewBox="0 0 100 100" fill="none" xmlns="http://www.w3.org/2000/svg">
<g clip-path="url(#clip0_464_47235)">
<path d="M18.305 78.5827C18.0109 78.1708 17.8933 77.6413 18.0697 77.1117C18.4226 75.9938 18.7755 74.8758 19.1873 73.7579C19.4813 72.9341 20.1871 72.7576 20.9518 73.2283C22.7163 74.3463 24.4808 75.4642 26.2453 76.5822C27.0688 77.1117 27.304 77.8178 26.8923 78.7004C26.363 79.7595 25.8336 80.7598 25.2454 81.76C24.7749 82.5838 24.3044 82.7015 23.4221 82.2896C22.4222 81.8189 18.7167 79.1711 18.305 78.5827Z" fill="#3F3F3F"/>
<path d="M42.2436 29.3929L52.0073 34.5708C53.2424 35.218 54.7129 34.8061 55.4187 33.6293L60.7711 24.6857C61.4769 23.509 61.124 21.9203 59.9476 21.2142C57.7714 19.8021 54.0071 17.6838 49.5958 16.3894C48.5371 16.0952 47.3607 16.5071 46.7137 17.4485L41.3025 25.7449C40.4791 26.9805 40.8908 28.6868 42.2436 29.3929Z" fill="#3F3F3F"/>
<path d="M37.3031 26.2155L44.0082 16.7424C44.8317 15.5656 44.42 13.9181 43.126 13.2708C41.2438 12.3294 38.1265 11.0938 33.7152 9.97583C32.9506 9.79931 32.0683 9.97583 31.539 10.5642C29.9509 12.1529 26.7159 15.4479 24.3044 19.1548C23.5398 20.3316 23.9515 21.8614 25.1867 22.5086C27.7158 23.8031 31.833 25.9213 34.5386 26.9804C35.5385 27.3923 36.6561 27.0981 37.3031 26.2155Z" fill="#3F3F3F"/>
<path d="M62.8298 56.5767L65.5354 57.9889C66.3 58.4007 67.2411 58.1654 67.7117 57.4593C68.3586 56.5767 69.2409 55.1646 70.0055 53.4582C70.3584 52.7521 70.1232 51.8696 69.4762 51.3988C68.7115 50.8104 67.6528 50.1044 66.5353 49.5748C65.7119 49.1629 64.7708 49.4571 64.3003 50.2221C63.6533 51.34 62.7122 52.9875 62.0652 54.282C61.7123 55.1646 62.0652 56.106 62.8298 56.5767Z" fill="#3F3F3F"/>
<path d="M28.7155 56.0471C31.3034 57.6946 35.7147 60.4601 38.1851 62.0487C39.185 62.696 39.5379 64.0493 39.0085 65.1084L33.9502 73.9932C33.362 75.1111 31.9504 75.5818 30.8329 74.9934C28.1273 73.5813 23.7748 71.2865 21.128 69.286C20.2458 68.5799 19.9517 67.3443 20.481 66.344L25.4805 56.9886C26.0099 55.6941 27.5391 55.2822 28.7155 56.0471Z" fill="#3F3F3F"/>
<path d="M17.9522 62.9903L21.8929 54.5762C22.4811 53.2817 22.1282 51.7519 20.9518 50.9282C19.2461 49.6337 16.6582 47.8097 14.0114 46.3387C12.541 45.5149 10.6588 46.0445 9.89418 47.5743C9.07074 49.163 7.95321 51.7519 6.83568 55.8707C6.54159 56.8121 6.77686 57.8712 7.48267 58.6361C8.65902 59.9894 10.7764 62.1665 13.5409 64.167C15.0113 65.2262 17.1875 64.6378 17.9522 62.9903Z" fill="#3F3F3F"/>
<path d="M24.0102 43.9851L27.8922 37.3362C28.7156 35.9829 28.1863 34.2178 26.8335 33.4528C25.4218 32.6879 23.5985 31.7465 21.6575 30.9816C20.4224 30.5109 19.0696 30.9227 18.3049 31.9819C17.2462 33.4528 15.7758 35.8064 14.4818 38.3954C13.8348 39.6898 14.3054 41.2197 15.4817 41.9846L20.0695 44.9265C21.4223 45.7503 23.1868 45.3384 24.0102 43.9851Z" fill="#3F3F3F"/>
<path d="M12.1879 36.1595C13.7759 33.5117 16.4227 28.981 18.1284 26.1567C18.893 24.9211 18.3637 23.2736 17.0697 22.6852C16.011 22.2145 14.717 21.7438 13.4819 21.3319C12.5996 21.0966 11.6585 21.3319 11.0703 22.038C9.894 23.3913 7.77658 26.2744 5.24743 32.0995C4.77689 33.1586 5.1298 34.3354 6.07087 34.9827C6.8355 35.5122 7.83539 36.2183 8.77647 36.8655C9.894 37.7481 11.4821 37.3951 12.1879 36.1595Z" fill="#3F3F3F"/>
<path d="M69.6525 59.5775C70.7112 57.8124 72.064 55.5765 73.2403 53.6936C74.2402 52.0461 76.3576 51.4577 78.0633 52.3991C79.3573 53.164 80.8866 54.0466 82.2982 54.8704C83.8274 55.8118 84.4156 57.8124 83.5922 59.401C82.7099 61.2839 81.3571 63.7551 79.769 65.8145C78.7103 67.1678 76.8282 67.5797 75.2989 66.756C74.0049 66.0499 72.4169 65.2261 71.0053 64.4612C69.1819 63.5786 68.5937 61.2839 69.6525 59.5775Z" fill="#3F3F3F"/>
<path d="M49.5371 95.1165C50.7722 93.7044 52.6544 91.5861 53.7131 90.2328C54.0072 89.821 54.5954 89.6444 55.0659 89.821C56.5363 90.2917 59.7125 91.2919 62.6533 92.0569C63.5944 92.2922 63.9473 93.5278 63.1827 94.1751C62.1828 95.1165 60.7712 96.2933 59.4772 97.1759C58.3009 97.9408 56.8892 98.2938 55.5364 98.1173C54.1248 97.9408 52.0074 97.6466 50.1253 97.1171C49.243 96.8817 48.9489 95.8226 49.5371 95.1165Z" fill="#3F3F3F"/>
<path d="M11.9528 73.5814C12.3645 72.1104 13.0703 69.7568 13.835 67.9916C14.0114 67.6386 13.8938 67.2267 13.5997 66.9914C12.4822 66.0499 9.65892 63.7552 7.77677 61.9312C7.30623 61.4605 6.48279 61.6958 6.30634 62.343C6.01225 63.6375 5.65935 65.5792 5.89462 67.7563C5.95343 68.227 6.12988 68.6977 6.36515 69.1096C7.07096 70.1687 8.65903 72.4046 10.5412 74.0521C11.0705 74.4051 11.8352 74.1698 11.9528 73.5814Z" fill="#3F3F3F"/>
<path d="M71.5935 89.1738C73.5344 86.8202 77.0635 82.5838 79.0044 79.936C79.475 79.3476 80.2396 79.1123 80.9454 79.3476C82.1218 79.7595 83.8863 80.4067 85.3567 80.8775C86.4742 81.2305 86.886 82.525 86.239 83.4664C84.945 85.3493 82.8276 88.1736 80.4161 90.1741C78.4163 91.8216 75.7695 92.5865 73.2403 92.1158C72.9462 92.057 72.6522 91.9981 72.4169 91.9393C71.2405 91.5862 70.8288 90.1153 71.5935 89.1738Z" fill="#3F3F3F"/>
<path d="M94.2381 59.4598L96.532 61.3427C97.179 61.8723 98.1788 61.5781 98.4141 60.7543C98.8258 59.401 99.414 57.3416 99.7081 55.6353C99.9434 54.0466 99.3552 52.4579 98.12 51.3988L98.0612 51.34C97.4142 50.8104 96.4731 51.1046 96.2379 51.8695C95.5909 53.6347 94.5322 56.6355 93.944 58.1065C93.7087 58.5772 93.8264 59.1068 94.2381 59.4598Z" fill="#3F3F3F"/>
<path d="M59.1243 2.79751C60.1242 2.26795 61.2417 2.15027 62.3004 2.44447C64.4179 2.97403 69.0644 4.26849 71.8877 5.97484C72.7699 6.50439 73.0052 7.62234 72.417 8.50494L71.8289 9.38753C71.4171 9.97592 70.6525 10.2113 70.0055 9.85824C67.6528 8.74029 62.1828 6.09252 59.2419 4.79805C58.3597 4.32733 58.3597 3.20938 59.1243 2.79751Z" fill="#3F3F3F"/>
<path d="M56.6538 2.79741L57.242 2.44437C57.5949 2.20901 57.5361 1.67946 57.1244 1.62062C55.1246 1.20874 50.8898 0.443829 48.7723 1.20874C48.3606 1.38526 48.3606 1.97366 48.8311 2.09133C50.1251 2.38553 52.2426 2.79741 53.713 3.20928C54.6541 3.50348 55.7128 3.32696 56.6538 2.79741Z" fill="#3F3F3F"/>
<path d="M73.7698 9.79936L74.4756 8.85793C74.8285 8.32838 75.5343 8.2107 76.0637 8.5049C78.4164 9.8582 84.5922 13.6828 86.3567 17.3897C86.8861 18.5076 85.5921 19.6256 84.5922 18.9195L74.0051 11.5057C73.4757 11.0938 73.3581 10.3289 73.7698 9.79936Z" fill="#3F3F3F"/>
<path d="M26.8337 7.38694C27.5395 7.44577 28.5982 7.50461 29.4217 7.62229C30.3627 7.73997 31.3038 7.44577 32.1273 6.7397C32.9507 5.97479 34.3035 4.97452 36.068 4.03308C36.4209 3.85657 36.3033 3.20933 35.9504 3.26817C33.6565 3.38585 29.8334 4.15076 26.7161 6.62202C26.422 6.79854 26.4808 7.3281 26.8337 7.38694Z" fill="#3F3F3F"/>
<path d="M1.36579 54.635C1.95402 55.2822 2.6599 56.106 3.36579 56.7532C4.13049 57.4593 4.48343 58.5184 4.24814 59.5187C3.95402 60.9897 3.6599 63.1667 3.83637 65.638C3.8952 66.3441 2.95402 66.5794 2.60108 65.991C1.48343 63.9316 0.130492 60.4013 0.248139 55.0469C0.248139 54.4585 1.01284 54.2231 1.36579 54.635Z" fill="#3F3F3F"/>
<path d="M23.0104 92.4688C20.4225 90.8802 16.2465 87.997 14.129 85.2904C13.5997 84.5843 13.5997 83.5841 14.1878 82.878C14.7172 82.2308 15.6583 82.1131 16.3641 82.5838C18.5991 84.2901 23.3633 87.8793 26.1866 89.7622C26.8336 90.1741 27.01 91.0567 26.5983 91.7039C25.8337 92.8807 24.2456 93.1749 23.0104 92.4688Z" fill="#3F3F3F"/>
<path d="M12.7761 81.7599C13.129 81.2892 13.0702 80.642 12.6585 80.2301C11.2469 78.8768 7.95309 75.7583 6.07093 73.1105C5.89448 72.8752 5.48276 73.0517 5.6004 73.3459C6.18857 75.2288 7.89427 78.7003 11.1292 81.8188C11.5998 82.3483 12.3644 82.2895 12.7761 81.7599Z" fill="#3F3F3F"/>
<path d="M28.4804 93.8221C28.5392 93.8221 28.5392 93.8221 28.4804 93.8221C28.9509 93.2337 29.7156 93.116 30.3037 93.5279C31.7742 94.5282 34.5974 97.529 38.2441 98.5881C38.5382 98.6469 38.4793 99.1176 38.1852 99.1176C36.0678 99.0588 32.5388 97.4113 29.0097 95.9403C28.2451 95.5873 27.951 94.5282 28.4804 93.8221Z" fill="#3F3F3F"/>
<path d="M62.1826 18.0369C61.3592 18.5076 60.5945 18.8018 59.7123 18.3311C57.0067 17.0366 54.3011 15.7422 51.5955 14.4477C51.125 14.2123 50.5956 13.977 50.3015 13.5063C49.8898 12.859 49.8898 12.2706 50.4191 11.6234C51.5367 10.3289 52.6542 8.97563 53.7717 7.68116C54.5952 6.73973 55.948 6.44553 57.0655 6.91624C59.4182 7.91651 61.7709 8.85795 64.0648 9.9759C65.6528 10.7408 66.0057 11.5646 65.1235 13.0944C64.3 14.5654 63.4178 16.0952 62.5355 17.5662C62.4179 17.7427 62.3002 17.9192 62.1826 18.0369Z" fill="#FAE635"/>
<path d="M33.9504 31.7465L25.5395 47.5743C24.8337 48.8688 25.3043 50.5163 26.5982 51.2812L42.4201 60.8132C43.7729 61.6369 45.5374 61.1662 46.302 59.7541L55.654 43.1025C56.4186 41.6903 55.8893 39.984 54.4776 39.2191L37.7147 30.5697C36.3619 29.8636 34.715 30.3932 33.9504 31.7465Z" fill="#4CAF4F"/>
<path d="M59.1243 38.6307L71.6524 45.8092C72.7699 46.4564 74.2403 46.0445 74.8873 44.9266C76.4166 42.3376 78.9457 37.5716 80.2397 32.7468C80.475 31.8642 80.1809 30.9228 79.4751 30.3344C77.4753 28.628 72.9464 25.0977 67.2999 23.156C66.1824 22.8029 65.006 23.2148 64.4179 24.2151L58.242 35.4534C57.595 36.5714 58.0068 37.9835 59.1243 38.6307Z" fill="#7B1FA2"/>
<path d="M48.8313 63.8728C51.5369 65.4026 55.4777 67.6385 58.6538 69.4037C60.536 70.4628 61.183 72.8164 60.1243 74.6404C58.6538 77.2293 56.4188 80.8774 54.0661 83.8193C53.0074 85.1727 51.1252 85.6434 49.5371 84.9373C46.7139 83.7017 42.5379 81.7011 39.3029 79.4652C37.5972 78.2884 37.1855 75.9937 38.2442 74.2874L43.6554 65.1672C44.8318 63.4021 47.0668 62.8725 48.8313 63.8728Z" fill="#E53835"/>
<path d="M38.0676 81.6424C39.6557 82.5838 41.7731 83.8783 43.42 84.7609C44.7728 85.5258 45.1845 87.2321 44.4199 88.5854C43.8905 89.5269 43.1847 90.586 42.4789 91.5862C40.9497 93.6456 38.1852 94.3517 35.8326 93.2926C34.5386 92.7042 33.127 91.9981 31.8918 91.1744C30.5978 90.3506 30.2449 88.5854 31.1272 87.291C32.0682 85.8788 33.3622 83.9371 34.3621 82.4661C35.1267 81.2305 36.7736 80.8774 38.0676 81.6424Z" fill="#2194F3"/>
</g>
<defs>
<clipPath id="clip0_464_47235">
<rect width="100" height="100" fill="white"/>
</clipPath>
</defs>
</svg>
