<svg width="150" height="100" viewBox="0 0 150 100" fill="none" xmlns="http://www.w3.org/2000/svg">
<rect width="150" height="100" fill="#FAFAFA"/>
<g clip-path="url(#clip0_2864_3992)">
<g clip-path="url(#clip1_2864_3992)">
<path d="M23.1006 56.2891C23.0347 56.1985 23.0083 56.082 23.0479 55.9655C23.1269 55.7196 23.206 55.4736 23.2982 55.2277C23.3641 55.0465 23.5222 55.0076 23.6934 55.1112C24.0887 55.3571 24.484 55.6031 24.8792 55.849C25.0637 55.9655 25.1164 56.1209 25.0241 56.315C24.9056 56.548 24.787 56.7681 24.6552 56.9882C24.5498 57.1694 24.4444 57.1953 24.2468 57.1047C24.0228 57.0011 23.1928 56.4186 23.1006 56.2891Z" fill="#3F3F3F"/>
<path d="M28.4624 45.4673L30.6494 46.6064C30.9261 46.7488 31.2555 46.6582 31.4136 46.3993L32.6125 44.4317C32.7706 44.1728 32.6916 43.8233 32.4281 43.668C31.9406 43.3573 31.0974 42.8913 30.1092 42.6065C29.8721 42.5418 29.6086 42.6324 29.4637 42.8395L28.2516 44.6647C28.0671 44.9366 28.1593 45.312 28.4624 45.4673Z" fill="#3F3F3F"/>
<path d="M27.356 44.7668L28.858 42.6827C29.0424 42.4238 28.9502 42.0613 28.6604 41.919C28.2388 41.7118 27.5405 41.44 26.5524 41.1941C26.3811 41.1552 26.1835 41.1941 26.0649 41.3235C25.7091 41.673 24.9845 42.3979 24.4443 43.2134C24.2731 43.4723 24.3653 43.8089 24.642 43.9513C25.2085 44.2361 26.1308 44.7021 26.7368 44.9351C26.9608 45.0257 27.2111 44.961 27.356 44.7668Z" fill="#3F3F3F"/>
<path d="M33.0741 51.4467L33.6802 51.7574C33.8514 51.848 34.0622 51.7962 34.1676 51.6409C34.3126 51.4467 34.5102 51.136 34.6815 50.7606C34.7605 50.6053 34.7078 50.4111 34.5629 50.3076C34.3916 50.1781 34.1545 50.0228 33.9041 49.9063C33.7197 49.8157 33.5089 49.8804 33.4035 50.0487C33.2586 50.2946 33.0478 50.6571 32.9028 50.9418C32.8238 51.136 32.9028 51.3431 33.0741 51.4467Z" fill="#3F3F3F"/>
<path d="M25.4324 51.3305C26.0121 51.693 27.0002 52.3014 27.5536 52.6509C27.7775 52.7932 27.8566 53.091 27.738 53.324L26.605 55.2786C26.4732 55.5246 26.157 55.6281 25.9067 55.4987C25.3006 55.188 24.3257 54.6832 23.7328 54.2431C23.5352 54.0877 23.4693 53.8159 23.5879 53.5958L24.7077 51.5376C24.8263 51.2528 25.1689 51.1622 25.4324 51.3305Z" fill="#3F3F3F"/>
<path d="M23.0212 52.8578L23.904 51.0067C24.0357 50.7219 23.9567 50.3854 23.6932 50.2041C23.3111 49.9193 22.7314 49.5181 22.1385 49.1944C21.8091 49.0132 21.3875 49.1297 21.2163 49.4663C21.0318 49.8158 20.7815 50.3854 20.5312 51.2915C20.4653 51.4986 20.518 51.7316 20.6761 51.8999C20.9396 52.1976 21.4139 52.6766 22.0331 53.1167C22.3625 53.3497 22.85 53.2202 23.0212 52.8578Z" fill="#3F3F3F"/>
<path d="M24.3784 48.6767L25.248 47.2139C25.4324 46.9162 25.3139 46.5279 25.0108 46.3596C24.6946 46.1913 24.2862 45.9842 23.8514 45.8159C23.5748 45.7123 23.2717 45.803 23.1005 46.036C22.8633 46.3596 22.5339 46.8774 22.2441 47.4469C22.0992 47.7317 22.2046 48.0683 22.4681 48.2366L23.4957 48.8838C23.7987 49.065 24.194 48.9744 24.3784 48.6767Z" fill="#3F3F3F"/>
<path d="M21.73 46.9553C22.0858 46.3728 22.6787 45.3761 23.0607 44.7547C23.232 44.4829 23.1134 44.1204 22.8236 43.991C22.5864 43.8874 22.2966 43.7839 22.0199 43.6932C21.8223 43.6415 21.6115 43.6932 21.4797 43.8486C21.2162 44.1463 20.7419 44.7806 20.1754 46.0621C20.07 46.2951 20.149 46.554 20.3598 46.6964C20.5311 46.8129 20.7551 46.9683 20.9659 47.1106C21.2162 47.3048 21.5719 47.2271 21.73 46.9553Z" fill="#3F3F3F"/>
<path d="M34.602 52.1078C34.8391 51.7194 35.1422 51.2275 35.4057 50.8133C35.6296 50.4509 36.1039 50.3214 36.486 50.5285C36.7759 50.6968 37.1184 50.891 37.4346 51.0722C37.7772 51.2793 37.9089 51.7194 37.7245 52.0689C37.5268 52.4832 37.2238 53.0269 36.8681 53.4799C36.6309 53.7776 36.2093 53.8683 35.8668 53.687C35.5769 53.5317 35.2212 53.3505 34.905 53.1822C34.4966 52.988 34.3648 52.4832 34.602 52.1078Z" fill="#3F3F3F"/>
<path d="M30.0964 59.9261C30.3731 59.6154 30.7947 59.1494 31.0318 58.8517C31.0977 58.7611 31.2294 58.7223 31.3348 58.7611C31.6642 58.8646 32.3757 59.0847 33.0344 59.253C33.2452 59.3048 33.3243 59.5766 33.153 59.719C32.929 59.9261 32.6128 60.185 32.323 60.3792C32.0595 60.5475 31.7433 60.6251 31.4402 60.5863C31.124 60.5475 30.6497 60.4827 30.2281 60.3662C30.0305 60.3145 29.9646 60.0814 30.0964 59.9261Z" fill="#3F3F3F"/>
<path d="M21.6775 55.1878C21.7697 54.8642 21.9278 54.3464 22.0991 53.9581C22.1386 53.8804 22.1123 53.7898 22.0464 53.738C21.7961 53.5309 21.1636 53.0261 20.742 52.6248C20.6366 52.5212 20.4522 52.573 20.4127 52.7154C20.3468 53.0002 20.2677 53.4273 20.3204 53.9063C20.3336 54.0099 20.3731 54.1134 20.4258 54.204C20.5839 54.437 20.9397 54.9289 21.3613 55.2914C21.4798 55.3691 21.6511 55.3173 21.6775 55.1878Z" fill="#3F3F3F"/>
<path d="M35.0372 58.6191C35.4719 58.1013 36.2624 57.1693 36.6972 56.5868C36.8026 56.4573 36.9739 56.4056 37.132 56.4573C37.3955 56.548 37.7908 56.6903 38.1201 56.7939C38.3705 56.8716 38.4627 57.1564 38.3178 57.3635C38.0279 57.7777 37.5536 58.399 37.0134 58.8392C36.5655 59.2016 35.9726 59.3699 35.4061 59.2663C35.3402 59.2534 35.2743 59.2404 35.2216 59.2275C34.9581 59.1498 34.8659 58.8262 35.0372 58.6191Z" fill="#3F3F3F"/>
<path d="M40.1093 52.0818L40.6232 52.496C40.7681 52.6125 40.9921 52.5478 41.0448 52.3665C41.137 52.0688 41.2687 51.6157 41.3346 51.2404C41.3873 50.8908 41.2556 50.5413 40.9789 50.3083L40.9657 50.2954C40.8208 50.1789 40.61 50.2436 40.5573 50.4119C40.4124 50.8002 40.1752 51.4604 40.0435 51.784C39.9908 51.8876 40.0171 52.0041 40.1093 52.0818Z" fill="#3F3F3F"/>
<path d="M32.244 39.6162C32.468 39.4997 32.7183 39.4739 32.9554 39.5386C33.4297 39.6551 34.4706 39.9399 35.103 40.3153C35.3006 40.4318 35.3533 40.6777 35.2216 40.8719L35.0898 41.0661C34.9976 41.1955 34.8263 41.2473 34.6814 41.1696C34.1544 40.9237 32.9291 40.3411 32.2703 40.0564C32.0727 39.9528 32.0727 39.7069 32.244 39.6162Z" fill="#3F3F3F"/>
<path d="M31.6905 39.6147L31.8222 39.537C31.9013 39.4852 31.8881 39.3687 31.7959 39.3558C31.3479 39.2652 30.3993 39.0969 29.925 39.2652C29.8328 39.304 29.8328 39.4335 29.9382 39.4593C30.2281 39.5241 30.7024 39.6147 31.0317 39.7053C31.2425 39.77 31.4797 39.7312 31.6905 39.6147Z" fill="#3F3F3F"/>
<path d="M35.5242 41.1554L35.6823 40.9483C35.7614 40.8318 35.9195 40.8059 36.038 40.8706C36.565 41.1683 37.9484 42.0097 38.3437 42.8253C38.4623 43.0712 38.1724 43.3172 37.9484 43.1618L35.5769 41.5308C35.4583 41.4402 35.432 41.2719 35.5242 41.1554Z" fill="#3F3F3F"/>
<path d="M25.0109 40.6257C25.169 40.6387 25.4062 40.6516 25.5906 40.6775C25.8014 40.7034 26.0122 40.6387 26.1967 40.4833C26.3811 40.315 26.6841 40.095 27.0794 39.8879C27.1584 39.849 27.1321 39.7066 27.053 39.7196C26.5392 39.7455 25.6828 39.9137 24.9846 40.4574C24.9187 40.4963 24.9319 40.6128 25.0109 40.6257Z" fill="#3F3F3F"/>
<path d="M19.3062 51.0202C19.4379 51.1626 19.596 51.3438 19.7542 51.4862C19.9255 51.6416 20.0045 51.8746 19.9518 52.0946C19.8859 52.4182 19.82 52.8972 19.8596 53.4409C19.8727 53.5962 19.6619 53.648 19.5829 53.5185C19.3325 53.0655 19.0295 52.2888 19.0558 51.1108C19.0558 50.9814 19.2271 50.9296 19.3062 51.0202Z" fill="#3F3F3F"/>
<path d="M24.1544 59.3432C23.5747 58.9937 22.6393 58.3594 22.165 57.7639C22.0464 57.6086 22.0464 57.3885 22.1782 57.2332C22.2967 57.0908 22.5075 57.0649 22.6656 57.1685C23.1663 57.5439 24.2335 58.3335 24.8659 58.7477C25.0108 58.8383 25.0503 59.0325 24.9581 59.1749C24.7868 59.4338 24.4311 59.4985 24.1544 59.3432Z" fill="#3F3F3F"/>
<path d="M21.862 56.9874C21.9411 56.8839 21.9279 56.7415 21.8357 56.6508C21.5195 56.3531 20.7817 55.6671 20.3601 55.0845C20.3205 55.0328 20.2283 55.0716 20.2547 55.1363C20.3864 55.5505 20.7685 56.3143 21.4931 57.0004C21.5985 57.1169 21.7698 57.1039 21.862 56.9874Z" fill="#3F3F3F"/>
<path d="M25.3794 59.6418C25.3926 59.6418 25.3926 59.6418 25.3794 59.6418C25.4848 59.5124 25.6561 59.4865 25.7879 59.5771C26.1173 59.7971 26.7497 60.4573 27.5665 60.6903C27.6324 60.7033 27.6192 60.8068 27.5533 60.8068C27.079 60.7939 26.2885 60.4314 25.498 60.1078C25.3267 60.0301 25.2609 59.7971 25.3794 59.6418Z" fill="#3F3F3F"/>
<path d="M32.9287 42.9678C32.7443 43.0713 32.573 43.1361 32.3754 43.0325C31.7693 42.7477 31.1633 42.4629 30.5572 42.1782C30.4518 42.1264 30.3332 42.0746 30.2674 41.971C30.1751 41.8286 30.1751 41.6992 30.2937 41.5568C30.544 41.272 30.7944 40.9743 31.0447 40.6895C31.2291 40.4824 31.5322 40.4177 31.7825 40.5212C32.3095 40.7413 32.8365 40.9484 33.3503 41.1944C33.7061 41.3626 33.7851 41.5439 33.5875 41.8804C33.403 42.204 33.2054 42.5406 33.0078 42.8642C32.9814 42.9031 32.9551 42.9419 32.9287 42.9678Z" fill="#FAE635"/>
<path d="M26.6049 45.984L24.7209 49.4661C24.5628 49.7509 24.6682 50.1133 24.9581 50.2816L28.5021 52.3787C28.8052 52.5599 29.2004 52.4563 29.3717 52.1457L31.4665 48.4823C31.6378 48.1716 31.5192 47.7963 31.203 47.628L27.4481 45.7251C27.1451 45.5698 26.7762 45.6863 26.6049 45.984Z" fill="#4CAF4F"/>
<path d="M32.244 47.4982L35.0503 49.0775C35.3007 49.2199 35.63 49.1293 35.775 48.8833C36.1175 48.3138 36.684 47.2652 36.9739 46.2038C37.0266 46.0096 36.9607 45.8025 36.8026 45.673C36.3547 45.2976 35.3402 44.521 34.0754 44.0938C33.825 44.0161 33.5615 44.1067 33.4298 44.3268L32.0464 46.7992C31.9015 47.0452 31.9937 47.3558 32.244 47.4982Z" fill="#7B1FA2"/>
<path d="M29.938 53.0517C30.5441 53.3883 31.4268 53.8802 32.1382 54.2685C32.5598 54.5015 32.7048 55.0193 32.4676 55.4206C32.1382 55.9901 31.6376 56.7927 31.1106 57.4399C30.8734 57.7377 30.4518 57.8412 30.0961 57.6859C29.4637 57.4141 28.5283 56.9739 27.8036 56.482C27.4216 56.2231 27.3293 55.7183 27.5665 55.3429L28.7786 53.3365C29.0421 52.9481 29.5428 52.8316 29.938 53.0517Z" fill="#E53835"/>
<path d="M27.527 56.9616C27.8828 57.1687 28.3571 57.4535 28.726 57.6477C29.029 57.8159 29.1212 58.1913 28.9499 58.4891C28.8314 58.6962 28.6733 58.9292 28.5152 59.1492C28.1726 59.6023 27.5534 59.7576 27.0264 59.5246C26.7365 59.3952 26.4203 59.2399 26.1436 59.0586C25.8538 58.8774 25.7747 58.4891 25.9724 58.2043C26.1832 57.8936 26.473 57.4664 26.697 57.1428C26.8683 56.871 27.2372 56.7933 27.527 56.9616Z" fill="#2194F3"/>
</g>
<g clip-path="url(#clip2_2864_3992)">
<path d="M53.1651 52.2868C53.1651 53.2065 53.0448 54.0474 52.8174 54.8095C52.59 55.5716 52.2289 56.2154 51.7608 56.7541C51.2927 57.2928 50.7042 57.7132 49.982 58.0154C49.2731 58.3176 48.4306 58.4621 47.4676 58.4621C47.0262 58.4621 46.5982 58.4359 46.1703 58.3964C45.7423 58.357 45.3009 58.2782 44.8462 58.1731L45.0468 55.9394C45.0736 55.7424 45.1538 55.5847 45.2875 55.4664C45.4213 55.3482 45.6219 55.2825 45.876 55.2825C46.0098 55.2825 46.1703 55.3088 46.3575 55.3482C46.5448 55.3876 46.7721 55.4139 47.053 55.4139C47.4275 55.4139 47.7618 55.3613 48.0293 55.2562C48.2968 55.1511 48.5376 54.9803 48.7248 54.7438C48.912 54.5073 49.0458 54.192 49.1394 53.8109C49.233 53.4299 49.2731 52.9437 49.2731 52.3788V41.7362H53.1518L53.1651 52.2868Z" fill="#3F3F3F"/>
<path d="M65.0417 46.4925V58.2782H62.8349C62.3935 58.2782 62.0993 58.0811 61.9655 57.6869L61.7649 57.0037C61.5376 57.2271 61.2968 57.4241 61.0561 57.5949C60.8153 57.7789 60.5478 57.9234 60.267 58.0548C59.9861 58.1862 59.6785 58.2782 59.3575 58.3439C59.0365 58.4096 58.6754 58.449 58.3009 58.449C57.6456 58.449 57.0705 58.3307 56.5756 58.1074C56.0674 57.884 55.6528 57.5687 55.305 57.1745C54.9573 56.7672 54.7032 56.2942 54.5293 55.7555C54.3555 55.2036 54.2618 54.6124 54.2618 53.9554V46.4925H57.8061V53.9686C57.8061 54.5467 57.9398 55.0066 58.2073 55.3219C58.4748 55.6372 58.876 55.7949 59.3843 55.7949C59.7721 55.7949 60.1466 55.7161 60.481 55.5453C60.8153 55.3876 61.1497 55.1642 61.4707 54.8752V46.4925H65.0417Z" fill="#3F3F3F"/>
<path d="M73.8822 49.0809C73.7886 49.2254 73.695 49.3305 73.588 49.3831C73.481 49.4488 73.3472 49.475 73.1867 49.475C73.0129 49.475 72.8524 49.4356 72.6785 49.3699C72.5046 49.3042 72.3308 49.2254 72.1301 49.1334C71.9295 49.0546 71.7155 48.9758 71.4748 48.8969C71.2341 48.8312 70.9532 48.7918 70.6322 48.7918C70.1775 48.7918 69.8297 48.8706 69.589 49.0414C69.3482 49.2123 69.2279 49.4488 69.2279 49.751C69.2279 49.9743 69.3081 50.1583 69.4686 50.3028C69.6291 50.4473 69.8297 50.5787 70.0972 50.6838C70.3513 50.7889 70.6589 50.894 70.9799 50.9992C71.3143 51.1043 71.6487 51.2094 71.9964 51.3276C72.3441 51.4459 72.6785 51.5904 73.0129 51.7481C73.3472 51.9058 73.6415 52.116 73.8956 52.3525C74.1497 52.589 74.3637 52.878 74.5242 53.2197C74.6847 53.5613 74.7649 53.9686 74.7649 54.4416C74.7649 55.0197 74.6579 55.5584 74.4439 56.0577C74.2299 56.5438 73.909 56.9774 73.481 57.3322C73.053 57.6869 72.5314 57.9628 71.9028 58.1599C71.2742 58.357 70.5653 58.449 69.7495 58.449C69.3482 58.449 68.9336 58.4096 68.5324 58.3307C68.1312 58.2519 67.7299 58.1468 67.3554 58.0285C66.981 57.8971 66.6199 57.7526 66.2989 57.5687C65.9779 57.3847 65.697 57.2008 65.4696 56.9906L66.2989 55.6898C66.3925 55.5321 66.5129 55.4139 66.6466 55.335C66.7937 55.2431 66.9676 55.2036 67.195 55.2036C67.3956 55.2036 67.5828 55.2431 67.7567 55.335C67.9172 55.427 68.1044 55.519 68.2917 55.6241C68.4789 55.7292 68.7063 55.8343 68.9604 55.9132C69.2145 56.0051 69.5355 56.0445 69.9367 56.0445C70.2176 56.0445 70.445 56.0183 70.6322 55.9657C70.8194 55.9132 70.9799 55.8343 71.0869 55.7292C71.2073 55.6372 71.2876 55.519 71.341 55.4007C71.3945 55.2825 71.4213 55.1511 71.4213 55.0197C71.4213 54.7832 71.341 54.5861 71.1806 54.4416C71.0201 54.2839 70.8061 54.1657 70.552 54.0474C70.2978 53.9423 69.9902 53.8372 69.6559 53.7452C69.3215 53.6532 68.9871 53.5481 68.6394 53.4167C68.2917 53.2985 67.9573 53.154 67.6229 52.9832C67.2886 52.8123 66.9943 52.6021 66.7268 52.3393C66.4727 52.0766 66.2587 51.7612 66.0982 51.3802C65.9378 50.9992 65.8575 50.5393 65.8575 50.0006C65.8575 49.5013 65.9511 49.0283 66.1517 48.5684C66.3524 48.1217 66.6466 47.7275 67.0345 47.3859C67.4223 47.0443 67.9172 46.7684 68.5057 46.5713C69.0941 46.3742 69.7896 46.2691 70.5787 46.2691C71.0067 46.2691 71.4213 46.3085 71.8225 46.3874C72.2238 46.4662 72.5982 46.5713 72.9594 46.7027C73.3071 46.8341 73.6281 47.0049 73.9223 47.1888C74.2166 47.3728 74.4707 47.583 74.698 47.7932L73.8822 49.0809Z" fill="#3F3F3F"/>
<path d="M79.66 58.4621C79.0983 58.4621 78.59 58.3833 78.1621 58.2125C77.7341 58.0548 77.3596 57.8183 77.0654 57.5161C76.7711 57.2139 76.5437 56.8592 76.3966 56.4256C76.2495 56.0051 76.1693 55.5321 76.1693 55.0066V48.9232H75.1528C74.9656 48.9232 74.8184 48.8706 74.6847 48.7524C74.5509 48.6341 74.4841 48.4633 74.4841 48.24V46.8604L76.3833 46.4925L77.0787 43.615C77.1723 43.2471 77.4265 43.0632 77.8544 43.0632H79.7135V46.5056H82.6826V48.9101H79.7269V54.7569C79.7269 55.0328 79.7937 55.2562 79.9275 55.427C80.0612 55.611 80.2485 55.6898 80.5026 55.6898C80.6363 55.6898 80.7433 55.6767 80.8236 55.6504C80.9172 55.6241 80.9841 55.5978 81.0509 55.5584C81.1178 55.519 81.1713 55.4927 81.2382 55.4664C81.2917 55.4402 81.3586 55.427 81.4388 55.427C81.5458 55.427 81.6261 55.4533 81.6929 55.5058C81.7598 55.5584 81.8267 55.6372 81.8935 55.7423L82.9769 57.411C82.5221 57.7526 82.0005 58.0023 81.4254 58.1731C80.8637 58.3833 80.2752 58.4621 79.66 58.4621Z" fill="#3F3F3F"/>
<path d="M91.5366 49.6984H97.4882V56.6884C96.6322 57.3059 95.7228 57.7658 94.7464 58.0417C93.7835 58.3176 92.767 58.4621 91.7104 58.4621C90.3328 58.4621 89.0756 58.2519 87.9522 57.8183C86.8287 57.3847 85.8524 56.7935 85.0499 56.0445C84.2475 55.2956 83.6188 54.4022 83.1909 53.3642C82.7495 52.3262 82.5355 51.2094 82.5355 50.0006C82.5355 48.7655 82.7361 47.6356 83.1507 46.5976C83.5654 45.5596 84.1538 44.6662 84.9295 43.9172C85.7053 43.1683 86.6281 42.5902 87.7248 42.1697C88.8215 41.7493 90.0386 41.5391 91.3894 41.5391C92.0849 41.5391 92.7403 41.5916 93.3555 41.7099C93.9707 41.8281 94.5324 41.9727 95.054 42.1697C95.5756 42.3668 96.0438 42.6033 96.4717 42.8792C96.8997 43.1552 97.2876 43.4442 97.6219 43.7596L96.4985 45.4545C96.3246 45.7173 96.0973 45.8881 95.8164 45.9406C95.5355 46.0063 95.2413 45.9275 94.9203 45.7304C94.6127 45.5465 94.3184 45.3888 94.051 45.2574C93.7835 45.126 93.5026 45.0209 93.2217 44.9289C92.9409 44.8501 92.6333 44.7844 92.3256 44.745C92.018 44.7056 91.6569 44.6924 91.2691 44.6924C90.5468 44.6924 89.8915 44.8238 89.303 45.0735C88.7145 45.3231 88.2197 45.691 87.8184 46.1509C87.4038 46.6107 87.0962 47.1626 86.8688 47.8195C86.6415 48.4633 86.5345 49.186 86.5345 49.9875C86.5345 50.8678 86.6549 51.643 86.909 52.3262C87.1497 53.0094 87.4975 53.5875 87.9522 54.0474C88.4069 54.5204 88.9419 54.8752 89.5571 55.1248C90.1857 55.3745 90.8678 55.4927 91.6302 55.4927C92.0983 55.4927 92.5263 55.4533 92.9008 55.3613C93.2752 55.2693 93.6497 55.1511 94.0108 54.9934V52.497H92.3123C92.0715 52.497 91.8709 52.4313 91.7372 52.2999C91.6034 52.1685 91.5366 52.0109 91.5366 51.8138V49.6984Z" fill="#3F3F3F"/>
<path d="M103.881 46.3085C104.791 46.3085 105.607 46.4531 106.355 46.729C107.104 47.0049 107.733 47.4122 108.268 47.9378C108.803 48.4633 109.218 49.094 109.512 49.8429C109.806 50.5919 109.953 51.4328 109.953 52.3656C109.953 53.3116 109.806 54.1525 109.512 54.9015C109.218 55.6504 108.803 56.2942 108.268 56.8198C107.733 57.3453 107.104 57.7526 106.355 58.0417C105.607 58.3307 104.791 58.4621 103.881 58.4621C102.972 58.4621 102.143 58.3176 101.394 58.0417C100.645 57.7526 100.003 57.3585 99.4676 56.8198C98.9326 56.2942 98.5047 55.6504 98.2104 54.9015C97.9162 54.1525 97.7691 53.2985 97.7691 52.3656C97.7691 51.4328 97.9162 50.5919 98.2104 49.8429C98.5047 49.094 98.9193 48.4633 99.4676 47.9378C100.003 47.4122 100.645 47.018 101.394 46.729C102.143 46.4531 102.972 46.3085 103.881 46.3085ZM103.881 55.8475C104.697 55.8475 105.299 55.5584 105.687 54.9934C106.075 54.4285 106.262 53.5481 106.262 52.3788C106.262 51.2094 106.075 50.3422 105.687 49.7772C105.299 49.2123 104.697 48.9232 103.881 48.9232C103.039 48.9232 102.423 49.2123 102.036 49.7772C101.648 50.3422 101.447 51.2094 101.447 52.3788C101.447 53.5481 101.648 54.4153 102.036 54.9934C102.423 55.5584 103.039 55.8475 103.881 55.8475Z" fill="#3F3F3F"/>
<path d="M111.511 56.7919C111.511 56.6942 111.529 56.6012 111.564 56.5129C111.602 56.4246 111.654 56.349 111.718 56.2859C111.782 56.2229 111.859 56.1724 111.949 56.1346C112.039 56.0968 112.135 56.0779 112.238 56.0779C112.341 56.0779 112.435 56.0968 112.522 56.1346C112.612 56.1724 112.689 56.2229 112.753 56.2859C112.821 56.349 112.874 56.4246 112.912 56.5129C112.951 56.6012 112.97 56.6942 112.97 56.7919C112.97 56.8928 112.951 56.9874 112.912 57.0756C112.874 57.1607 112.821 57.2348 112.753 57.2979C112.689 57.3609 112.612 57.4098 112.522 57.4445C112.435 57.4823 112.341 57.5012 112.238 57.5012C112.135 57.5012 112.039 57.4823 111.949 57.4445C111.859 57.4098 111.782 57.3609 111.718 57.2979C111.654 57.2348 111.602 57.1607 111.564 57.0756C111.529 56.9874 111.511 56.8928 111.511 56.7919Z" fill="#3F3F3F"/>
<path d="M117.509 53.6094C117.474 53.6536 117.438 53.6882 117.403 53.7135C117.371 53.7387 117.323 53.7513 117.259 53.7513C117.198 53.7513 117.138 53.734 117.08 53.6993C117.023 53.6615 116.954 53.6205 116.873 53.5763C116.793 53.529 116.697 53.4881 116.584 53.4534C116.475 53.4156 116.339 53.3966 116.175 53.3966C115.966 53.3966 115.783 53.4345 115.626 53.5101C115.469 53.5826 115.337 53.6882 115.231 53.827C115.129 53.9657 115.051 54.1343 115 54.3329C114.949 54.5284 114.923 54.7506 114.923 54.9997C114.923 55.2582 114.95 55.4883 115.005 55.6901C115.063 55.8919 115.145 56.0621 115.251 56.2008C115.356 56.3364 115.485 56.4404 115.636 56.5129C115.787 56.5823 115.957 56.6169 116.146 56.6169C116.336 56.6169 116.488 56.5949 116.604 56.5507C116.722 56.5034 116.822 56.453 116.902 56.3994C116.982 56.3427 117.051 56.2922 117.109 56.2481C117.17 56.2008 117.238 56.1772 117.311 56.1772C117.408 56.1772 117.48 56.2134 117.528 56.2859L117.87 56.7115C117.738 56.8628 117.596 56.9905 117.442 57.0945C117.287 57.1954 117.127 57.2774 116.96 57.3404C116.796 57.4003 116.626 57.4429 116.45 57.4681C116.276 57.4933 116.103 57.5059 115.929 57.5059C115.625 57.5059 115.337 57.4508 115.068 57.3404C114.798 57.2269 114.562 57.063 114.36 56.8486C114.157 56.6343 113.997 56.3726 113.878 56.0637C113.763 55.7516 113.705 55.3969 113.705 54.9997C113.705 54.6435 113.756 54.314 113.859 54.0114C113.965 53.7056 114.119 53.4424 114.321 53.2217C114.523 52.9978 114.774 52.8229 115.072 52.6968C115.371 52.5707 115.714 52.5076 116.103 52.5076C116.472 52.5076 116.795 52.566 117.071 52.6826C117.35 52.7992 117.6 52.9663 117.822 53.1838L117.509 53.6094Z" fill="#3F3F3F"/>
<path d="M120.717 52.5076C121.083 52.5076 121.415 52.566 121.714 52.6826C122.016 52.7992 122.273 52.9647 122.484 53.1791C122.7 53.3935 122.865 53.6551 122.98 53.9641C123.096 54.273 123.154 54.6182 123.154 54.9997C123.154 55.3843 123.096 55.7311 122.98 56.04C122.865 56.349 122.7 56.6122 122.484 56.8297C122.273 57.0472 122.016 57.2143 121.714 57.331C121.415 57.4476 121.083 57.5059 120.717 57.5059C120.348 57.5059 120.013 57.4476 119.711 57.331C119.409 57.2143 119.151 57.0472 118.936 56.8297C118.724 56.6122 118.558 56.349 118.44 56.04C118.324 55.7311 118.266 55.3843 118.266 54.9997C118.266 54.6182 118.324 54.273 118.44 53.9641C118.558 53.6551 118.724 53.3935 118.936 53.1791C119.151 52.9647 119.409 52.7992 119.711 52.6826C120.013 52.566 120.348 52.5076 120.717 52.5076ZM120.717 56.6075C121.128 56.6075 121.431 56.4719 121.627 56.2008C121.826 55.9297 121.926 55.5325 121.926 55.0092C121.926 54.4858 121.826 54.087 121.627 53.8128C121.431 53.5385 121.128 53.4014 120.717 53.4014C120.3 53.4014 119.99 53.5401 119.788 53.8175C119.589 54.0918 119.489 54.489 119.489 55.0092C119.489 55.5293 119.589 55.9265 119.788 56.2008C119.99 56.4719 120.3 56.6075 120.717 56.6075Z" fill="#3F3F3F"/>
<path d="M124.061 57.435V52.5833H124.788C124.942 52.5833 125.043 52.6542 125.092 52.7961L125.169 53.1555C125.255 53.0609 125.345 52.9742 125.438 52.8954C125.535 52.8166 125.636 52.7488 125.742 52.6921C125.851 52.6353 125.966 52.5912 126.088 52.5596C126.214 52.525 126.35 52.5076 126.498 52.5076C126.809 52.5076 127.064 52.5912 127.263 52.7583C127.466 52.9222 127.616 53.1413 127.716 53.4156C127.793 53.2548 127.889 53.1176 128.005 53.0042C128.12 52.8875 128.247 52.7929 128.385 52.7204C128.523 52.6479 128.669 52.5943 128.824 52.5596C128.981 52.525 129.138 52.5076 129.295 52.5076C129.568 52.5076 129.811 52.5486 130.023 52.6306C130.234 52.7125 130.413 52.8323 130.557 52.99C130.701 53.1476 130.811 53.3399 130.884 53.5669C130.962 53.7939 131 54.0539 131 54.3471V57.435H129.811V54.3471C129.811 54.0382 129.742 53.8065 129.604 53.652C129.466 53.4944 129.263 53.4156 128.997 53.4156C128.875 53.4156 128.761 53.436 128.655 53.477C128.552 53.518 128.461 53.5779 128.38 53.6567C128.303 53.7324 128.242 53.8285 128.198 53.9452C128.153 54.0618 128.13 54.1958 128.13 54.3471V57.435H126.936V54.3471C126.936 54.0224 126.868 53.786 126.734 53.6378C126.602 53.4896 126.408 53.4156 126.151 53.4156C125.978 53.4156 125.816 53.4581 125.665 53.5432C125.517 53.6252 125.379 53.7387 125.251 53.8837V57.435H124.061Z" fill="#3F3F3F"/>
</g>
</g>
<defs>
<clipPath id="clip0_2864_3992">
<rect width="112" height="22" fill="white" transform="translate(19 39)"/>
</clipPath>
<clipPath id="clip1_2864_3992">
<rect width="22.4" height="22" fill="white" transform="translate(19 39)"/>
</clipPath>
<clipPath id="clip2_2864_3992">
<rect width="86.1538" height="16.9231" fill="white" transform="translate(44.8462 41.5391)"/>
</clipPath>
</defs>
</svg>
