<svg width="25" height="25" viewBox="0 0 25 25" fill="none" xmlns="http://www.w3.org/2000/svg">
<path d="M7.5 10.75V17.75" stroke="currentcolor" stroke-width="2" stroke-linecap="round" stroke-linejoin="round"/>
<path d="M11.5 13.75V17.75M11.5 13.75C11.5 12.0931 12.8431 10.75 14.5 10.75C16.1569 10.75 17.5 12.0931 17.5 13.75V17.75M11.5 13.75V10.75" stroke="currentcolor" stroke-width="2" stroke-linecap="round" stroke-linejoin="round"/>
<path d="M7.50801 7.75H7.49902" stroke="currentcolor" stroke-width="2" stroke-linecap="round" stroke-linejoin="round"/>
<path d="M3 12.75C3 8.27166 3 6.03249 4.39124 4.64124C5.78249 3.25 8.02166 3.25 12.5 3.25C16.9783 3.25 19.2175 3.25 20.6088 4.64124C22 6.03249 22 8.27166 22 12.75C22 17.2283 22 19.4675 20.6088 20.8588C19.2175 22.25 16.9783 22.25 12.5 22.25C8.02166 22.25 5.78249 22.25 4.39124 20.8588C3 19.4675 3 17.2283 3 12.75Z" stroke="currentcolor" stroke-width="2" stroke-linejoin="round"/>
</svg>
