<svg width="25" height="25" viewBox="0 0 25 25" fill="none" xmlns="http://www.w3.org/2000/svg">
<mask id="mask0_173_8441" style="mask-type:alpha" maskUnits="userSpaceOnUse" x="0" y="0" width="25" height="25">
<rect x="0.64502" y="0.593231" width="24" height="24" fill="#1E1E1E"/>
</mask>
<g mask="url(#mask0_173_8441)">
<path d="M4.64502 18.5932C4.36169 18.5932 4.12419 18.4974 3.93252 18.3057C3.74085 18.1141 3.64502 17.8766 3.64502 17.5932C3.64502 17.3099 3.74085 17.0724 3.93252 16.8807C4.12419 16.6891 4.36169 16.5932 4.64502 16.5932H20.645C20.9284 16.5932 21.1659 16.6891 21.3575 16.8807C21.5492 17.0724 21.645 17.3099 21.645 17.5932C21.645 17.8766 21.5492 18.1141 21.3575 18.3057C21.1659 18.4974 20.9284 18.5932 20.645 18.5932H4.64502ZM4.64502 13.5932C4.36169 13.5932 4.12419 13.4974 3.93252 13.3057C3.74085 13.1141 3.64502 12.8766 3.64502 12.5932C3.64502 12.3099 3.74085 12.0724 3.93252 11.8807C4.12419 11.6891 4.36169 11.5932 4.64502 11.5932H20.645C20.9284 11.5932 21.1659 11.6891 21.3575 11.8807C21.5492 12.0724 21.645 12.3099 21.645 12.5932C21.645 12.8766 21.5492 13.1141 21.3575 13.3057C21.1659 13.4974 20.9284 13.5932 20.645 13.5932H4.64502ZM4.64502 8.59323C4.36169 8.59323 4.12419 8.4974 3.93252 8.30573C3.74085 8.11406 3.64502 7.87656 3.64502 7.59323C3.64502 7.3099 3.74085 7.0724 3.93252 6.88073C4.12419 6.68906 4.36169 6.59323 4.64502 6.59323H20.645C20.9284 6.59323 21.1659 6.68906 21.3575 6.88073C21.5492 7.0724 21.645 7.3099 21.645 7.59323C21.645 7.87656 21.5492 8.11406 21.3575 8.30573C21.1659 8.4974 20.9284 8.59323 20.645 8.59323H4.64502Z" fill="#1E1E1E"/>
</g>
</svg>
