<svg width="360" height="360" viewBox="0 0 360 360" fill="none" xmlns="http://www.w3.org/2000/svg">
<rect width="360" height="360" fill="white"/>
<g filter="url(#filter0_d_2840_3331)">
<rect x="94" y="59" width="172" height="241" rx="16" fill="white"/>
<g filter="url(#filter1_d_2840_3331)">
<rect x="130" y="97" width="100" height="100" rx="50" fill="white"/>
<path opacity="0.4" d="M155.284 119.5V113.9H158.812V114.732H156.148V118.668H158.812V119.5H155.284ZM155.676 117.044V116.212H158.372V117.044H155.676ZM160.006 119.5V113.58H160.83V119.5H160.006ZM163.536 119.58C163.189 119.58 162.872 119.484 162.584 119.292C162.301 119.1 162.074 118.839 161.904 118.508C161.733 118.177 161.648 117.804 161.648 117.388C161.648 116.967 161.733 116.593 161.904 116.268C162.08 115.937 162.314 115.679 162.608 115.492C162.906 115.305 163.24 115.212 163.608 115.212C163.826 115.212 164.026 115.244 164.208 115.308C164.389 115.372 164.546 115.463 164.68 115.58C164.818 115.692 164.93 115.823 165.016 115.972C165.106 116.121 165.162 116.281 165.184 116.452L165 116.388V115.3H165.832V119.5H165V118.5L165.192 118.444C165.16 118.588 165.093 118.729 164.992 118.868C164.896 119.001 164.77 119.121 164.616 119.228C164.466 119.335 164.298 119.42 164.112 119.484C163.93 119.548 163.738 119.58 163.536 119.58ZM163.752 118.82C164.002 118.82 164.224 118.759 164.416 118.636C164.608 118.513 164.757 118.345 164.864 118.132C164.976 117.913 165.032 117.665 165.032 117.388C165.032 117.116 164.976 116.873 164.864 116.66C164.757 116.447 164.608 116.279 164.416 116.156C164.224 116.033 164.002 115.972 163.752 115.972C163.506 115.972 163.288 116.033 163.096 116.156C162.909 116.279 162.76 116.447 162.648 116.66C162.541 116.873 162.488 117.116 162.488 117.388C162.488 117.665 162.541 117.913 162.648 118.132C162.76 118.345 162.909 118.513 163.096 118.636C163.288 118.759 163.506 118.82 163.752 118.82ZM166.982 121.26V115.3H167.814V116.26L167.686 116.188C167.718 116.028 167.809 115.876 167.958 115.732C168.108 115.583 168.289 115.463 168.502 115.372C168.721 115.276 168.945 115.228 169.174 115.228C169.553 115.228 169.889 115.321 170.182 115.508C170.476 115.695 170.708 115.951 170.878 116.276C171.049 116.601 171.134 116.975 171.134 117.396C171.134 117.812 171.049 118.185 170.878 118.516C170.713 118.841 170.484 119.1 170.19 119.292C169.897 119.479 169.566 119.572 169.198 119.572C168.953 119.572 168.716 119.524 168.486 119.428C168.257 119.327 168.062 119.199 167.902 119.044C167.742 118.889 167.644 118.729 167.606 118.564L167.814 118.452V121.26H166.982ZM169.062 118.812C169.308 118.812 169.526 118.751 169.718 118.628C169.91 118.505 170.062 118.337 170.174 118.124C170.286 117.911 170.342 117.668 170.342 117.396C170.342 117.124 170.286 116.884 170.174 116.676C170.068 116.463 169.918 116.295 169.726 116.172C169.534 116.049 169.313 115.988 169.062 115.988C168.812 115.988 168.59 116.049 168.398 116.172C168.206 116.289 168.054 116.455 167.942 116.668C167.83 116.881 167.774 117.124 167.774 117.396C167.774 117.668 167.83 117.911 167.942 118.124C168.054 118.337 168.206 118.505 168.398 118.628C168.59 118.751 168.812 118.812 169.062 118.812ZM173.429 119.58C173.077 119.58 172.76 119.519 172.477 119.396C172.194 119.273 171.96 119.092 171.773 118.852L172.333 118.372C172.493 118.559 172.666 118.695 172.853 118.78C173.045 118.86 173.261 118.9 173.501 118.9C173.597 118.9 173.685 118.889 173.765 118.868C173.85 118.841 173.922 118.804 173.981 118.756C174.045 118.708 174.093 118.652 174.125 118.588C174.157 118.519 174.173 118.444 174.173 118.364C174.173 118.225 174.122 118.113 174.021 118.028C173.968 117.991 173.882 117.951 173.765 117.908C173.653 117.86 173.506 117.812 173.325 117.764C173.016 117.684 172.762 117.593 172.565 117.492C172.368 117.391 172.216 117.276 172.109 117.148C172.029 117.047 171.97 116.937 171.933 116.82C171.896 116.697 171.877 116.564 171.877 116.42C171.877 116.244 171.914 116.084 171.989 115.94C172.069 115.791 172.176 115.663 172.309 115.556C172.448 115.444 172.608 115.359 172.789 115.3C172.976 115.241 173.173 115.212 173.381 115.212C173.578 115.212 173.773 115.239 173.965 115.292C174.162 115.345 174.344 115.423 174.509 115.524C174.674 115.625 174.813 115.745 174.925 115.884L174.453 116.404C174.352 116.303 174.24 116.215 174.117 116.14C174 116.06 173.88 115.999 173.757 115.956C173.634 115.913 173.522 115.892 173.421 115.892C173.309 115.892 173.208 115.903 173.117 115.924C173.026 115.945 172.949 115.977 172.885 116.02C172.826 116.063 172.781 116.116 172.749 116.18C172.717 116.244 172.701 116.316 172.701 116.396C172.706 116.465 172.722 116.532 172.749 116.596C172.781 116.655 172.824 116.705 172.877 116.748C172.936 116.791 173.024 116.836 173.141 116.884C173.258 116.932 173.408 116.977 173.589 117.02C173.856 117.089 174.074 117.167 174.245 117.252C174.421 117.332 174.56 117.425 174.661 117.532C174.768 117.633 174.842 117.751 174.885 117.884C174.928 118.017 174.949 118.167 174.949 118.332C174.949 118.572 174.88 118.788 174.741 118.98C174.608 119.167 174.426 119.313 174.197 119.42C173.968 119.527 173.712 119.58 173.429 119.58ZM177.817 119.58C177.385 119.58 177.001 119.489 176.665 119.308C176.335 119.121 176.073 118.868 175.881 118.548C175.695 118.228 175.601 117.86 175.601 117.444C175.601 117.113 175.655 116.812 175.761 116.54C175.868 116.268 176.015 116.033 176.201 115.836C176.393 115.633 176.62 115.479 176.881 115.372C177.148 115.26 177.436 115.204 177.745 115.204C178.017 115.204 178.271 115.257 178.505 115.364C178.74 115.465 178.943 115.607 179.113 115.788C179.289 115.969 179.423 116.185 179.513 116.436C179.609 116.681 179.655 116.951 179.649 117.244L179.641 117.596H176.209L176.025 116.94H178.929L178.809 117.076V116.884C178.793 116.708 178.735 116.551 178.633 116.412C178.532 116.273 178.404 116.164 178.249 116.084C178.095 116.004 177.927 115.964 177.745 115.964C177.457 115.964 177.215 116.02 177.017 116.132C176.82 116.239 176.671 116.399 176.569 116.612C176.468 116.82 176.417 117.079 176.417 117.388C176.417 117.681 176.479 117.937 176.601 118.156C176.724 118.369 176.897 118.535 177.121 118.652C177.345 118.769 177.604 118.828 177.897 118.828C178.105 118.828 178.297 118.793 178.473 118.724C178.655 118.655 178.849 118.529 179.057 118.348L179.473 118.932C179.345 119.06 179.188 119.172 179.001 119.268C178.82 119.364 178.625 119.441 178.417 119.5C178.215 119.553 178.015 119.58 177.817 119.58ZM182.297 119.58C181.913 119.58 181.569 119.487 181.265 119.3C180.966 119.108 180.729 118.849 180.553 118.524C180.377 118.193 180.289 117.817 180.289 117.396C180.289 116.975 180.374 116.601 180.545 116.276C180.721 115.945 180.958 115.687 181.257 115.5C181.555 115.308 181.894 115.212 182.273 115.212C182.481 115.212 182.681 115.247 182.873 115.316C183.07 115.38 183.246 115.471 183.401 115.588C183.555 115.7 183.675 115.825 183.761 115.964C183.851 116.097 183.897 116.233 183.897 116.372L183.657 116.388V113.58H184.481V119.5H183.657V118.5H183.817C183.817 118.628 183.774 118.756 183.689 118.884C183.603 119.007 183.489 119.121 183.345 119.228C183.206 119.335 183.043 119.42 182.857 119.484C182.675 119.548 182.489 119.58 182.297 119.58ZM182.409 118.868C182.659 118.868 182.881 118.804 183.073 118.676C183.265 118.548 183.414 118.375 183.521 118.156C183.633 117.932 183.689 117.679 183.689 117.396C183.689 117.113 183.633 116.863 183.521 116.644C183.414 116.42 183.265 116.244 183.073 116.116C182.881 115.988 182.659 115.924 182.409 115.924C182.158 115.924 181.937 115.988 181.745 116.116C181.553 116.244 181.401 116.42 181.289 116.644C181.182 116.863 181.129 117.113 181.129 117.396C181.129 117.679 181.182 117.932 181.289 118.156C181.401 118.375 181.553 118.548 181.745 118.676C181.937 118.804 182.158 118.868 182.409 118.868ZM189.129 119.5V114.732H187.561V113.9H191.609V114.732H189.993V119.5H189.129ZM192.603 119.5V115.3H193.427V119.5H192.603ZM193.003 114.372C192.827 114.372 192.691 114.327 192.595 114.236C192.499 114.145 192.451 114.017 192.451 113.852C192.451 113.697 192.499 113.572 192.595 113.476C192.696 113.38 192.832 113.332 193.003 113.332C193.179 113.332 193.315 113.377 193.411 113.468C193.507 113.559 193.555 113.687 193.555 113.852C193.555 114.007 193.504 114.132 193.403 114.228C193.307 114.324 193.173 114.372 193.003 114.372ZM194.677 119.5V115.3H195.509V116.196L195.357 116.292C195.4 116.153 195.467 116.02 195.557 115.892C195.653 115.764 195.768 115.652 195.901 115.556C196.04 115.455 196.187 115.375 196.341 115.316C196.501 115.257 196.664 115.228 196.829 115.228C197.069 115.228 197.28 115.268 197.461 115.348C197.643 115.428 197.792 115.548 197.909 115.708C198.027 115.868 198.112 116.068 198.165 116.308L198.037 116.276L198.093 116.14C198.152 116.017 198.232 115.903 198.333 115.796C198.44 115.684 198.56 115.585 198.693 115.5C198.827 115.415 198.968 115.348 199.117 115.3C199.267 115.252 199.413 115.228 199.557 115.228C199.872 115.228 200.131 115.292 200.333 115.42C200.541 115.548 200.696 115.743 200.797 116.004C200.904 116.265 200.957 116.591 200.957 116.98V119.5H200.125V117.028C200.125 116.788 200.093 116.593 200.029 116.444C199.971 116.289 199.88 116.175 199.757 116.1C199.635 116.025 199.477 115.988 199.285 115.988C199.136 115.988 198.995 116.015 198.861 116.068C198.733 116.116 198.621 116.185 198.525 116.276C198.429 116.367 198.355 116.473 198.301 116.596C198.248 116.713 198.221 116.844 198.221 116.988V119.5H197.389V117.012C197.389 116.793 197.357 116.609 197.293 116.46C197.229 116.305 197.136 116.188 197.013 116.108C196.891 116.028 196.741 115.988 196.565 115.988C196.416 115.988 196.277 116.015 196.149 116.068C196.021 116.116 195.909 116.185 195.813 116.276C195.717 116.361 195.643 116.465 195.589 116.588C195.536 116.705 195.509 116.833 195.509 116.972V119.5H194.677ZM204.02 119.58C203.588 119.58 203.204 119.489 202.868 119.308C202.538 119.121 202.276 118.868 202.084 118.548C201.898 118.228 201.804 117.86 201.804 117.444C201.804 117.113 201.858 116.812 201.964 116.54C202.071 116.268 202.218 116.033 202.404 115.836C202.596 115.633 202.823 115.479 203.084 115.372C203.351 115.26 203.639 115.204 203.948 115.204C204.22 115.204 204.474 115.257 204.708 115.364C204.943 115.465 205.146 115.607 205.316 115.788C205.492 115.969 205.626 116.185 205.716 116.436C205.812 116.681 205.858 116.951 205.852 117.244L205.844 117.596H202.412L202.228 116.94H205.132L205.012 117.076V116.884C204.996 116.708 204.938 116.551 204.836 116.412C204.735 116.273 204.607 116.164 204.452 116.084C204.298 116.004 204.13 115.964 203.948 115.964C203.66 115.964 203.418 116.02 203.22 116.132C203.023 116.239 202.874 116.399 202.772 116.612C202.671 116.82 202.62 117.079 202.62 117.388C202.62 117.681 202.682 117.937 202.804 118.156C202.927 118.369 203.1 118.535 203.324 118.652C203.548 118.769 203.807 118.828 204.1 118.828C204.308 118.828 204.5 118.793 204.676 118.724C204.858 118.655 205.052 118.529 205.26 118.348L205.676 118.932C205.548 119.06 205.391 119.172 205.204 119.268C205.023 119.364 204.828 119.441 204.62 119.5C204.418 119.553 204.218 119.58 204.02 119.58Z" fill="#1F0D40"/>
<path d="M158.78 145.7C157.74 145.7 156.833 145.473 156.06 145.02C155.287 144.553 154.573 143.767 153.92 142.66L155.88 141.42C156.187 141.913 156.5 142.313 156.82 142.62C157.153 142.913 157.487 143.133 157.82 143.28C158.167 143.413 158.533 143.48 158.92 143.48C159.36 143.48 159.76 143.373 160.12 143.16C160.493 142.947 160.787 142.653 161 142.28C161.227 141.907 161.34 141.48 161.34 141C161.34 140.52 161.247 140.113 161.06 139.78C160.887 139.447 160.627 139.193 160.28 139.02C159.947 138.833 159.54 138.74 159.06 138.74C158.847 138.74 158.62 138.767 158.38 138.82C158.14 138.86 157.887 138.927 157.62 139.02C157.353 139.1 157.06 139.2 156.74 139.32L156.1 137.62L160.08 133.22L160.68 133.8L154.78 133.76V131.46H163L163.48 132.42L158.88 137.44L158.28 136.78C158.387 136.727 158.56 136.68 158.8 136.64C159.053 136.587 159.273 136.56 159.46 136.56C160.047 136.56 160.607 136.673 161.14 136.9C161.673 137.113 162.133 137.42 162.52 137.82C162.92 138.22 163.233 138.687 163.46 139.22C163.687 139.74 163.8 140.307 163.8 140.92C163.8 141.84 163.573 142.66 163.12 143.38C162.68 144.087 162.08 144.653 161.32 145.08C160.56 145.493 159.713 145.7 158.78 145.7ZM167.356 145.5L173.096 132.82L173.576 133.8H166.416V131.46H175.236L175.536 132.92L170.056 145.5H167.356ZM179.414 145.7C178.934 145.7 178.56 145.56 178.294 145.28C178.04 145 177.914 144.607 177.914 144.1C177.914 143.633 178.047 143.253 178.314 142.96C178.594 142.653 178.96 142.5 179.414 142.5C179.894 142.5 180.26 142.64 180.514 142.92C180.78 143.187 180.914 143.58 180.914 144.1C180.914 144.567 180.774 144.953 180.494 145.26C180.227 145.553 179.867 145.7 179.414 145.7ZM179.414 137.96C178.934 137.96 178.56 137.82 178.294 137.54C178.04 137.26 177.914 136.867 177.914 136.36C177.914 135.893 178.047 135.513 178.314 135.22C178.594 134.913 178.96 134.76 179.414 134.76C179.894 134.76 180.26 134.9 180.514 135.18C180.78 135.447 180.914 135.84 180.914 136.36C180.914 136.827 180.774 137.213 180.494 137.52C180.227 137.813 179.867 137.96 179.414 137.96ZM189.619 145.5V134.2L190.579 134.3L185.819 140.12L185.599 139.76H194.499V142.02H184.199L183.119 139.94L190.079 131.46H192.119V145.5H189.619ZM200.515 145.5L200.435 145.3L204.675 136.46L204.915 137.96C204.715 138.387 204.468 138.767 204.175 139.1C203.895 139.433 203.568 139.727 203.195 139.98C202.835 140.22 202.461 140.407 202.075 140.54C201.688 140.66 201.301 140.72 200.915 140.72C200.155 140.72 199.455 140.52 198.815 140.12C198.175 139.707 197.661 139.167 197.275 138.5C196.888 137.82 196.695 137.08 196.695 136.28C196.695 135.333 196.915 134.48 197.355 133.72C197.795 132.947 198.388 132.34 199.135 131.9C199.895 131.447 200.748 131.22 201.695 131.22C202.375 131.22 203.015 131.347 203.615 131.6C204.228 131.84 204.755 132.18 205.195 132.62C205.648 133.06 206.001 133.567 206.255 134.14C206.521 134.713 206.655 135.32 206.655 135.96C206.655 136.347 206.615 136.747 206.535 137.16C206.468 137.56 206.355 138 206.195 138.48C206.035 138.96 205.828 139.487 205.575 140.06C205.335 140.633 205.041 141.287 204.695 142.02L202.995 145.5H200.515ZM201.495 138.48C201.975 138.48 202.408 138.373 202.795 138.16C203.181 137.933 203.481 137.64 203.695 137.28C203.908 136.92 204.015 136.507 204.015 136.04C204.015 135.56 203.908 135.127 203.695 134.74C203.481 134.353 203.188 134.053 202.815 133.84C202.441 133.613 202.015 133.5 201.535 133.5C201.081 133.5 200.681 133.607 200.335 133.82C199.988 134.033 199.708 134.333 199.495 134.72C199.295 135.093 199.195 135.533 199.195 136.04C199.195 136.467 199.295 136.867 199.495 137.24C199.708 137.613 199.988 137.913 200.335 138.14C200.695 138.367 201.081 138.48 201.495 138.48Z" fill="#1F0D40"/>
<path opacity="0.4" d="M149.784 162.5V156.9H152.168C152.488 156.9 152.781 156.98 153.048 157.14C153.32 157.295 153.536 157.508 153.696 157.78C153.856 158.047 153.936 158.348 153.936 158.684C153.936 158.988 153.856 159.271 153.696 159.532C153.536 159.793 153.323 160.004 153.056 160.164C152.789 160.319 152.493 160.396 152.168 160.396H150.648V162.5H149.784ZM153.112 162.5L151.688 159.972L152.576 159.772L154.16 162.508L153.112 162.5ZM150.648 159.564H152.248C152.403 159.564 152.541 159.527 152.664 159.452C152.787 159.372 152.883 159.265 152.952 159.132C153.021 158.993 153.056 158.841 153.056 158.676C153.056 158.489 153.011 158.327 152.92 158.188C152.835 158.044 152.712 157.932 152.552 157.852C152.397 157.772 152.221 157.732 152.024 157.732H150.648V159.564ZM156.942 162.58C156.51 162.58 156.126 162.489 155.79 162.308C155.46 162.121 155.198 161.868 155.006 161.548C154.82 161.228 154.726 160.86 154.726 160.444C154.726 160.113 154.78 159.812 154.886 159.54C154.993 159.268 155.14 159.033 155.326 158.836C155.518 158.633 155.745 158.479 156.006 158.372C156.273 158.26 156.561 158.204 156.87 158.204C157.142 158.204 157.396 158.257 157.63 158.364C157.865 158.465 158.068 158.607 158.238 158.788C158.414 158.969 158.548 159.185 158.638 159.436C158.734 159.681 158.78 159.951 158.774 160.244L158.766 160.596H155.334L155.15 159.94H158.054L157.934 160.076V159.884C157.918 159.708 157.86 159.551 157.758 159.412C157.657 159.273 157.529 159.164 157.374 159.084C157.22 159.004 157.052 158.964 156.87 158.964C156.582 158.964 156.34 159.02 156.142 159.132C155.945 159.239 155.796 159.399 155.694 159.612C155.593 159.82 155.542 160.079 155.542 160.388C155.542 160.681 155.604 160.937 155.726 161.156C155.849 161.369 156.022 161.535 156.246 161.652C156.47 161.769 156.729 161.828 157.022 161.828C157.23 161.828 157.422 161.793 157.598 161.724C157.78 161.655 157.974 161.529 158.182 161.348L158.598 161.932C158.47 162.06 158.313 162.172 158.126 162.268C157.945 162.364 157.75 162.441 157.542 162.5C157.34 162.553 157.14 162.58 156.942 162.58ZM159.654 162.5V158.3H160.486V159.196L160.334 159.292C160.376 159.153 160.443 159.02 160.534 158.892C160.63 158.764 160.744 158.652 160.878 158.556C161.016 158.455 161.163 158.375 161.318 158.316C161.478 158.257 161.64 158.228 161.806 158.228C162.046 158.228 162.256 158.268 162.438 158.348C162.619 158.428 162.768 158.548 162.886 158.708C163.003 158.868 163.088 159.068 163.142 159.308L163.014 159.276L163.07 159.14C163.128 159.017 163.208 158.903 163.31 158.796C163.416 158.684 163.536 158.585 163.67 158.5C163.803 158.415 163.944 158.348 164.094 158.3C164.243 158.252 164.39 158.228 164.534 158.228C164.848 158.228 165.107 158.292 165.31 158.42C165.518 158.548 165.672 158.743 165.774 159.004C165.88 159.265 165.934 159.591 165.934 159.98V162.5H165.102V160.028C165.102 159.788 165.07 159.593 165.006 159.444C164.947 159.289 164.856 159.175 164.734 159.1C164.611 159.025 164.454 158.988 164.262 158.988C164.112 158.988 163.971 159.015 163.838 159.068C163.71 159.116 163.598 159.185 163.502 159.276C163.406 159.367 163.331 159.473 163.278 159.596C163.224 159.713 163.198 159.844 163.198 159.988V162.5H162.366V160.012C162.366 159.793 162.334 159.609 162.27 159.46C162.206 159.305 162.112 159.188 161.99 159.108C161.867 159.028 161.718 158.988 161.542 158.988C161.392 158.988 161.254 159.015 161.126 159.068C160.998 159.116 160.886 159.185 160.79 159.276C160.694 159.361 160.619 159.465 160.566 159.588C160.512 159.705 160.486 159.833 160.486 159.972V162.5H159.654ZM168.653 162.58C168.306 162.58 167.989 162.484 167.701 162.292C167.418 162.1 167.192 161.839 167.021 161.508C166.85 161.177 166.765 160.804 166.765 160.388C166.765 159.967 166.85 159.593 167.021 159.268C167.197 158.937 167.432 158.679 167.725 158.492C168.024 158.305 168.357 158.212 168.725 158.212C168.944 158.212 169.144 158.244 169.325 158.308C169.506 158.372 169.664 158.463 169.797 158.58C169.936 158.692 170.048 158.823 170.133 158.972C170.224 159.121 170.28 159.281 170.301 159.452L170.117 159.388V158.3H170.949V162.5H170.117V161.5L170.309 161.444C170.277 161.588 170.21 161.729 170.109 161.868C170.013 162.001 169.888 162.121 169.733 162.228C169.584 162.335 169.416 162.42 169.229 162.484C169.048 162.548 168.856 162.58 168.653 162.58ZM168.869 161.82C169.12 161.82 169.341 161.759 169.533 161.636C169.725 161.513 169.874 161.345 169.981 161.132C170.093 160.913 170.149 160.665 170.149 160.388C170.149 160.116 170.093 159.873 169.981 159.66C169.874 159.447 169.725 159.279 169.533 159.156C169.341 159.033 169.12 158.972 168.869 158.972C168.624 158.972 168.405 159.033 168.213 159.156C168.026 159.279 167.877 159.447 167.765 159.66C167.658 159.873 167.605 160.116 167.605 160.388C167.605 160.665 167.658 160.913 167.765 161.132C167.877 161.345 168.026 161.513 168.213 161.636C168.405 161.759 168.624 161.82 168.869 161.82ZM172.235 162.5V158.3H173.059V162.5H172.235ZM172.635 157.372C172.459 157.372 172.323 157.327 172.227 157.236C172.131 157.145 172.083 157.017 172.083 156.852C172.083 156.697 172.131 156.572 172.227 156.476C172.329 156.38 172.465 156.332 172.635 156.332C172.811 156.332 172.947 156.377 173.043 156.468C173.139 156.559 173.187 156.687 173.187 156.852C173.187 157.007 173.137 157.132 173.035 157.228C172.939 157.324 172.806 157.372 172.635 157.372ZM174.326 162.5V158.3H175.15V159.164L175.006 159.26C175.059 159.073 175.163 158.903 175.318 158.748C175.473 158.588 175.657 158.46 175.87 158.364C176.083 158.263 176.302 158.212 176.526 158.212C176.846 158.212 177.113 158.276 177.326 158.404C177.539 158.527 177.699 158.716 177.806 158.972C177.913 159.228 177.966 159.551 177.966 159.94V162.5H177.142V159.996C177.142 159.756 177.11 159.559 177.046 159.404C176.982 159.244 176.883 159.129 176.75 159.06C176.617 158.985 176.451 158.953 176.254 158.964C176.094 158.964 175.947 158.991 175.814 159.044C175.681 159.092 175.563 159.161 175.462 159.252C175.366 159.343 175.289 159.449 175.23 159.572C175.177 159.689 175.15 159.817 175.15 159.956V162.5H174.742C174.673 162.5 174.603 162.5 174.534 162.5C174.465 162.5 174.395 162.5 174.326 162.5ZM179.22 162.5V158.3H180.044V162.5H179.22ZM179.62 157.372C179.444 157.372 179.308 157.327 179.212 157.236C179.116 157.145 179.068 157.017 179.068 156.852C179.068 156.697 179.116 156.572 179.212 156.476C179.313 156.38 179.449 156.332 179.62 156.332C179.796 156.332 179.932 156.377 180.028 156.468C180.124 156.559 180.172 156.687 180.172 156.852C180.172 157.007 180.121 157.132 180.02 157.228C179.924 157.324 179.79 157.372 179.62 157.372ZM181.31 162.5V158.3H182.134V159.164L181.99 159.26C182.044 159.073 182.148 158.903 182.302 158.748C182.457 158.588 182.641 158.46 182.854 158.364C183.068 158.263 183.286 158.212 183.51 158.212C183.83 158.212 184.097 158.276 184.31 158.404C184.524 158.527 184.684 158.716 184.79 158.972C184.897 159.228 184.95 159.551 184.95 159.94V162.5H184.126V159.996C184.126 159.756 184.094 159.559 184.03 159.404C183.966 159.244 183.868 159.129 183.734 159.06C183.601 158.985 183.436 158.953 183.238 158.964C183.078 158.964 182.932 158.991 182.798 159.044C182.665 159.092 182.548 159.161 182.446 159.252C182.35 159.343 182.273 159.449 182.214 159.572C182.161 159.689 182.134 159.817 182.134 159.956V162.5H181.726C181.657 162.5 181.588 162.5 181.518 162.5C181.449 162.5 181.38 162.5 181.31 162.5ZM187.948 164.34C187.65 164.34 187.351 164.292 187.052 164.196C186.759 164.105 186.522 163.985 186.34 163.836L186.644 163.196C186.751 163.276 186.876 163.345 187.02 163.404C187.164 163.468 187.316 163.516 187.476 163.548C187.636 163.585 187.794 163.604 187.948 163.604C188.242 163.604 188.487 163.556 188.684 163.46C188.882 163.364 189.031 163.223 189.132 163.036C189.234 162.849 189.284 162.617 189.284 162.34V161.532L189.372 161.588C189.346 161.753 189.258 161.913 189.108 162.068C188.964 162.217 188.783 162.34 188.564 162.436C188.346 162.532 188.122 162.58 187.892 162.58C187.492 162.58 187.135 162.487 186.82 162.3C186.511 162.108 186.266 161.849 186.084 161.524C185.903 161.193 185.812 160.817 185.812 160.396C185.812 159.975 185.9 159.601 186.076 159.276C186.258 158.945 186.503 158.687 186.812 158.5C187.127 158.308 187.479 158.212 187.868 158.212C188.028 158.212 188.183 158.233 188.332 158.276C188.482 158.313 188.62 158.369 188.748 158.444C188.876 158.513 188.991 158.591 189.092 158.676C189.194 158.761 189.276 158.852 189.34 158.948C189.404 159.044 189.444 159.135 189.46 159.22L189.284 159.284V158.3H190.108V162.244C190.108 162.58 190.058 162.876 189.956 163.132C189.86 163.393 189.719 163.612 189.532 163.788C189.346 163.969 189.119 164.105 188.852 164.196C188.586 164.292 188.284 164.34 187.948 164.34ZM187.98 161.82C188.242 161.82 188.474 161.759 188.676 161.636C188.879 161.513 189.036 161.345 189.148 161.132C189.26 160.919 189.316 160.673 189.316 160.396C189.316 160.119 189.258 159.873 189.14 159.66C189.028 159.441 188.871 159.271 188.668 159.148C188.471 159.025 188.242 158.964 187.98 158.964C187.724 158.964 187.495 159.028 187.292 159.156C187.095 159.279 186.938 159.449 186.82 159.668C186.708 159.881 186.652 160.124 186.652 160.396C186.652 160.668 186.708 160.913 186.82 161.132C186.938 161.345 187.095 161.513 187.292 161.636C187.495 161.759 187.724 161.82 187.98 161.82ZM194.778 162.5V157.732H193.21V156.9H197.258V157.732H195.642V162.5H194.778ZM198.251 162.5V158.3H199.075V162.5H198.251ZM198.651 157.372C198.475 157.372 198.339 157.327 198.243 157.236C198.147 157.145 198.099 157.017 198.099 156.852C198.099 156.697 198.147 156.572 198.243 156.476C198.344 156.38 198.48 156.332 198.651 156.332C198.827 156.332 198.963 156.377 199.059 156.468C199.155 156.559 199.203 156.687 199.203 156.852C199.203 157.007 199.152 157.132 199.051 157.228C198.955 157.324 198.822 157.372 198.651 157.372ZM200.326 162.5V158.3H201.158V159.196L201.006 159.292C201.048 159.153 201.115 159.02 201.206 158.892C201.302 158.764 201.416 158.652 201.55 158.556C201.688 158.455 201.835 158.375 201.99 158.316C202.15 158.257 202.312 158.228 202.478 158.228C202.718 158.228 202.928 158.268 203.11 158.348C203.291 158.428 203.44 158.548 203.558 158.708C203.675 158.868 203.76 159.068 203.814 159.308L203.686 159.276L203.742 159.14C203.8 159.017 203.88 158.903 203.982 158.796C204.088 158.684 204.208 158.585 204.342 158.5C204.475 158.415 204.616 158.348 204.766 158.3C204.915 158.252 205.062 158.228 205.206 158.228C205.52 158.228 205.779 158.292 205.982 158.42C206.19 158.548 206.344 158.743 206.446 159.004C206.552 159.265 206.606 159.591 206.606 159.98V162.5H205.774V160.028C205.774 159.788 205.742 159.593 205.678 159.444C205.619 159.289 205.528 159.175 205.406 159.1C205.283 159.025 205.126 158.988 204.934 158.988C204.784 158.988 204.643 159.015 204.51 159.068C204.382 159.116 204.27 159.185 204.174 159.276C204.078 159.367 204.003 159.473 203.95 159.596C203.896 159.713 203.87 159.844 203.87 159.988V162.5H203.038V160.012C203.038 159.793 203.006 159.609 202.942 159.46C202.878 159.305 202.784 159.188 202.662 159.108C202.539 159.028 202.39 158.988 202.214 158.988C202.064 158.988 201.926 159.015 201.798 159.068C201.67 159.116 201.558 159.185 201.462 159.276C201.366 159.361 201.291 159.465 201.238 159.588C201.184 159.705 201.158 159.833 201.158 159.972V162.5H200.326ZM209.669 162.58C209.237 162.58 208.853 162.489 208.517 162.308C208.186 162.121 207.925 161.868 207.733 161.548C207.546 161.228 207.453 160.86 207.453 160.444C207.453 160.113 207.506 159.812 207.613 159.54C207.719 159.268 207.866 159.033 208.053 158.836C208.245 158.633 208.471 158.479 208.733 158.372C208.999 158.26 209.287 158.204 209.597 158.204C209.869 158.204 210.122 158.257 210.357 158.364C210.591 158.465 210.794 158.607 210.965 158.788C211.141 158.969 211.274 159.185 211.365 159.436C211.461 159.681 211.506 159.951 211.501 160.244L211.493 160.596H208.061L207.877 159.94H210.781L210.661 160.076V159.884C210.645 159.708 210.586 159.551 210.485 159.412C210.383 159.273 210.255 159.164 210.101 159.084C209.946 159.004 209.778 158.964 209.597 158.964C209.309 158.964 209.066 159.02 208.869 159.132C208.671 159.239 208.522 159.399 208.421 159.612C208.319 159.82 208.269 160.079 208.269 160.388C208.269 160.681 208.33 160.937 208.453 161.156C208.575 161.369 208.749 161.535 208.973 161.652C209.197 161.769 209.455 161.828 209.749 161.828C209.957 161.828 210.149 161.793 210.325 161.724C210.506 161.655 210.701 161.529 210.909 161.348L211.325 161.932C211.197 162.06 211.039 162.172 210.853 162.268C210.671 162.364 210.477 162.441 210.269 162.5C210.066 162.553 209.866 162.58 209.669 162.58Z" fill="#1F0D40"/>
<path d="M169.65 178.01V172.33L170.02 172.81L168.6 173.53L168.31 172.39L170.22 171.4H170.94V178.01H169.65ZM168.48 178.5V177.3H172.14V178.5H168.48ZM173.935 178.5L173.605 177.68L175.705 175.33C175.825 175.21 175.948 175.073 176.075 174.92C176.201 174.76 176.321 174.597 176.435 174.43C176.555 174.257 176.651 174.09 176.725 173.93C176.798 173.763 176.835 173.61 176.835 173.47C176.835 173.29 176.795 173.133 176.715 173C176.641 172.867 176.535 172.763 176.395 172.69C176.255 172.617 176.081 172.58 175.875 172.58C175.695 172.58 175.518 172.633 175.345 172.74C175.178 172.84 175.021 172.987 174.875 173.18C174.735 173.367 174.618 173.59 174.525 173.85L173.545 173.27C173.665 172.883 173.845 172.55 174.085 172.27C174.331 171.983 174.618 171.763 174.945 171.61C175.278 171.457 175.638 171.38 176.025 171.38C176.425 171.38 176.781 171.463 177.095 171.63C177.408 171.797 177.655 172.027 177.835 172.32C178.021 172.613 178.115 172.957 178.115 173.35C178.115 173.497 178.098 173.65 178.065 173.81C178.031 173.963 177.978 174.127 177.905 174.3C177.838 174.467 177.748 174.643 177.635 174.83C177.521 175.01 177.385 175.2 177.225 175.4C177.071 175.6 176.895 175.81 176.695 176.03L175.105 177.76L174.905 177.3H178.365V178.5H173.935ZM180.193 178.6C179.953 178.6 179.766 178.53 179.633 178.39C179.506 178.25 179.443 178.053 179.443 177.8C179.443 177.567 179.51 177.377 179.643 177.23C179.783 177.077 179.966 177 180.193 177C180.433 177 180.616 177.07 180.743 177.21C180.876 177.343 180.943 177.54 180.943 177.8C180.943 178.033 180.873 178.227 180.733 178.38C180.6 178.527 180.42 178.6 180.193 178.6ZM180.193 174.73C179.953 174.73 179.766 174.66 179.633 174.52C179.506 174.38 179.443 174.183 179.443 173.93C179.443 173.697 179.51 173.507 179.643 173.36C179.783 173.207 179.966 173.13 180.193 173.13C180.433 173.13 180.616 173.2 180.743 173.34C180.876 173.473 180.943 173.67 180.943 173.93C180.943 174.163 180.873 174.357 180.733 174.51C180.6 174.657 180.42 174.73 180.193 174.73ZM184.446 178.57C183.959 178.57 183.519 178.467 183.126 178.26C182.733 178.047 182.406 177.74 182.146 177.34L182.866 176.56C183.159 176.887 183.423 177.113 183.656 177.24C183.889 177.36 184.146 177.42 184.426 177.42C184.679 177.42 184.906 177.367 185.106 177.26C185.306 177.147 185.466 176.997 185.586 176.81C185.706 176.617 185.766 176.407 185.766 176.18C185.766 175.933 185.709 175.717 185.596 175.53C185.483 175.337 185.329 175.183 185.136 175.07C184.943 174.957 184.723 174.9 184.476 174.9C184.343 174.9 184.216 174.91 184.096 174.93C183.976 174.95 183.836 174.99 183.676 175.05C183.523 175.11 183.326 175.203 183.086 175.33L182.466 174.49L182.876 171.48H186.746V172.63H183.606L183.896 172.31L183.566 174.53L183.196 174.27C183.283 174.19 183.409 174.113 183.576 174.04C183.749 173.967 183.936 173.907 184.136 173.86C184.336 173.813 184.533 173.79 184.726 173.79C185.159 173.79 185.546 173.89 185.886 174.09C186.226 174.29 186.496 174.567 186.696 174.92C186.896 175.267 186.996 175.667 186.996 176.12C186.996 176.58 186.883 176.997 186.656 177.37C186.436 177.737 186.133 178.03 185.746 178.25C185.359 178.463 184.926 178.57 184.446 178.57ZM190.117 178.01V172.33L190.487 172.81L189.067 173.53L188.777 172.39L190.687 171.4H191.407V178.01H190.117ZM188.947 178.5V177.3H192.607V178.5H188.947Z" fill="#1F0D40"/>
</g>
<path d="M179.962 87C168.099 87.0075 156.503 90.5318 146.642 97.1275C136.781 103.723 129.097 113.094 124.56 124.056C120.023 135.018 118.838 147.079 121.155 158.715C123.471 170.35 129.185 181.038 137.574 189.426" stroke="url(#paint0_linear_2840_3331)" stroke-width="4" stroke-linecap="round"/>
<g filter="url(#filter2_d_2840_3331)">
<circle cx="180.098" cy="87.0981" r="3" transform="rotate(-150 180.098 87.0981)" fill="white"/>
<circle cx="180.098" cy="87.0981" r="5" transform="rotate(-150 180.098 87.0981)" stroke="#FF8B33" stroke-width="4"/>
</g>
<path d="M139.976 219L142.846 212.66L143.086 213.15H139.506V211.98H143.916L144.066 212.71L141.326 219H139.976ZM147.075 219.07C146.588 219.07 146.148 218.967 145.755 218.76C145.362 218.547 145.035 218.24 144.775 217.84L145.495 217.06C145.788 217.387 146.052 217.613 146.285 217.74C146.518 217.86 146.775 217.92 147.055 217.92C147.308 217.92 147.535 217.867 147.735 217.76C147.935 217.647 148.095 217.497 148.215 217.31C148.335 217.117 148.395 216.907 148.395 216.68C148.395 216.433 148.338 216.217 148.225 216.03C148.112 215.837 147.958 215.683 147.765 215.57C147.572 215.457 147.352 215.4 147.105 215.4C146.972 215.4 146.845 215.41 146.725 215.43C146.605 215.45 146.465 215.49 146.305 215.55C146.152 215.61 145.955 215.703 145.715 215.83L145.095 214.99L145.505 211.98H149.375V213.13H146.235L146.525 212.81L146.195 215.03L145.825 214.77C145.912 214.69 146.038 214.613 146.205 214.54C146.378 214.467 146.565 214.407 146.765 214.36C146.965 214.313 147.162 214.29 147.355 214.29C147.788 214.29 148.175 214.39 148.515 214.59C148.855 214.79 149.125 215.067 149.325 215.42C149.525 215.767 149.625 216.167 149.625 216.62C149.625 217.08 149.512 217.497 149.285 217.87C149.065 218.237 148.762 218.53 148.375 218.75C147.988 218.963 147.555 219.07 147.075 219.07ZM151.636 219L156.266 212H157.456L152.776 219H151.636ZM152.206 215.71C151.893 215.71 151.613 215.627 151.366 215.46C151.126 215.293 150.936 215.067 150.796 214.78C150.663 214.493 150.596 214.167 150.596 213.8C150.596 213.427 150.663 213.097 150.796 212.81C150.936 212.517 151.126 212.287 151.366 212.12C151.613 211.953 151.896 211.87 152.216 211.87C152.53 211.87 152.806 211.953 153.046 212.12C153.293 212.287 153.483 212.517 153.616 212.81C153.756 213.097 153.826 213.427 153.826 213.8C153.826 214.16 153.756 214.487 153.616 214.78C153.476 215.067 153.283 215.293 153.036 215.46C152.79 215.627 152.513 215.71 152.206 215.71ZM152.216 214.86C152.343 214.86 152.453 214.817 152.546 214.73C152.64 214.643 152.713 214.523 152.766 214.37C152.82 214.21 152.846 214.02 152.846 213.8C152.846 213.58 152.82 213.39 152.766 213.23C152.713 213.07 152.64 212.947 152.546 212.86C152.453 212.773 152.34 212.73 152.206 212.73C152.08 212.73 151.966 212.777 151.866 212.87C151.773 212.957 151.7 213.08 151.646 213.24C151.593 213.393 151.566 213.58 151.566 213.8C151.566 214.02 151.59 214.21 151.636 214.37C151.69 214.523 151.766 214.643 151.866 214.73C151.966 214.817 152.083 214.86 152.216 214.86ZM156.956 219.09C156.643 219.09 156.363 219.007 156.116 218.84C155.876 218.673 155.686 218.447 155.546 218.16C155.406 217.873 155.336 217.547 155.336 217.18C155.336 216.807 155.403 216.477 155.536 216.19C155.676 215.897 155.87 215.667 156.116 215.5C156.363 215.333 156.643 215.25 156.956 215.25C157.276 215.25 157.556 215.333 157.796 215.5C158.036 215.667 158.223 215.897 158.356 216.19C158.496 216.477 158.566 216.807 158.566 217.18C158.566 217.54 158.496 217.867 158.356 218.16C158.216 218.447 158.023 218.673 157.776 218.84C157.536 219.007 157.263 219.09 156.956 219.09ZM156.956 218.25C157.083 218.25 157.193 218.207 157.286 218.12C157.386 218.027 157.463 217.903 157.516 217.75C157.57 217.59 157.596 217.4 157.596 217.18C157.596 216.967 157.57 216.78 157.516 216.62C157.463 216.46 157.386 216.337 157.286 216.25C157.193 216.157 157.083 216.11 156.956 216.11C156.823 216.11 156.706 216.153 156.606 216.24C156.513 216.327 156.44 216.453 156.386 216.62C156.333 216.78 156.306 216.967 156.306 217.18C156.306 217.4 156.333 217.59 156.386 217.75C156.44 217.903 156.513 218.027 156.606 218.12C156.706 218.207 156.823 218.25 156.956 218.25Z" fill="#1F0D40"/>
<path opacity="0.4" d="M132.742 228.06C132.438 228.06 132.16 228.008 131.908 227.904C131.656 227.8 131.438 227.652 131.254 227.46C131.07 227.264 130.926 227.034 130.822 226.77C130.722 226.502 130.672 226.21 130.672 225.894C130.672 225.59 130.726 225.308 130.834 225.048C130.942 224.788 131.092 224.56 131.284 224.364C131.476 224.168 131.7 224.016 131.956 223.908C132.212 223.8 132.49 223.746 132.79 223.746C132.994 223.746 133.192 223.776 133.384 223.836C133.576 223.896 133.752 223.98 133.912 224.088C134.072 224.192 134.206 224.314 134.314 224.454L133.816 225C133.712 224.892 133.604 224.802 133.492 224.73C133.384 224.654 133.27 224.598 133.15 224.562C133.034 224.522 132.914 224.502 132.79 224.502C132.606 224.502 132.432 224.536 132.268 224.604C132.108 224.672 131.968 224.768 131.848 224.892C131.732 225.016 131.64 225.164 131.572 225.336C131.504 225.504 131.47 225.692 131.47 225.9C131.47 226.112 131.502 226.304 131.566 226.476C131.634 226.648 131.728 226.796 131.848 226.92C131.972 227.044 132.118 227.14 132.286 227.208C132.458 227.272 132.646 227.304 132.85 227.304C132.982 227.304 133.11 227.286 133.234 227.25C133.358 227.214 133.472 227.164 133.576 227.1C133.684 227.032 133.782 226.954 133.87 226.866L134.254 227.484C134.158 227.592 134.03 227.69 133.87 227.778C133.71 227.866 133.53 227.936 133.33 227.988C133.134 228.036 132.938 228.06 132.742 228.06ZM136.874 228.06C136.574 228.06 136.296 228.006 136.04 227.898C135.784 227.79 135.56 227.64 135.368 227.448C135.18 227.252 135.034 227.022 134.93 226.758C134.826 226.494 134.774 226.206 134.774 225.894C134.774 225.582 134.826 225.294 134.93 225.03C135.034 224.766 135.18 224.538 135.368 224.346C135.56 224.15 135.784 223.998 136.04 223.89C136.296 223.782 136.574 223.728 136.874 223.728C137.178 223.728 137.458 223.782 137.714 223.89C137.97 223.998 138.192 224.15 138.38 224.346C138.568 224.542 138.714 224.772 138.818 225.036C138.922 225.296 138.974 225.582 138.974 225.894C138.974 226.202 138.922 226.488 138.818 226.752C138.714 227.016 138.568 227.246 138.38 227.442C138.192 227.638 137.97 227.79 137.714 227.898C137.458 228.006 137.178 228.06 136.874 228.06ZM136.874 227.316C137.066 227.316 137.24 227.282 137.396 227.214C137.556 227.142 137.694 227.042 137.81 226.914C137.926 226.782 138.016 226.63 138.08 226.458C138.148 226.286 138.182 226.098 138.182 225.894C138.182 225.69 138.148 225.502 138.08 225.33C138.016 225.158 137.926 225.008 137.81 224.88C137.694 224.748 137.556 224.648 137.396 224.58C137.24 224.508 137.066 224.472 136.874 224.472C136.686 224.472 136.512 224.508 136.352 224.58C136.192 224.648 136.054 224.746 135.938 224.874C135.822 225.002 135.732 225.152 135.668 225.324C135.604 225.496 135.572 225.686 135.572 225.894C135.572 226.098 135.604 226.288 135.668 226.464C135.732 226.636 135.822 226.786 135.938 226.914C136.054 227.042 136.192 227.142 136.352 227.214C136.512 227.282 136.686 227.316 136.874 227.316ZM139.82 228V223.8H140.558L142.088 226.29L141.656 226.284L143.204 223.8H143.906V228H143.132V226.422C143.132 226.062 143.14 225.738 143.156 225.45C143.176 225.162 143.208 224.876 143.252 224.592L143.348 224.85L142.046 226.86H141.65L140.39 224.868L140.474 224.592C140.518 224.86 140.548 225.136 140.564 225.42C140.584 225.7 140.594 226.034 140.594 226.422V228H139.82ZM145.035 228V223.8H146.781C147.021 223.8 147.237 223.858 147.429 223.974C147.625 224.09 147.781 224.248 147.897 224.448C148.013 224.648 148.071 224.872 148.071 225.12C148.071 225.372 148.013 225.6 147.897 225.804C147.781 226.004 147.625 226.164 147.429 226.284C147.237 226.404 147.021 226.464 146.781 226.464H145.815V228H145.035ZM145.815 225.744H146.727C146.827 225.744 146.917 225.716 146.997 225.66C147.081 225.604 147.147 225.53 147.195 225.438C147.247 225.346 147.273 225.242 147.273 225.126C147.273 225.01 147.247 224.908 147.195 224.82C147.147 224.728 147.081 224.656 146.997 224.604C146.917 224.548 146.827 224.52 146.727 224.52H145.815V225.744ZM148.896 228V223.8H149.676V227.28H151.614V228H148.896ZM152.505 228V223.8H155.253V224.508H153.273V227.292H155.277V228H152.505ZM152.865 226.2V225.504H154.947V226.2H152.865ZM157.095 228V224.52H155.895V223.8H159.111V224.52H157.875V228H157.095ZM159.877 228V223.8H162.625V224.508H160.645V227.292H162.649V228H159.877ZM160.237 226.2V225.504H162.319V226.2H160.237ZM163.627 228V223.8H165.313C165.617 223.8 165.891 223.85 166.135 223.95C166.383 224.05 166.595 224.194 166.771 224.382C166.951 224.57 167.087 224.792 167.179 225.048C167.275 225.304 167.323 225.588 167.323 225.9C167.323 226.212 167.275 226.498 167.179 226.758C167.087 227.014 166.953 227.236 166.777 227.424C166.601 227.608 166.389 227.75 166.141 227.85C165.893 227.95 165.617 228 165.313 228H163.627ZM164.407 227.394L164.347 227.28H165.283C165.479 227.28 165.653 227.248 165.805 227.184C165.961 227.12 166.093 227.028 166.201 226.908C166.309 226.788 166.391 226.644 166.447 226.476C166.503 226.304 166.531 226.112 166.531 225.9C166.531 225.688 166.503 225.498 166.447 225.33C166.391 225.158 166.307 225.012 166.195 224.892C166.087 224.772 165.957 224.68 165.805 224.616C165.653 224.552 165.479 224.52 165.283 224.52H164.329L164.407 224.418V227.394Z" fill="#1F0D40"/>
<path opacity="0.08" d="M180 209L180 230" stroke="#1F0D40" stroke-linecap="round" stroke-linejoin="round"/>
<path d="M201.756 219L201.426 218.18L203.526 215.83C203.646 215.71 203.77 215.573 203.896 215.42C204.023 215.26 204.143 215.097 204.256 214.93C204.376 214.757 204.473 214.59 204.546 214.43C204.62 214.263 204.656 214.11 204.656 213.97C204.656 213.79 204.616 213.633 204.536 213.5C204.463 213.367 204.356 213.263 204.216 213.19C204.076 213.117 203.903 213.08 203.696 213.08C203.516 213.08 203.34 213.133 203.166 213.24C203 213.34 202.843 213.487 202.696 213.68C202.556 213.867 202.44 214.09 202.346 214.35L201.366 213.77C201.486 213.383 201.666 213.05 201.906 212.77C202.153 212.483 202.44 212.263 202.766 212.11C203.1 211.957 203.46 211.88 203.846 211.88C204.246 211.88 204.603 211.963 204.916 212.13C205.23 212.297 205.476 212.527 205.656 212.82C205.843 213.113 205.936 213.457 205.936 213.85C205.936 213.997 205.92 214.15 205.886 214.31C205.853 214.463 205.8 214.627 205.726 214.8C205.66 214.967 205.57 215.143 205.456 215.33C205.343 215.51 205.206 215.7 205.046 215.9C204.893 216.1 204.716 216.31 204.516 216.53L202.926 218.26L202.726 217.8H206.186V219H201.756ZM209.085 219.07C208.598 219.07 208.158 218.967 207.765 218.76C207.371 218.547 207.045 218.24 206.785 217.84L207.505 217.06C207.798 217.387 208.061 217.613 208.295 217.74C208.528 217.86 208.785 217.92 209.065 217.92C209.318 217.92 209.545 217.867 209.745 217.76C209.945 217.647 210.105 217.497 210.225 217.31C210.345 217.117 210.405 216.907 210.405 216.68C210.405 216.433 210.348 216.217 210.235 216.03C210.121 215.837 209.968 215.683 209.775 215.57C209.581 215.457 209.361 215.4 209.115 215.4C208.981 215.4 208.855 215.41 208.735 215.43C208.615 215.45 208.475 215.49 208.315 215.55C208.161 215.61 207.965 215.703 207.725 215.83L207.105 214.99L207.515 211.98H211.385V213.13H208.245L208.535 212.81L208.205 215.03L207.835 214.77C207.921 214.69 208.048 214.613 208.215 214.54C208.388 214.467 208.575 214.407 208.775 214.36C208.975 214.313 209.171 214.29 209.365 214.29C209.798 214.29 210.185 214.39 210.525 214.59C210.865 214.79 211.135 215.067 211.335 215.42C211.535 215.767 211.635 216.167 211.635 216.62C211.635 217.08 211.521 217.497 211.295 217.87C211.075 218.237 210.771 218.53 210.385 218.75C209.998 218.963 209.565 219.07 209.085 219.07ZM213.646 219L218.276 212H219.466L214.786 219H213.646ZM214.216 215.71C213.903 215.71 213.623 215.627 213.376 215.46C213.136 215.293 212.946 215.067 212.806 214.78C212.673 214.493 212.606 214.167 212.606 213.8C212.606 213.427 212.673 213.097 212.806 212.81C212.946 212.517 213.136 212.287 213.376 212.12C213.623 211.953 213.906 211.87 214.226 211.87C214.539 211.87 214.816 211.953 215.056 212.12C215.303 212.287 215.493 212.517 215.626 212.81C215.766 213.097 215.836 213.427 215.836 213.8C215.836 214.16 215.766 214.487 215.626 214.78C215.486 215.067 215.293 215.293 215.046 215.46C214.799 215.627 214.523 215.71 214.216 215.71ZM214.226 214.86C214.353 214.86 214.463 214.817 214.556 214.73C214.649 214.643 214.723 214.523 214.776 214.37C214.829 214.21 214.856 214.02 214.856 213.8C214.856 213.58 214.829 213.39 214.776 213.23C214.723 213.07 214.649 212.947 214.556 212.86C214.463 212.773 214.349 212.73 214.216 212.73C214.089 212.73 213.976 212.777 213.876 212.87C213.783 212.957 213.709 213.08 213.656 213.24C213.603 213.393 213.576 213.58 213.576 213.8C213.576 214.02 213.599 214.21 213.646 214.37C213.699 214.523 213.776 214.643 213.876 214.73C213.976 214.817 214.093 214.86 214.226 214.86ZM218.966 219.09C218.653 219.09 218.373 219.007 218.126 218.84C217.886 218.673 217.696 218.447 217.556 218.16C217.416 217.873 217.346 217.547 217.346 217.18C217.346 216.807 217.413 216.477 217.546 216.19C217.686 215.897 217.879 215.667 218.126 215.5C218.373 215.333 218.653 215.25 218.966 215.25C219.286 215.25 219.566 215.333 219.806 215.5C220.046 215.667 220.233 215.897 220.366 216.19C220.506 216.477 220.576 216.807 220.576 217.18C220.576 217.54 220.506 217.867 220.366 218.16C220.226 218.447 220.033 218.673 219.786 218.84C219.546 219.007 219.273 219.09 218.966 219.09ZM218.966 218.25C219.093 218.25 219.203 218.207 219.296 218.12C219.396 218.027 219.473 217.903 219.526 217.75C219.579 217.59 219.606 217.4 219.606 217.18C219.606 216.967 219.579 216.78 219.526 216.62C219.473 216.46 219.396 216.337 219.296 216.25C219.203 216.157 219.093 216.11 218.966 216.11C218.833 216.11 218.716 216.153 218.616 216.24C218.523 216.327 218.449 216.453 218.396 216.62C218.343 216.78 218.316 216.967 218.316 217.18C218.316 217.4 218.343 217.59 218.396 217.75C218.449 217.903 218.523 218.027 218.616 218.12C218.716 218.207 218.833 218.25 218.966 218.25Z" fill="#1F0D40"/>
<path opacity="0.4" d="M192.764 228V223.8H194.588C194.84 223.8 195.07 223.86 195.278 223.98C195.486 224.096 195.65 224.256 195.77 224.46C195.894 224.66 195.956 224.886 195.956 225.138C195.956 225.378 195.894 225.6 195.77 225.804C195.65 226.004 195.486 226.164 195.278 226.284C195.074 226.4 194.844 226.458 194.588 226.458H193.526V228H192.764ZM195.2 228L194.132 226.104L194.936 225.954L196.124 228.006L195.2 228ZM193.526 225.78H194.594C194.71 225.78 194.81 225.754 194.894 225.702C194.982 225.646 195.05 225.57 195.098 225.474C195.146 225.378 195.17 225.272 195.17 225.156C195.17 225.024 195.14 224.91 195.08 224.814C195.02 224.718 194.936 224.642 194.828 224.586C194.72 224.53 194.596 224.502 194.456 224.502H193.526V225.78ZM196.948 228V223.8H199.696V224.508H197.716V227.292H199.72V228H196.948ZM197.308 226.2V225.504H199.39V226.2H197.308ZM200.698 228V223.8H201.436L202.966 226.29L202.534 226.284L204.082 223.8H204.784V228H204.01V226.422C204.01 226.062 204.018 225.738 204.034 225.45C204.054 225.162 204.086 224.876 204.13 224.592L204.226 224.85L202.924 226.86H202.528L201.268 224.868L201.352 224.592C201.396 224.86 201.426 225.136 201.442 225.42C201.462 225.7 201.472 226.034 201.472 226.422V228H200.698ZM205.445 228L207.083 223.8H207.815L209.441 228H208.631L207.731 225.612C207.711 225.564 207.683 225.488 207.647 225.384C207.615 225.28 207.579 225.168 207.539 225.048C207.499 224.924 207.463 224.81 207.431 224.706C207.399 224.598 207.375 224.52 207.359 224.472L207.509 224.466C207.485 224.546 207.457 224.636 207.425 224.736C207.393 224.836 207.359 224.94 207.323 225.048C207.287 225.156 207.251 225.26 207.215 225.36C207.183 225.46 207.153 225.55 207.125 225.63L206.225 228H205.445ZM206.189 227.04L206.459 226.362H208.373L208.661 227.04H206.189ZM209.976 228V227.31H210.666V224.49H209.976V223.8H212.136V224.49H211.446V227.31H212.136V228H209.976ZM213.131 228V223.8H213.833L216.269 227.082L216.137 227.106C216.121 226.994 216.107 226.88 216.095 226.764C216.083 226.644 216.071 226.52 216.059 226.392C216.051 226.264 216.043 226.13 216.035 225.99C216.031 225.85 216.027 225.704 216.023 225.552C216.019 225.396 216.017 225.232 216.017 225.06V223.8H216.791V228H216.077L213.629 224.766L213.785 224.724C213.805 224.948 213.821 225.14 213.833 225.3C213.849 225.456 213.861 225.592 213.869 225.708C213.877 225.82 213.883 225.914 213.887 225.99C213.895 226.066 213.899 226.136 213.899 226.2C213.903 226.26 213.905 226.318 213.905 226.374V228H213.131ZM217.792 228V227.31H218.482V224.49H217.792V223.8H219.952V224.49H219.262V227.31H219.952V228H217.792ZM220.948 228V223.8H221.65L224.086 227.082L223.954 227.106C223.938 226.994 223.924 226.88 223.912 226.764C223.9 226.644 223.888 226.52 223.876 226.392C223.868 226.264 223.86 226.13 223.852 225.99C223.848 225.85 223.844 225.704 223.84 225.552C223.836 225.396 223.834 225.232 223.834 225.06V223.8H224.608V228H223.894L221.446 224.766L221.602 224.724C221.622 224.948 221.638 225.14 221.65 225.3C221.666 225.456 221.678 225.592 221.686 225.708C221.694 225.82 221.7 225.914 221.704 225.99C221.712 226.066 221.716 226.136 221.716 226.2C221.72 226.26 221.722 226.318 221.722 226.374V228H220.948ZM227.643 228.06C227.327 228.06 227.035 228.006 226.767 227.898C226.499 227.786 226.265 227.632 226.065 227.436C225.869 227.24 225.717 227.012 225.609 226.752C225.501 226.488 225.447 226.202 225.447 225.894C225.447 225.59 225.501 225.308 225.609 225.048C225.721 224.784 225.877 224.556 226.077 224.364C226.277 224.168 226.511 224.016 226.779 223.908C227.051 223.8 227.343 223.746 227.655 223.746C227.875 223.746 228.087 223.776 228.291 223.836C228.495 223.896 228.679 223.98 228.843 224.088C229.007 224.196 229.143 224.318 229.251 224.454L228.759 224.97C228.647 224.862 228.531 224.772 228.411 224.7C228.295 224.628 228.173 224.572 228.045 224.532C227.917 224.492 227.785 224.472 227.649 224.472C227.449 224.472 227.263 224.508 227.091 224.58C226.923 224.652 226.775 224.752 226.647 224.88C226.523 225.008 226.425 225.158 226.353 225.33C226.281 225.502 226.245 225.69 226.245 225.894C226.245 226.09 226.281 226.276 226.353 226.452C226.429 226.628 226.533 226.782 226.665 226.914C226.797 227.046 226.949 227.15 227.121 227.226C227.297 227.298 227.483 227.334 227.679 227.334C227.827 227.334 227.965 227.312 228.093 227.268C228.221 227.224 228.335 227.164 228.435 227.088C228.535 227.008 228.611 226.916 228.663 226.812C228.719 226.708 228.747 226.596 228.747 226.476V226.344L228.855 226.47H227.613V225.774H229.515C229.523 225.818 229.529 225.868 229.533 225.924C229.537 225.976 229.539 226.028 229.539 226.08C229.543 226.128 229.545 226.17 229.545 226.206C229.545 226.482 229.497 226.734 229.401 226.962C229.305 227.186 229.169 227.38 228.993 227.544C228.821 227.708 228.619 227.836 228.387 227.928C228.159 228.016 227.911 228.06 227.643 228.06Z" fill="#1F0D40"/>
<path d="M133 259.5H135V252.5H133M129 259.5H131V252.5H129V259.5Z" fill="#1F0D40"/>
<rect x="122.25" y="246.25" width="19.5" height="19.5" rx="9.75" stroke="#1F0D40" stroke-width="0.5"/>
<path opacity="0.4" d="M123.699 274V269.8H125.445C125.685 269.8 125.901 269.858 126.093 269.974C126.289 270.09 126.445 270.248 126.561 270.448C126.677 270.648 126.735 270.872 126.735 271.12C126.735 271.372 126.677 271.6 126.561 271.804C126.445 272.004 126.289 272.164 126.093 272.284C125.901 272.404 125.685 272.464 125.445 272.464H124.479V274H123.699ZM124.479 271.744H125.391C125.491 271.744 125.581 271.716 125.661 271.66C125.745 271.604 125.811 271.53 125.859 271.438C125.911 271.346 125.937 271.242 125.937 271.126C125.937 271.01 125.911 270.908 125.859 270.82C125.811 270.728 125.745 270.656 125.661 270.604C125.581 270.548 125.491 270.52 125.391 270.52H124.479V271.744ZM128.564 274.06C128.304 274.06 128.068 273.988 127.856 273.844C127.644 273.7 127.474 273.504 127.346 273.256C127.218 273.008 127.154 272.726 127.154 272.41C127.154 272.094 127.218 271.812 127.346 271.564C127.474 271.316 127.648 271.122 127.868 270.982C128.088 270.842 128.336 270.772 128.612 270.772C128.772 270.772 128.918 270.796 129.05 270.844C129.182 270.888 129.298 270.952 129.398 271.036C129.498 271.12 129.58 271.216 129.644 271.324C129.712 271.432 129.758 271.548 129.782 271.672L129.62 271.63V270.838H130.364V274H129.614V273.244L129.788 273.214C129.76 273.322 129.708 273.428 129.632 273.532C129.56 273.632 129.468 273.722 129.356 273.802C129.248 273.878 129.126 273.94 128.99 273.988C128.858 274.036 128.716 274.06 128.564 274.06ZM128.768 273.406C128.94 273.406 129.092 273.364 129.224 273.28C129.356 273.196 129.458 273.08 129.53 272.932C129.606 272.78 129.644 272.606 129.644 272.41C129.644 272.218 129.606 272.048 129.53 271.9C129.458 271.752 129.356 271.636 129.224 271.552C129.092 271.468 128.94 271.426 128.768 271.426C128.596 271.426 128.444 271.468 128.312 271.552C128.184 271.636 128.084 271.752 128.012 271.9C127.94 272.048 127.904 272.218 127.904 272.41C127.904 272.606 127.94 272.78 128.012 272.932C128.084 273.08 128.184 273.196 128.312 273.28C128.444 273.364 128.596 273.406 128.768 273.406ZM132.259 274.06C132.031 274.06 131.833 274.01 131.665 273.91C131.497 273.806 131.369 273.66 131.281 273.472C131.193 273.28 131.149 273.052 131.149 272.788V270.838H131.887V272.632C131.887 272.8 131.913 272.944 131.965 273.064C132.017 273.18 132.093 273.27 132.193 273.334C132.293 273.398 132.413 273.43 132.553 273.43C132.657 273.43 132.751 273.414 132.835 273.382C132.923 273.346 132.999 273.298 133.063 273.238C133.127 273.174 133.177 273.1 133.213 273.016C133.249 272.928 133.267 272.834 133.267 272.734V270.838H134.005V274H133.285L133.273 273.34L133.405 273.268C133.357 273.42 133.275 273.556 133.159 273.676C133.047 273.792 132.913 273.886 132.757 273.958C132.601 274.026 132.435 274.06 132.259 274.06ZM135.926 274.06C135.646 274.06 135.394 274.014 135.17 273.922C134.95 273.826 134.77 273.69 134.63 273.514L135.11 273.1C135.23 273.236 135.364 273.334 135.512 273.394C135.66 273.454 135.816 273.484 135.979 273.484C136.048 273.484 136.108 273.476 136.16 273.46C136.216 273.444 136.264 273.42 136.304 273.388C136.344 273.356 136.374 273.32 136.394 273.28C136.418 273.236 136.43 273.188 136.43 273.136C136.43 273.04 136.394 272.964 136.322 272.908C136.282 272.88 136.218 272.85 136.13 272.818C136.046 272.786 135.936 272.754 135.8 272.722C135.584 272.666 135.404 272.602 135.26 272.53C135.116 272.454 135.004 272.37 134.924 272.278C134.856 272.202 134.804 272.116 134.768 272.02C134.736 271.924 134.72 271.82 134.72 271.708C134.72 271.568 134.75 271.442 134.81 271.33C134.874 271.214 134.96 271.114 135.068 271.03C135.176 270.946 135.302 270.882 135.446 270.838C135.59 270.794 135.74 270.772 135.896 270.772C136.056 270.772 136.21 270.792 136.358 270.832C136.51 270.872 136.65 270.93 136.778 271.006C136.91 271.078 137.022 271.166 137.114 271.27L136.706 271.72C136.63 271.648 136.546 271.584 136.454 271.528C136.366 271.472 136.276 271.428 136.184 271.396C136.092 271.36 136.006 271.342 135.926 271.342C135.85 271.342 135.782 271.35 135.722 271.366C135.662 271.378 135.612 271.398 135.572 271.426C135.532 271.454 135.5 271.49 135.476 271.534C135.456 271.574 135.446 271.622 135.446 271.678C135.45 271.726 135.462 271.772 135.482 271.816C135.506 271.856 135.538 271.89 135.578 271.918C135.622 271.946 135.688 271.978 135.776 272.014C135.864 272.05 135.978 272.084 136.118 272.116C136.314 272.168 136.478 272.226 136.61 272.29C136.742 272.354 136.846 272.428 136.922 272.512C136.998 272.584 137.052 272.668 137.084 272.764C137.116 272.86 137.132 272.966 137.132 273.082C137.132 273.27 137.078 273.438 136.97 273.586C136.866 273.734 136.722 273.85 136.538 273.934C136.358 274.018 136.154 274.06 135.926 274.06ZM139.264 274.06C138.932 274.06 138.638 273.99 138.382 273.85C138.13 273.71 137.932 273.52 137.788 273.28C137.648 273.036 137.578 272.758 137.578 272.446C137.578 272.198 137.618 271.972 137.698 271.768C137.778 271.564 137.888 271.388 138.028 271.24C138.172 271.088 138.342 270.972 138.538 270.892C138.738 270.808 138.956 270.766 139.192 270.766C139.4 270.766 139.594 270.806 139.774 270.886C139.954 270.966 140.11 271.076 140.242 271.216C140.374 271.352 140.474 271.516 140.542 271.708C140.614 271.896 140.648 272.102 140.644 272.326L140.638 272.584H138.076L137.938 272.08H140.02L139.924 272.182V272.05C139.912 271.926 139.872 271.818 139.804 271.726C139.736 271.63 139.648 271.556 139.54 271.504C139.436 271.448 139.32 271.42 139.192 271.42C138.996 271.42 138.83 271.458 138.694 271.534C138.562 271.61 138.462 271.72 138.394 271.864C138.326 272.004 138.292 272.18 138.292 272.392C138.292 272.596 138.334 272.774 138.418 272.926C138.506 273.078 138.628 273.196 138.784 273.28C138.944 273.36 139.13 273.4 139.342 273.4C139.49 273.4 139.626 273.376 139.75 273.328C139.874 273.28 140.008 273.194 140.152 273.07L140.518 273.58C140.41 273.68 140.286 273.766 140.146 273.838C140.01 273.906 139.866 273.96 139.714 274C139.562 274.04 139.412 274.06 139.264 274.06Z" fill="#1F0D40"/>
<rect x="153.5" y="246" width="53" height="20" rx="10" fill="#1F0D40"/>
<path d="M171.5 259C171.5 259.552 171.052 260 170.5 260H164.5C163.948 260 163.5 259.552 163.5 259V253C163.5 252.448 163.948 252 164.5 252H170.5C171.052 252 171.5 252.448 171.5 253V259Z" fill="white"/>
<path d="M178.337 259.08C177.99 259.08 177.673 259.037 177.385 258.952C177.102 258.867 176.849 258.741 176.625 258.576C176.406 258.411 176.209 258.211 176.033 257.976L176.785 257.12C177.046 257.483 177.305 257.731 177.561 257.864C177.822 257.992 178.105 258.056 178.409 258.056C178.574 258.056 178.721 258.035 178.849 257.992C178.982 257.944 179.086 257.877 179.161 257.792C179.236 257.707 179.273 257.605 179.273 257.488C179.273 257.403 179.254 257.325 179.217 257.256C179.18 257.181 179.126 257.117 179.057 257.064C178.988 257.005 178.905 256.955 178.809 256.912C178.713 256.864 178.606 256.824 178.489 256.792C178.372 256.755 178.244 256.725 178.105 256.704C177.806 256.635 177.545 256.552 177.321 256.456C177.097 256.355 176.91 256.232 176.761 256.088C176.612 255.939 176.5 255.771 176.425 255.584C176.356 255.397 176.321 255.187 176.321 254.952C176.321 254.712 176.374 254.491 176.481 254.288C176.588 254.08 176.734 253.901 176.921 253.752C177.113 253.603 177.332 253.488 177.577 253.408C177.828 253.328 178.092 253.288 178.369 253.288C178.71 253.288 179.009 253.328 179.265 253.408C179.521 253.483 179.742 253.592 179.929 253.736C180.121 253.88 180.281 254.056 180.409 254.264L179.649 255C179.537 254.851 179.414 254.725 179.281 254.624C179.153 254.523 179.012 254.448 178.857 254.4C178.708 254.347 178.553 254.32 178.393 254.32C178.217 254.32 178.065 254.344 177.937 254.392C177.809 254.435 177.708 254.499 177.633 254.584C177.564 254.669 177.529 254.773 177.529 254.896C177.529 254.992 177.553 255.077 177.601 255.152C177.649 255.227 177.718 255.293 177.809 255.352C177.9 255.405 178.009 255.453 178.137 255.496C178.265 255.539 178.406 255.576 178.561 255.608C178.854 255.667 179.118 255.744 179.353 255.84C179.588 255.936 179.788 256.053 179.953 256.192C180.124 256.325 180.254 256.485 180.345 256.672C180.436 256.853 180.481 257.059 180.481 257.288C180.481 257.667 180.39 257.989 180.209 258.256C180.028 258.523 179.777 258.728 179.457 258.872C179.137 259.011 178.764 259.08 178.337 259.08ZM181.816 259V253.696H182.952V259H181.816ZM181.024 255.784V254.768H183.816V255.784H181.024ZM186.485 259.08C186.053 259.08 185.667 258.987 185.325 258.8C184.989 258.608 184.723 258.347 184.525 258.016C184.333 257.685 184.237 257.307 184.237 256.88C184.237 256.453 184.333 256.077 184.525 255.752C184.723 255.421 184.989 255.16 185.325 254.968C185.667 254.776 186.053 254.68 186.485 254.68C186.912 254.68 187.293 254.776 187.629 254.968C187.971 255.16 188.237 255.421 188.429 255.752C188.621 256.077 188.717 256.453 188.717 256.88C188.717 257.307 188.621 257.685 188.429 258.016C188.237 258.347 187.971 258.608 187.629 258.8C187.293 258.987 186.912 259.08 186.485 259.08ZM186.485 258.088C186.693 258.088 186.88 258.037 187.045 257.936C187.211 257.829 187.339 257.685 187.429 257.504C187.525 257.317 187.573 257.109 187.573 256.88C187.573 256.645 187.525 256.437 187.429 256.256C187.339 256.069 187.211 255.925 187.045 255.824C186.88 255.717 186.693 255.664 186.485 255.664C186.272 255.664 186.083 255.717 185.917 255.824C185.752 255.931 185.621 256.075 185.525 256.256C185.429 256.437 185.384 256.645 185.389 256.88C185.384 257.109 185.429 257.317 185.525 257.504C185.621 257.685 185.752 257.829 185.917 257.936C186.083 258.037 186.272 258.088 186.485 258.088ZM189.572 260.76V254.768H190.668L190.7 255.72L190.492 255.648C190.529 255.477 190.62 255.32 190.764 255.176C190.913 255.032 191.097 254.915 191.316 254.824C191.535 254.733 191.764 254.688 192.004 254.688C192.372 254.688 192.697 254.784 192.98 254.976C193.268 255.163 193.495 255.421 193.66 255.752C193.831 256.077 193.916 256.453 193.916 256.88C193.916 257.301 193.833 257.677 193.668 258.008C193.503 258.339 193.276 258.6 192.988 258.792C192.7 258.979 192.372 259.072 192.004 259.072C191.759 259.072 191.524 259.027 191.3 258.936C191.081 258.84 190.895 258.715 190.74 258.56C190.585 258.405 190.489 258.24 190.452 258.064L190.716 257.952V260.76H189.572ZM191.748 258.096C191.956 258.096 192.14 258.045 192.3 257.944C192.46 257.843 192.585 257.701 192.676 257.52C192.767 257.333 192.812 257.12 192.812 256.88C192.812 256.64 192.767 256.429 192.676 256.248C192.585 256.067 192.46 255.925 192.3 255.824C192.145 255.723 191.961 255.672 191.748 255.672C191.535 255.672 191.348 255.723 191.188 255.824C191.028 255.92 190.903 256.061 190.812 256.248C190.721 256.429 190.676 256.64 190.676 256.88C190.676 257.12 190.721 257.333 190.812 257.52C190.903 257.701 191.028 257.843 191.188 257.944C191.348 258.045 191.535 258.096 191.748 258.096Z" fill="white"/>
<path d="M230.825 253.175C230.1 252.45 229.105 252 228 252C226.939 252 225.922 252.421 225.172 253.172C224.421 253.922 224 254.939 224 256C224 257.061 224.421 258.078 225.172 258.828C225.922 259.579 226.939 260 228 260C229.865 260 231.42 258.725 231.865 257H230.825C230.415 258.165 229.305 259 228 259C227.204 259 226.441 258.684 225.879 258.121C225.316 257.559 225 256.796 225 256C225 255.204 225.316 254.441 225.879 253.879C226.441 253.316 227.204 253 228 253C228.83 253 229.57 253.345 230.11 253.89L228.5 255.5H232V252L230.825 253.175Z" fill="#1F0D40"/>
<rect x="218.25" y="246.25" width="19.5" height="19.5" rx="9.75" stroke="#1F0D40" stroke-width="0.5"/>
<path opacity="0.4" d="M217.753 274V269.8H219.577C219.829 269.8 220.059 269.86 220.267 269.98C220.475 270.096 220.639 270.256 220.759 270.46C220.883 270.66 220.945 270.886 220.945 271.138C220.945 271.378 220.883 271.6 220.759 271.804C220.639 272.004 220.475 272.164 220.267 272.284C220.063 272.4 219.833 272.458 219.577 272.458H218.515V274H217.753ZM220.189 274L219.121 272.104L219.925 271.954L221.113 274.006L220.189 274ZM218.515 271.78H219.583C219.699 271.78 219.799 271.754 219.883 271.702C219.971 271.646 220.039 271.57 220.087 271.474C220.135 271.378 220.159 271.272 220.159 271.156C220.159 271.024 220.129 270.91 220.069 270.814C220.009 270.718 219.925 270.642 219.817 270.586C219.709 270.53 219.585 270.502 219.445 270.502H218.515V271.78ZM223.17 274.06C222.838 274.06 222.544 273.99 222.288 273.85C222.036 273.71 221.838 273.52 221.694 273.28C221.554 273.036 221.484 272.758 221.484 272.446C221.484 272.198 221.524 271.972 221.604 271.768C221.684 271.564 221.794 271.388 221.934 271.24C222.078 271.088 222.248 270.972 222.444 270.892C222.644 270.808 222.862 270.766 223.098 270.766C223.306 270.766 223.5 270.806 223.68 270.886C223.86 270.966 224.016 271.076 224.148 271.216C224.28 271.352 224.38 271.516 224.448 271.708C224.52 271.896 224.554 272.102 224.55 272.326L224.544 272.584H221.982L221.844 272.08H223.926L223.83 272.182V272.05C223.818 271.926 223.778 271.818 223.71 271.726C223.642 271.63 223.554 271.556 223.446 271.504C223.342 271.448 223.226 271.42 223.098 271.42C222.902 271.42 222.736 271.458 222.6 271.534C222.468 271.61 222.368 271.72 222.3 271.864C222.232 272.004 222.198 272.18 222.198 272.392C222.198 272.596 222.24 272.774 222.324 272.926C222.412 273.078 222.534 273.196 222.69 273.28C222.85 273.36 223.036 273.4 223.248 273.4C223.396 273.4 223.532 273.376 223.656 273.328C223.78 273.28 223.914 273.194 224.058 273.07L224.424 273.58C224.316 273.68 224.192 273.766 224.052 273.838C223.916 273.906 223.772 273.96 223.62 274C223.468 274.04 223.318 274.06 223.17 274.06ZM226.259 274.06C225.979 274.06 225.727 274.014 225.503 273.922C225.283 273.826 225.103 273.69 224.963 273.514L225.443 273.1C225.563 273.236 225.697 273.334 225.845 273.394C225.993 273.454 226.149 273.484 226.313 273.484C226.381 273.484 226.441 273.476 226.493 273.46C226.549 273.444 226.597 273.42 226.637 273.388C226.677 273.356 226.707 273.32 226.727 273.28C226.751 273.236 226.763 273.188 226.763 273.136C226.763 273.04 226.727 272.964 226.655 272.908C226.615 272.88 226.551 272.85 226.463 272.818C226.379 272.786 226.269 272.754 226.133 272.722C225.917 272.666 225.737 272.602 225.593 272.53C225.449 272.454 225.337 272.37 225.257 272.278C225.189 272.202 225.137 272.116 225.101 272.02C225.069 271.924 225.053 271.82 225.053 271.708C225.053 271.568 225.083 271.442 225.143 271.33C225.207 271.214 225.293 271.114 225.401 271.03C225.509 270.946 225.635 270.882 225.779 270.838C225.923 270.794 226.073 270.772 226.229 270.772C226.389 270.772 226.543 270.792 226.691 270.832C226.843 270.872 226.983 270.93 227.111 271.006C227.243 271.078 227.355 271.166 227.447 271.27L227.039 271.72C226.963 271.648 226.879 271.584 226.787 271.528C226.699 271.472 226.609 271.428 226.517 271.396C226.425 271.36 226.339 271.342 226.259 271.342C226.183 271.342 226.115 271.35 226.055 271.366C225.995 271.378 225.945 271.398 225.905 271.426C225.865 271.454 225.833 271.49 225.809 271.534C225.789 271.574 225.779 271.622 225.779 271.678C225.783 271.726 225.795 271.772 225.815 271.816C225.839 271.856 225.871 271.89 225.911 271.918C225.955 271.946 226.021 271.978 226.109 272.014C226.197 272.05 226.311 272.084 226.451 272.116C226.647 272.168 226.811 272.226 226.943 272.29C227.075 272.354 227.179 272.428 227.255 272.512C227.331 272.584 227.385 272.668 227.417 272.764C227.449 272.86 227.465 272.966 227.465 273.082C227.465 273.27 227.411 273.438 227.303 273.586C227.199 273.734 227.055 273.85 226.871 273.934C226.691 274.018 226.487 274.06 226.259 274.06ZM228.458 274V270.034H229.196V274H228.458ZM227.834 271.522V270.838H229.886V271.522H227.834ZM231.612 274.06C231.352 274.06 231.116 273.988 230.904 273.844C230.692 273.7 230.522 273.504 230.394 273.256C230.266 273.008 230.202 272.726 230.202 272.41C230.202 272.094 230.266 271.812 230.394 271.564C230.522 271.316 230.696 271.122 230.916 270.982C231.136 270.842 231.384 270.772 231.66 270.772C231.82 270.772 231.966 270.796 232.098 270.844C232.23 270.888 232.346 270.952 232.446 271.036C232.546 271.12 232.628 271.216 232.692 271.324C232.76 271.432 232.806 271.548 232.83 271.672L232.668 271.63V270.838H233.412V274H232.662V273.244L232.836 273.214C232.808 273.322 232.756 273.428 232.68 273.532C232.608 273.632 232.516 273.722 232.404 273.802C232.296 273.878 232.174 273.94 232.038 273.988C231.906 274.036 231.764 274.06 231.612 274.06ZM231.816 273.406C231.988 273.406 232.14 273.364 232.272 273.28C232.404 273.196 232.506 273.08 232.578 272.932C232.654 272.78 232.692 272.606 232.692 272.41C232.692 272.218 232.654 272.048 232.578 271.9C232.506 271.752 232.404 271.636 232.272 271.552C232.14 271.468 231.988 271.426 231.816 271.426C231.644 271.426 231.492 271.468 231.36 271.552C231.232 271.636 231.132 271.752 231.06 271.9C230.988 272.048 230.952 272.218 230.952 272.41C230.952 272.606 230.988 272.78 231.06 272.932C231.132 273.08 231.232 273.196 231.36 273.28C231.492 273.364 231.644 273.406 231.816 273.406ZM234.268 274V270.838H234.994L235.006 271.846L234.904 271.618C234.948 271.458 235.024 271.314 235.132 271.186C235.24 271.058 235.364 270.958 235.504 270.886C235.648 270.81 235.798 270.772 235.954 270.772C236.022 270.772 236.086 270.778 236.146 270.79C236.21 270.802 236.262 270.816 236.302 270.832L236.104 271.642C236.06 271.618 236.006 271.598 235.942 271.582C235.878 271.566 235.814 271.558 235.75 271.558C235.65 271.558 235.554 271.578 235.462 271.618C235.374 271.654 235.296 271.706 235.228 271.774C235.16 271.842 235.106 271.922 235.066 272.014C235.03 272.102 235.012 272.202 235.012 272.314V274H234.268ZM237.253 274V270.034H237.991V274H237.253ZM236.629 271.522V270.838H238.681V271.522H236.629Z" fill="#1F0D40"/>
<rect x="92" y="57" width="176" height="245" rx="18" stroke="#F4F4F4" stroke-width="4"/>
</g>
<defs>
<filter id="filter0_d_2840_3331" x="86" y="51" width="192" height="261" filterUnits="userSpaceOnUse" color-interpolation-filters="sRGB">
<feFlood flood-opacity="0" result="BackgroundImageFix"/>
<feColorMatrix in="SourceAlpha" type="matrix" values="0 0 0 0 0 0 0 0 0 0 0 0 0 0 0 0 0 0 127 0" result="hardAlpha"/>
<feOffset dx="2" dy="2"/>
<feGaussianBlur stdDeviation="3"/>
<feComposite in2="hardAlpha" operator="out"/>
<feColorMatrix type="matrix" values="0 0 0 0 0 0 0 0 0 0 0 0 0 0 0 0 0 0 0.16 0"/>
<feBlend mode="normal" in2="BackgroundImageFix" result="effect1_dropShadow_2840_3331"/>
<feBlend mode="normal" in="SourceGraphic" in2="effect1_dropShadow_2840_3331" result="shape"/>
</filter>
<filter id="filter1_d_2840_3331" x="128" y="95" width="104" height="104" filterUnits="userSpaceOnUse" color-interpolation-filters="sRGB">
<feFlood flood-opacity="0" result="BackgroundImageFix"/>
<feColorMatrix in="SourceAlpha" type="matrix" values="0 0 0 0 0 0 0 0 0 0 0 0 0 0 0 0 0 0 127 0" result="hardAlpha"/>
<feOffset/>
<feGaussianBlur stdDeviation="1"/>
<feComposite in2="hardAlpha" operator="out"/>
<feColorMatrix type="matrix" values="0 0 0 0 0 0 0 0 0 0 0 0 0 0 0 0 0 0 0.08 0"/>
<feBlend mode="normal" in2="BackgroundImageFix" result="effect1_dropShadow_2840_3331"/>
<feBlend mode="normal" in="SourceGraphic" in2="effect1_dropShadow_2840_3331" result="shape"/>
</filter>
<filter id="filter2_d_2840_3331" x="171.097" y="78.0969" width="18.0023" height="18.0023" filterUnits="userSpaceOnUse" color-interpolation-filters="sRGB">
<feFlood flood-opacity="0" result="BackgroundImageFix"/>
<feColorMatrix in="SourceAlpha" type="matrix" values="0 0 0 0 0 0 0 0 0 0 0 0 0 0 0 0 0 0 127 0" result="hardAlpha"/>
<feOffset/>
<feGaussianBlur stdDeviation="1"/>
<feComposite in2="hardAlpha" operator="out"/>
<feColorMatrix type="matrix" values="0 0 0 0 0 0 0 0 0 0 0 0 0 0 0 0 0 0 0.16 0"/>
<feBlend mode="normal" in2="BackgroundImageFix" result="effect1_dropShadow_2840_3331"/>
<feBlend mode="normal" in="SourceGraphic" in2="effect1_dropShadow_2840_3331" result="shape"/>
</filter>
<linearGradient id="paint0_linear_2840_3331" x1="180" y1="154" x2="180" y2="85" gradientUnits="userSpaceOnUse">
<stop stop-color="#7E36FD"/>
<stop offset="1" stop-color="#FF8C34"/>
</linearGradient>
</defs>
</svg>
