<svg width="150" height="100" viewBox="0 0 150 100" fill="none" xmlns="http://www.w3.org/2000/svg">
<rect width="150" height="100" fill="white"/>
<g clip-path="url(#clip0_2864_4024)">
<path d="M53.2699 54.1183C51.7097 54.1183 50.2478 53.4578 48.9195 52.3825L49.2429 50.8645L49.257 50.8082C49.545 49.192 50.4587 46.479 53.2699 46.479C55.3781 46.479 57.093 48.1939 57.093 50.3022C57.0859 52.4035 55.3712 54.1183 53.2699 54.1183ZM53.2699 42.6068C49.6785 42.6068 46.8956 44.94 45.7643 48.7772C44.0353 46.1839 42.7281 43.0707 41.9621 40.4492H38.0968V50.506C38.0968 52.4878 36.4804 54.1041 34.4985 54.1041C32.5166 54.1041 30.9004 52.4878 30.9004 50.506V40.4492H27.0347V50.506C27.0206 54.6244 30.373 58.0047 34.4912 58.0047C38.6096 58.0047 41.962 54.6244 41.962 50.506V48.8194C42.7138 50.3865 43.6345 51.9677 44.752 53.3734L42.3835 64.5053H46.3403L48.0549 56.4304C49.5589 57.3932 51.2878 57.9977 53.2697 57.9977C57.5074 57.9977 60.9581 54.526 60.9581 50.2881C60.9581 46.0573 57.5076 42.6068 53.2699 42.6068Z" fill="#6FDA44"/>
<path d="M72.7579 43.0412L75.2528 53.0979L78.0008 43.0412H81.2757L77.0521 57.5747H73.777L71.1839 47.4545L68.5975 57.5675H65.3226L61.0986 43.0342H64.3737L67.1215 53.091L69.6164 43.0342H72.7578V43.0413L72.7579 43.0412ZM89.1117 42.6054C84.8599 42.6054 81.4163 46.056 81.4163 50.3008C81.4163 54.5527 84.8669 57.9963 89.1117 57.9963C93.3636 57.9963 96.8142 54.5527 96.8142 50.3008C96.8142 46.049 93.3636 42.6054 89.1117 42.6054ZM89.1117 54.8338C86.6099 54.8338 84.5858 52.8097 84.5858 50.3079C84.5858 47.8059 86.6168 45.782 89.1117 45.782C91.6137 45.782 93.6376 47.8059 93.6376 50.3079C93.6376 52.8028 91.6137 54.8338 89.1117 54.8338ZM106.168 46.295C103.969 46.295 102.191 48.08 102.191 50.2727V57.5675H98.8943V43.0412H102.191V45.276C102.191 45.276 103.596 43.034 106.484 43.034H107.496V46.295H106.168ZM117.23 49.7387C119.57 48.4173 121.159 45.9084 121.159 43.034H117.862C117.862 45.4586 115.895 47.4264 113.47 47.4264H113.027V36.0273H109.731V57.5673H113.027V50.7225H113.421C113.744 50.7225 114.166 50.9334 114.356 51.1933L119.036 57.5675H122.986L117.23 49.7387Z" fill="black"/>
</g>
<defs>
<clipPath id="clip0_2864_4024">
<rect width="96" height="28.6875" fill="white" transform="translate(27 36)"/>
</clipPath>
</defs>
</svg>
