<svg width="170" height="108" viewBox="0 0 170 108" fill="none" xmlns="http://www.w3.org/2000/svg">
<path d="M58.9346 58.4783C57.095 58.4783 55.3712 57.6821 53.805 56.3858L54.1863 54.5558L54.2029 54.4879C54.5425 52.5396 55.6199 49.269 58.9346 49.269C61.4205 49.269 63.4426 51.3364 63.4426 53.8779C63.4342 56.4111 61.4123 58.4783 58.9346 58.4783ZM58.9346 44.601C54.6999 44.601 51.4185 47.4137 50.0846 52.0395C48.0459 48.9133 46.5045 45.1603 45.6013 42H41.0437V54.1236C41.0437 56.5127 39.1377 58.4612 36.8008 58.4612C34.4639 58.4612 32.5582 56.5127 32.5582 54.1236V42H28.0001V54.1236C27.9834 59.0884 31.9363 63.1634 36.7922 63.1634C41.6483 63.1634 45.6012 59.0884 45.6012 54.1236V52.0904C46.4877 53.9796 47.5733 55.8857 48.891 57.5803L46.0982 71H50.7638L52.7855 61.2656C54.5589 62.4263 56.5975 63.155 58.9344 63.155C63.9312 63.155 68 58.9698 68 53.8609C68 48.7607 63.9314 44.601 58.9346 44.601Z" fill="#6FDA44"/>
<path d="M81.9413 45.3008L84.9245 57.2028L88.2103 45.3008H92.1262L87.0759 62.501H83.1598L80.0592 50.5239L76.9666 62.4925H73.0507L68 45.2926H71.9161L75.2017 57.1946L78.1849 45.2926H81.9411L81.9413 45.3008ZM101.496 44.7851C96.4119 44.7851 92.2943 48.8688 92.2943 53.8925C92.2943 58.9245 96.4202 63 101.496 63C106.58 63 110.706 58.9245 110.706 53.8925C110.706 48.8605 106.58 44.7851 101.496 44.7851ZM101.496 59.2572C98.5044 59.2572 96.0841 56.8617 96.0841 53.9009C96.0841 50.9398 98.5126 48.5446 101.496 48.5446C104.488 48.5446 106.908 50.9398 106.908 53.9009C106.908 56.8536 104.488 59.2572 101.496 59.2572ZM121.89 49.1517C119.261 49.1517 117.135 51.2642 117.135 53.8592V62.4925H113.193V45.3008H117.135V47.9457C117.135 47.9457 118.815 45.2923 122.268 45.2923H123.478V49.1517H121.89ZM135.117 53.2272C137.915 51.6634 139.815 48.6941 139.815 45.2923H135.873C135.873 48.1618 133.521 50.4907 130.622 50.4907H130.092V37H126.151V62.4923H130.092V54.3916H130.563C130.949 54.3916 131.454 54.6412 131.681 54.9487L137.277 62.4925H142L135.117 53.2272Z" fill="black"/>
</svg>
